<svg fill="none" height="130" viewBox="0 0 350 130" width="350" xmlns="http://www.w3.org/2000/svg" xmlns:xlink="http://www.w3.org/1999/xlink"><clipPath id="a"><path d="m0 0h350v130h-350z"/></clipPath><g clip-path="url(#a)"><path d="m0 0h350v130h-350z" fill="#dccac1"/><path d="m-2.30173 75.6637-.69827.3362-70.5 115.5001 274.5 33.5 208.5-78c-10-14.5-36-41.8-60-35-30 8.5-84.5 30.5-104.5-24s-85.5-37.0001-130.5-42.0001c-44.8443-4.9827-49.9649-2.5172-116.80173 29.6638z" fill="#efe7e2"/><path d="m100.5 102.708c-55-23.9999-48 17.5-108.5 42.5l24.5 132h227c47.667-5.833 149.5-34.1 175.5-100.5 32.5-83-32.5-111.4999-56.5-127.9999s-142 14-168 35.5c-26 21.4999-39 42.4999-94 18.4999z" fill="#f8f4f2"/><path d="m200 112h10v10h-10z" fill="#915f3a"/><path d="m192.5 24c0-.8284.672-1.5 1.5-1.5h122c.828 0 1.5.6716 1.5 1.5v84c0 .828-.672 1.5-1.5 1.5h-122c-.828 0-1.5-.672-1.5-1.5z" fill="#634132" stroke="#915f3a" stroke-width="5"/><path d="m255 20h61c2.209 0 4 1.7909 4 4v84c0 2.209-1.791 4-4 4h-61z" fill="#915f3a"/><path d="m300 112h10v10h-10z" fill="#915f3a"/><path d="m263 72c2.761 0 5-2.2386 5-5s-2.239-5-5-5-5 2.2386-5 5 2.239 5 5 5z" fill="#030303"/><path d="m320 79h-126v5h126z" fill="#915f3a"/><path d="m320 50h-126v5h126z" fill="#915f3a"/><g fill="#fdfdfd"><path d="m194 26.5c0-.8284-.672-1.5-1.5-1.5s-1.5.6716-1.5 1.5v3c0 .8284.672 1.5 1.5 1.5s1.5-.6716 1.5-1.5z"/><path d="m194 98.5c0-.8284-.672-1.5-1.5-1.5s-1.5.6716-1.5 1.5v3c0 .828.672 1.5 1.5 1.5s1.5-.672 1.5-1.5z"/></g></g></svg>