<svg fill="none" height="130" viewBox="0 0 350 130" width="350" xmlns="http://www.w3.org/2000/svg" xmlns:xlink="http://www.w3.org/1999/xlink"><clipPath id="a"><path d="m0 0h350v130h-350z"/></clipPath><g clip-path="url(#a)"><path d="m0 0h350v130h-350z" fill="#f8f4f2"/><path d="m144.5 45c-79 2-85-33.5-123-73l341.5 9v175c-9 4.833-33.2 4.4-58-36-31-50.5-81.5-77-160.5-75z" fill="#efe7e2"/><path d="m423.547 130.666c-27.062 46.873-86.998 62.933-133.87 35.871-46.873-27.062-62.933-86.998-35.871-133.8706 10.964-18.9897 7.041-35.19488 46.024-40.97836 34.238-31.03924 44.723-4.20084 72.003 11.54912 69.282 40.00004 78.776 80.55644 51.714 127.42884z" fill="#dccac1"/><path d="m350 35h-110v20h110z" fill="#eee"/><path d="m345 54h-90v96h90z" fill="#8edadb"/><path d="m315 54h-30v96h30z" fill="#558a89"/><path d="m375 54h-30v96h30z" fill="#558a89"/><path d="m220 20h5c8.284 0 15 6.7157 15 15v20c0 8.2843-6.716 15-15 15h-5z" fill="#558a89"/><g fill="#dadada"><path d="m270 30c0-2.7614-2.239-5-5-5s-5 2.2386-5 5v30c0 2.7614 2.239 5 5 5s5-2.2386 5-5z"/><path d="m295 30c0-2.7614-2.239-5-5-5s-5 2.2386-5 5v30c0 2.7614 2.239 5 5 5s5-2.2386 5-5z"/><path d="m320 30c0-2.7614-2.239-5-5-5s-5 2.2386-5 5v30c0 2.7614 2.239 5 5 5s5-2.2386 5-5z"/><path d="m345 30c0-2.7614-2.239-5-5-5s-5 2.2386-5 5v30c0 2.7614 2.239 5 5 5s5-2.2386 5-5z"/></g></g></svg>