<svg fill="none" height="130" viewBox="0 0 350 130" width="350" xmlns="http://www.w3.org/2000/svg"><path d="m350 0h-128.22l-.19.16c-24.13 20.77-40.06 49.84-49.17 80.37-5.1 17.08-9 36-19.8 49.47h197.38z" fill="#5ecccc"/><path d="m110.52 59.32c8.21-19.32 3.98-42.22-8.24-59.32h-102.28v130h90.1c-3.0758-4.737-4.836-10.208-5.1-15.85-.79-20.44 17.52-36 25.52-54.83z" fill="#dbf3f4"/><path d="m221.59.16.19-.16h-119.5c12.22 17.1 16.46 40 8.24 59.32-8 18.83-26.31 34.39-25.54 54.83.27 5.644 2.0372 11.115 5.12 15.85h62.51c10.84-13.52 14.7-32.39 19.8-49.47 9.12-30.53 25.05-59.6 49.18-80.37z" fill="#8edadb"/><path d="m272.09 55.28h-20.79v20.79h20.79z" fill="#634132"/><path d="m246.02 8.35999-17.6 58.65001h33.87v-58.65001z" fill="#ffd392"/><path d="m278.57 8.35999h-16.28v58.65001h33.87z" fill="#ffb942"/><path d="m264.95 76.0699h-6.65v35.3701h6.65z" fill="#634132"/><path d="m258.3 97.08v6.65h63.34v-6.65z" fill="#634132"/><path d="m328.69 79.17v42.47c-3.008 0-5.892-1.195-8.019-3.321-2.126-2.127-3.321-5.011-3.321-8.019v-19.79c0-3.0075 1.195-5.8919 3.321-8.0185 2.127-2.1267 5.011-3.3215 8.019-3.3215z" fill="#dadada"/></svg>