<svg fill="none" height="130" viewBox="0 0 350 130" width="350" xmlns="http://www.w3.org/2000/svg" xmlns:xlink="http://www.w3.org/1999/xlink"><clipPath id="a"><path d="m0 0h350v130h-350z"/></clipPath><g clip-path="url(#a)"><path d="m0 0h350v130h-350z" fill="#f8f4f2"/><path d="m180 123c0 55.228-44.772 100-100 100-55.2285 0-100-44.772-100-100 0-55.2286 27-94 100-100.0001 43-15.99998 70 7.9999 76.5 35.5935 0 39.4066 23.5 39.871 23.5 64.4066z" fill="#fff5f5"/><path d="m160.5 75.5c-91.5 1.5-111-45.5-164-11l-74.5-94.5 246.5-17c95-2.3334 271.7 6.8 218.5 62-66.5 69-135 59-226.5 60.5z" fill="#fbe4e4"/><path d="m255 101.5v-6.5l45-20v-20h-87" stroke="#030303" stroke-linecap="round" stroke-width="2"/><path d="m258 101h-6c-2.209 0-4 1.791-4 4v36c0 2.209 1.791 4 4 4h6c2.209 0 4-1.791 4-4v-36c0-2.209-1.791-4-4-4z" fill="#ff6b6b"/><path d="m291 44h-72c-2.209 0-4 1.7909-4 4v14c0 2.2091 1.791 4 4 4h72c2.209 0 4-1.7909 4-4v-14c0-2.2091-1.791-4-4-4z" fill="#fdfdfd"/><path d="m225.618 49.7933c.353-.3476.648-.6373.882-.7933 1.5-1 5.5 1.5 8.5 6s10 1.5 11.5-2.5 7.5-4.5 12.5 1 13.5 0 14-3 6.5-1 11.5 4.5c4.119 4.5313 6.881.578 9.124-2.6327.48-.6864.936-1.3389 1.376-1.8673v-2.5c0-2.2091-1.791-4-4-4h-72c-2.209 0-4 1.7909-4 4v.5c5.064 6.7523 8.704 3.1748 10.618 1.2933z" fill="#ff6b6b"/></g></svg>