<svg fill="none" height="130" viewBox="0 0 350 130" width="350" xmlns="http://www.w3.org/2000/svg" xmlns:xlink="http://www.w3.org/1999/xlink"><clipPath id="a"><path d="m0 0h350v130h-350z"/></clipPath><g clip-path="url(#a)"><path d="m0 0h350v130h-350z" fill="#dccac1"/><path d="m153 117c-23.5 57-45.219 101-101 101-55.78076 0-101-45.219-101-101 0-55.7808 17.7192-101.5 73.5-101.5 23.2595 0 55.3846-3 78.5 19.6755 35.5 34.8245 62.243 46.2603 50 81.8245z" fill="#f8f4f2"/><path d="m153 98c-38-20.5-69-34-165-7.5l32.5 90.5c93.5.833 288.6 1 321-5 40.5-7.5-9.5-72-46.5-102.5s-104 45-142 24.5z" fill="#efe7e2"/><path d="m255.963 86.9862c-.144 1.4433-.311 3.113-.201 4.3969 0 4.0962 3.392 7.4168 7.576 7.4168 3.483 0 6.417-2.3013 7.303-5.4356.232-.5487.334-1.2048.273-1.9812-.238-3.0324-2.116-5.7438-3.883-8.2965-2.729-3.9406-5.196-7.503-.966-11.284 4.609-4.1197-1.783-2.3073-7.504-.1586-2.144.8051-3.68 2.6896-4.138 4.9332l-1.395 6.8274c-.153.7498.42 1.4517 1.185 1.4517.4 0 .767-.2052 1.018-.5174 1.138-1.4202.964.319.732 2.6473z" fill="#0078fa"/><path d="m264.826 73.479c-.075.7641-.163 1.6481-.105 2.3278 0 2.1685 1.776 3.9265 3.968 3.9265 1.825 0 3.362-1.2183 3.825-2.8776.122-.2905.176-.6379.144-1.0489-.125-1.6054-1.109-3.0408-2.035-4.3923-1.429-2.0862-2.721-3.9722-.505-5.9738 2.921-2.6387-2.593-.6807-5.715.6282l-1.27 6.2825h1.111c.812-1.2051.716-.2271.582 1.1276z" fill="#0078fa"/><path d="m207.664 125.667c0-29.8814 11.87-58.5386 32.999-79.6677s49.786-32.9993 79.667-32.9993v34.7013c-20.677 0-40.508 8.2142-55.129 22.8355-14.622 14.6214-22.836 34.4522-22.836 55.1302z" fill="#fdfdfd"/><path d="m262.202 73.7072c-.777.8694-1.533 1.7546-2.268 2.6548-.153-.1128-.29-.2529-.403-.4188l-5.913-8.6719-6.764.7515c-.951.1057-1.808-.5799-1.914-1.5313s.58-1.8084 1.531-1.9141l6.848-.761 6.083-12.5713c.417-.8617 1.454-1.2222 2.316-.8053.861.417 1.222 1.4536.805 2.3153l-6.063 12.5305z" fill="#dadada"/><path d="m320.331 12.1334c0-2.39325-1.94-4.33335-4.334-4.33335-2.393 0-4.333 1.9401-4.333 4.33335v37.2666c0 2.3933 1.94 4.3333 4.333 4.3333 2.394 0 4.334-1.94 4.334-4.3333z" fill="#aeaeae"/><path d="m206.798 125.667h37.267c2.393 0 4.333-1.94 4.333-4.333 0-2.394-1.94-4.334-4.333-4.334h-37.267c-2.393 0-4.333 1.94-4.333 4.334 0 2.393 1.94 4.333 4.333 4.333z" fill="#aeaeae"/><path d="m255.963 86.9862c-.144 1.4433-.311 3.113-.201 4.3969 0 4.0962 3.392 7.4168 7.576 7.4168 3.483 0 6.417-2.3013 7.303-5.4356.232-.5487.334-1.2048.273-1.9812-.238-3.0324-2.116-5.7438-3.883-8.2965-2.729-3.9406-5.196-7.503-.966-11.284 4.609-4.1197-1.783-2.3073-7.504-.1586-2.144.8051-3.68 2.6896-4.138 4.9332l-1.395 6.8274c-.153.7498.42 1.4517 1.185 1.4517.4 0 .767-.2052 1.018-.5174 1.138-1.4202.964.319.732 2.6473z" fill="#83beff"/><path d="m264.826 73.479c-.075.7641-.163 1.6481-.105 2.3278 0 2.1685 1.776 3.9265 3.968 3.9265 1.825 0 3.362-1.2183 3.825-2.8776.122-.2905.176-.6379.144-1.0489-.125-1.6054-1.109-3.0408-2.035-4.3923-1.429-2.0862-2.721-3.9722-.505-5.9738 2.921-2.6387-2.593-.6807-5.715.6282l-1.27 6.2825h1.111c.812-1.2051.716-.2271.582 1.1276z" fill="#83beff"/><path d="m207.664 125.667c0-29.8814 11.87-58.5386 32.999-79.6677s49.786-32.9993 79.667-32.9993v34.7013c-20.677 0-40.508 8.2142-55.129 22.8355-14.622 14.6214-22.836 34.4522-22.836 55.1302z" fill="#fdfdfd"/><path d="m262.202 73.7072c-.777.8694-1.533 1.7546-2.268 2.6548-.153-.1128-.29-.2529-.403-.4188l-5.913-8.6719-6.764.7515c-.951.1057-1.808-.5799-1.914-1.5313s.58-1.8084 1.531-1.9141l6.848-.761 6.083-12.5713c.417-.8617 1.454-1.2222 2.316-.8053.861.417 1.222 1.4536.805 2.3153l-6.063 12.5305z" fill="#dadada"/><g fill="#aeaeae"><path d="m320.331 12.1334c0-2.39325-1.94-4.33335-4.334-4.33335-2.393 0-4.333 1.9401-4.333 4.33335v37.2666c0 2.3933 1.94 4.3333 4.333 4.3333 2.394 0 4.334-1.94 4.334-4.3333z"/><path d="m206.798 125.667h37.267c2.393 0 4.333-1.94 4.333-4.333 0-2.394-1.94-4.334-4.333-4.334h-37.267c-2.393 0-4.333 1.94-4.333 4.334 0 2.393 1.94 4.333 4.333 4.333z"/></g></g></svg>