<svg fill="none" height="130" viewBox="0 0 350 130" width="350" xmlns="http://www.w3.org/2000/svg" xmlns:xlink="http://www.w3.org/1999/xlink"><clipPath id="a"><path d="m0 0h350v130h-350z"/></clipPath><g clip-path="url(#a)"><path d="m276.81 30c-24.645 12.4978-45.156 31.8461-59.07 55.72-8.17 14.09-13.89 29.47-20.89 44.16h152.85v-105.14c-3.866-1.8431-7.906-3.2969-12.06-4.34-20.35-5.09-42.11.16-60.83 9.6z" fill="#dbf3f5"/><path d="m327.14 0h-99.47c-17.67 7.46-34.26 18.13-49.59 29.84-24.41 18.66-46.53 40.16-71.33 58.35s-53.09 33.07-83.69 35.81c-7.6848.675-15.42156.47-23.06-.61v6.5h196.85c7-14.69 12.72-30.08 20.89-44.16 13.912-23.8776 34.424-43.2296 59.07-55.73 18.72-9.45 40.48-14.7 60.83-9.61 4.154 1.0431 8.194 2.4969 12.06 4.34v-11.84c-7.058-5.05872-14.618-9.37812-22.56-12.89z" fill="#a0e8e6"/><path d="m349.7 0h-22.56c7.942 3.51188 15.502 7.83128 22.56 12.89z" fill="#5ecccd"/><path d="m23.06 124c30.6-2.73 58.9-17.64 83.7-35.79s46.91-39.7 71.32-58.35c15.33-11.73 31.92-22.4 49.59-29.86h-227.67v123.39c7.63844 1.08 15.3752 1.285 23.06.61z" fill="#5ecccd"/><path d="m22.25 93.3501c-1.8777 0-3.6786.7459-5.0063 2.0737-1.3278 1.3277-2.0737 3.1286-2.0737 5.0062v31.06c0 .24.0474.477.1395.699.0921.221.227.422.3971.592.17.169.3719.303.5938.393.222.091.4597.137.6996.136h10.51c.4827 0 .9456-.192 1.2869-.533s.5331-.804.5331-1.287v-31.06c0-.9297-.1831-1.8503-.539-2.7093-.3558-.859-.8773-1.6395-1.5347-2.2969-.6574-.6575-1.4379-1.179-2.2969-1.5348s-1.7797-.5389-2.7094-.5389z" fill="#dbf3f5"/><path d="m21.27 94.5c-3.38 0-6.11 3.08-6.11 6.88v30.16c-.0246.441.1269.875.4212 1.205.2943.329.7074.529 1.1488.555h9.09c.4414-.026.8545-.226 1.1488-.555.2943-.33.4458-.764.4212-1.205v-30.16c-.01-3.8-2.74-6.88-6.12-6.88z" fill="#a0e8e6"/><path d="m33.5 74.3401h39.5c1.106 0 2.1666.4393 2.9487 1.2214.782.782 1.2213 1.8426 1.2213 2.9486v36.1499h-47.84v-36.1499c0-1.106.4394-2.1666 1.2214-2.9486.782-.7821 1.8427-1.2214 2.9486-1.2214z" fill="#a0e8e6"/><path d="m84.23 114.66h-59.14v18.65h59.14z" fill="#a0e8e6"/><path d="m30.7 109.21h45.07c.3634 0 .7118.145.9688.401.2569.257.4012.606.4012.969v4.07h-47.81v-4.07c0-.18.0355-.358.1043-.524.0689-.166.1698-.317.297-.445.1272-.127.2782-.228.4444-.297.1663-.068.3444-.104.5243-.104z" fill="#dbf3f5"/><path d="m84.23 93.3501c-1.8777 0-3.6785.7459-5.0063 2.0737-1.3277 1.3277-2.0737 3.1286-2.0737 5.0062v31.06c0 .242.048.481.1414.704.0933.222.2301.424.4022.594.1722.169.3764.303.6007.392.2243.09.4642.134.7057.13h10.5c.4827 0 .9456-.192 1.287-.533.3413-.341.533-.804.533-1.287v-31.06c0-.9305-.1834-1.852-.5399-2.7116-.3564-.8596-.8788-1.6406-1.5373-2.2982-.6585-.6575-1.4402-1.1788-2.3003-1.534-.8602-.3552-1.7819-.5374-2.7125-.5361z" fill="#dbf3f5"/><path d="m83.26 94.5c-3.38 0-6.11 3.08-6.11 6.88v30.16c-.0246.441.1269.875.4212 1.205.2943.329.7074.529 1.1488.555h9.08c.4414-.026.8545-.226 1.1488-.555.2943-.33.4458-.764.4212-1.205v-30.16c0-3.8-2.73-6.88-6.11-6.88z" fill="#a0e8e6"/><path d="m152.51 32.54h-19.5v31.92h19.5z" fill="#a0e8e6" stroke="#dbf3f5" stroke-miterlimit="10"/><path d="m148.88 36.55h-12.05v23.5101h12.05z" fill="#5ecccd"/><path d="m125.94 32.54h-28.19v17.58h28.19z" fill="#a0e8e6" stroke="#dbf3f5" stroke-miterlimit="10"/><path d="m122.37 35.98h-21.15v10.7h21.15z" fill="#5ecccd"/><path d="m125.12 57.9102h-18.88v16.24h18.88z" fill="#a0e8e6" stroke="#dbf3f5" stroke-miterlimit="10"/><path d="m225.59 84.69-17.72 8.31-1.37 7.85c2.363.417 4.787.322 7.11-.28 3.66-1 13.75-11 13.75-11l3.11-1.57-3.67-5c-.68.93-1.21 1.69-1.21 1.69z" fill="#c66f7e"/><path d="m238.91 83.0001c-.61-.54-2.54-4-3.45-4.24s-4 1.56-4 1.56c-.662-.1144-1.338-.1144-2 0-.58.12-1.75 1.5-2.66 2.68l3.67 5 8.84-3.45c.059-.2717.054-.5534-.016-.8225-.069-.2692-.201-.5184-.384-.7275z" fill="#fb919f"/><path d="m192.47 86.8201c1.877.7906 3.712 1.6751 5.5 2.65 2.54 1.42 10.34 2.13 10.34 2.13l-.29 10.9999s-9.88.8-12.75 1.14c-1.07.16-2.8-16.9199-2.8-16.9199z" fill="#d65050"/><path d="m227.35 94.23v-.01.01h-.5-.52-.49-.52-.51-.52-.5-.52-.52-.52-2.03v.52h1.37.52.52.52.5.52.52.52.48.52.5.65z" fill="#533a71"/><path d="m214.78 94.4901c-.028-.3173.017-.6368.131-.9344.113-.2977.292-.5657.524-.7841s.511-.3815.814-.477c.304-.0955.626-.121.941-.0745.777-.0016 1.552.0857 2.31.26v2z" fill="#ffb942"/><path d="m219.5 94.49v2c-.758.1743-1.533.2615-2.31.26-.315.0465-.637.021-.941-.0745-.303-.0955-.582-.2586-.814-.477s-.411-.4865-.524-.7841c-.114-.2976-.159-.6171-.131-.9344z" fill="#ffb942"/><g fill="#533a71"><path d="m220.95 93.58v.91h-1.45v-2c.589.1964 1.098.5789 1.45 1.09z"/><path d="m220.95 94.49v.91c-.351.5148-.86.901-1.45 1.1v-2z"/><path d="m214.89 96.93 2.33-.12v-4.71l-2.33-.06z"/><path d="m214.05 97.8799h-.96c-.204 0-.37.1656-.37.37v.99c0 .2043.166.37.37.37h.96c.204 0 .37-.1657.37-.37v-.99c0-.2044-.166-.37-.37-.37z"/></g><path d="m215 92h-.8v4.17c0 .45-.26.6-1.28.59-1.19 0-1.81 0-2.61 0s-.55 1-.59 2c0 1.14 0 3-.94 3.7-.154.118-.326.209-.51.27-.12 1.09-.24 1.89-.24 1.89h4.74s0-.21 0-.54 0-.67 0-1.08v-.38c0-.38 0-.76 0-1.12 0-.11 0-.22 0-.33 0-.55 0-1 0-1.08-.003-.02-.003-.04 0-.06 0-.11.14-.14.21-.18s.15-.1.15-.22c0-.43 0-1.45 0-1.45h1.45c.21 0 .42-.08.41-.49s.01-5.69.01-5.69z" fill="#e28100"/><path d="m212.29 97.54c0 .4-.25.6-.68.59-.6 0-1.21-.32-1.27-.62s.54-.29 1.16-.29c.43 0 .79.03.79.32z" fill="#fbcb43"/><path d="m213.53 104.66h-5.39c-.359 0-.65.291-.65.65v.69c0 .359.291.65.65.65h5.39c.359 0 .65-.291.65-.65v-.69c0-.359-.291-.65-.65-.65z" fill="#533a71"/><path d="m214.18 92h-6.93v4.87h1c.248 1.9455.248 3.915 0 5.86.184-.061.356-.152.51-.27.9-.66.9-2.55.94-3.7 0-.93-.16-2 .59-2s1.42-.06 2.61 0c1 0 1.27-.14 1.28-.59.02-1.17.01-3.25 0-4.17z" fill="#ffb942"/><path d="m206.72 92c-.387 0-.759.1538-1.032.4276-.274.2738-.428.6452-.428 1.0324v1.95c0 .3872.154.7586.428 1.0324.273.2738.645.4276 1.032.4276h.53v-4.87z" fill="#533a71"/><path d="m193.1 108.35-6.62 3.28c1.263 1.616 2.744 3.05 4.4 4.26 2.388-2.408 3.944-5.516 4.44-8.87z" fill="#c66f7e"/><path d="m216.28 99.24c-.2-.75-4.62-.3-5.14-.4s-3.08-1.35-3.67-1.14-2 3.26-2 3.26l-10.15 6.04c-.496 3.354-2.052 6.462-4.44 8.87.788.602 1.74.951 2.73 1 3-.12 13.5-11.57 13.5-11.57 1.426.276 2.878.39 4.33.34 1.2-.22 3.23-3.45 3.51-4.06s1.53-1.58 1.33-2.34z" fill="#fb919f"/><path d="m293.13 14.1201c-.013-1.2437.309-2.468.932-3.5446.623-1.07664 1.524-1.96614 2.608-2.57542 3.89-2.46 10.58 1.45 10.58 1.45 1.231.22482 2.388.74932 3.368 1.52722.98.7778 1.753 1.7851 2.252 2.9328 1.51 3.85-.86 8.56-.43 9.77s5.56 3.32 5.56 5.32-3.53 4.72-3.53 4.72l-7.84 2.48z" fill="#533a71"/><path d="m301.9 13s-4-4.08001-7.15-1.66c-3.15 2.42-1.25 7.93-.93 9.87s-3.09 6.28-2 9.71 2.58 3.4 2.58 3.4l6.22-2.32 3.26-5.58z" fill="#3d2c56"/><path d="m291.41 66.7302c1.106-1.5957 1.896-3.3877 2.33-5.28h-6.23l-1.69 2.25-.48.66c.272 2.2552 1.037 4.423 2.24 6.35 1.388-1.2149 2.669-2.5464 3.83-3.98z" fill="#c66f7e"/><path d="m276.78 79.76h-51.41v81.67h51.41z" fill="#a3785a"/><path d="m283.82 79.76h-63.67c-.21 0-.38.1701-.38.38v5.38c0 .2099.17.38.38.38h63.67c.21 0 .38-.1701.38-.38v-5.38c0-.2099-.17-.38-.38-.38z" fill="#f7bf74"/><path d="m227.2 85.8999h-3.66v75.5301h3.66z" fill="#f7bf74"/><path d="m280.43 85.8999h-3.66v75.5301h3.66z" fill="#f7bf74"/><path d="m278.61 107.7h-53.24v4.3h53.24z" fill="#f7bf74"/><path d="m294.25 33.78s-2.72.78-3.34 5.36-5 24-5 24c.625.7768 1.41 1.4109 2.3 1.86 1.63.87 4.8 0 4.8 0z" fill="#e28100"/><path d="m298.75 127c-.39-2.61-1.4-5.17-1.25-7.81s1.53-5.27 2.61-7.81c2.74-6.49 4.4-13.58 3.15-20.51l2.18 12.44 10.25 48h9.52s-1.34-18-3.29-31.54c-1.37-9.51-2.66-24.83-4.18-34.91-.357-.8079-.757-1.5958-1.2-2.36-1.06-1.77-2.71-3.38-4.76-3.59-1.68-.17-3.4.62-5 .21-2.21-.56-3.3-3-4.13-5.12-.471-1.3925-1.219-2.675-2.2-3.77l-7.93-.23s-1.62 11.89-1.62 17.28c0 3.89 2.65 35.51 4.13 52.79 1.477-1.81 2.569-3.904 3.209-6.151.64-2.248.814-4.602.511-6.919z" fill="#533a71"/><path d="m303.26 90.8501c1.25 6.93-.42 13.9999-3.15 20.5099-1.07 2.54-2.46 5.05-2.61 7.81s.86 5.19 1.25 7.81c.301 2.322.124 4.682-.521 6.933s-1.744 4.347-3.229 6.157c.57 6.65 1 11.17 1 11.17h10.1s.95-17.88 0-25-.66-23-.66-23z" fill="#3d2c56"/><path d="m302.6 73.9399c.83 2.13 1.91 4.56 4.13 5.12 1.64.42 3.36-.38 5-.21 2.05.21 3.7 1.82 4.76 3.59.443.7643.843 1.5521 1.2 2.36-.64-4.25-1.31-7.57-2.05-9.12l-2.49-5.25-12.8-.26c.999 1.0906 1.764 2.3734 2.25 3.77z" fill="#3d2c56"/><path d="m315.69 64.16s4.82 18.45 4.93 19.46.43 4.15 1.48 5.27 1.27 1.85 1.55 1.85.56-1.47 0-2.14c-.346-.4481-.542-.994-.56-1.56.951 1.3286 2.022 2.5671 3.2 3.7 1.29 1.07 2.52 1.91 2.64 1.29s2.47-4.85.67-6.49-4.65-3.82-4.65-3.82l-3.2-19.18z" fill="#fb919f"/><path d="m321.89 62.0801c0-1.6-3.22-21.51-4.6-24.2-.678-1.4599-1.709-2.728-3-3.69l-6.79-3.35-5 .25-8.25 2.69s-2.75 9.42-3.25 12.36.93 4.47 1.63 6.87-.07 16.12-.07 17c0 .6 4.63 1.47 8.94 1.72.882-.4054 1.711-.9158 2.47-1.52.625-.4766 1.144-1.0786 1.523-1.7675.379-.6888.609-1.4493.677-2.2325-.129-1.4731-.555-2.905-1.25-4.21-.54-1.37-.88-3-.14-4.26s2.22-1.74 3.37-2.48c1.261-.8342 2.257-2.012 2.87-3.3942s.818-2.911.59-4.4058l1.39 9.22c.567 2.7106 1.305 5.3826 2.21 8 .54.47 5.34-.84 6.1-1.16s.58-1.44.58-1.44z" fill="#ffb942"/><path d="m308.15 55.2602c-1.19.76-2.65 1.26-3.37 2.47s-.4 2.89.14 4.26c.681 1.308 1.093 2.7397 1.21 4.21-.068.7832-.298 1.5437-.677 2.2325-.379.6889-.898 1.2909-1.523 1.7675-.759.6043-1.589 1.1146-2.47 1.52 1.759.1417 3.529.1015 5.28-.12 4.36-.73 7.12-.58 6.83-2s-1.57-6.6-1.44-8.46c.225-1.5016.529-2.9903.91-4.46l-1.43-9.22c.228 1.4948.023 3.0236-.59 4.4058s-1.609 2.56-2.87 3.3942z" fill="#e28100"/><path d="m300.6 26.9001.12 2.29.09 1.7s3.19 1.14 3.47.91c1.086-1.1718 2.088-2.4182 3-3.73 0-.22-1.23-4.51-1.23-4.51s-3.93.21-4.34.52c-.498.8842-.872 1.8332-1.11 2.82z" fill="#c66f7e"/><path d="m301.9 13s-6.18 1.49-7 3.13-.5 8.47 1.44 10.77 3 2.39 3 2.39c1.379.0351 2.734-.3675 3.87-1.15.834-.6086 1.581-1.3287 2.22-2.14.011.7854-.196 1.5585-.596 2.2343-.401.6757-.98 1.2279-1.674 1.5957l-2.34 1.07-.31 1.76s-1.87.93-1.82 1.86 2.63 4.28 2.85 4.27 6.58-4.93 6.31-5.86l-.27-.93-.65-8.19-.21-1.15c.499-.197.928-.54 1.229-.9842.302-.4442.462-.969.461-1.5058-.16-1.74-.53-1.79-1.32-1.6s-1 1-1.63.81-2.2-3-2.79-4.58c-.39-1.03-.77-1.8-.77-1.8z" fill="#fb919f"/><path d="m301.89 25.0701s-.67 1.75-2 2-1.89-1.26-1.89-1.26v-.14z" fill="#fff"/><path d="m306.925 23.5021c.458-.0243.81-.4151.785-.8729-.024-.4577-.415-.8091-.873-.7848-.457.0243-.809.4151-.784.8729.024.4577.415.8091.872.7848z" fill="#ffd040"/><path d="m277.7 74.8501s-8.17 3.3-8.5 3.73-2.15 1.66-2 2.13 2.15-.74 2.51-.84 4.55-.87 4.55-.87c-.698.3624-1.347.8127-1.93 1.34-.25.41-.49.65-.11 1s2.13-.57 4.09-.84c.711-.0535 1.403-.2504 2.035-.5786.633-.3283 1.192-.7812 1.645-1.3314.378-.4967.598-1.0962.63-1.72 0 0 3.84-3.18 7-6.12-1.203-1.9269-1.968-4.0947-2.24-6.35z" fill="#fb919f"/><path d="m179.71 131.88 16.05-1.45s.5 5.15.5 11c0 6.33 1.23 17.77 1.23 17.77l7.73-3.41 1.69-13.45-7.33-18.34-8-4.52-10.82 1.34-3.59 4.18.83 6z" fill="#0078fa"/><path d="m171.57 92.4602s-11.44 16.7198-11.51 29.5398 10.18 29 10.18 29l-19.3 2-.1 10.16s27.91.43 31.59-1.48 3.29-3.38 3.15-6.07-6.5-22.7-6.22-27 6.15-7.31 8.41-7.88l2.26-.57s-4.95 5.09-1.06 6.5 5.82-.49 7.82 1.27 1.44 9 4.48 11.74 5.64 2.66 5.64 2.66 2.43-21.39-2.63-23.28c-2.67-1-17.65-1.93-17.65-1.93l-.64-.57z" fill="#1c8ff7"/><path d="m194.63 87.3601s1.48 1.62 2.05 5.58-1 10.3899-2.9 13.0799-5.06 4.84-5.82 5.6-2 4.93-2 4.93-4.24.78-6.65-1.84-.14-2.4-2.9-4.24-2.83-3.46-2.54-4.45 3.53-13.5499 3.53-13.5499l.72-5.57 5.62-2.53h5.26z" fill="#0078fa"/><path d="m173.33 105.77s3 1.55 5 1.32 4.06-2.92 4.06-2.92l-2.47-7.17s-1.41-1.48-2.05-.85-4.54 9.62-4.54 9.62z" fill="#d65050"/><path d="m183.32 84.5802s2.47-.69 5.37 1.57 4 6.13 3.53 8.2c-.245 1.1998-.58 2.3798-1 3.53l1.08 2.1898 1.32 2.62s2.25-6.4798 2.12-9.1098c-.315-2.1735-.991-4.2792-2-6.23l-5.38-5.12z" fill="#d65050"/><path d="m198.87 83.8001-.74 1.89-.37-.25-1.86 1.92-2.78-1.26s-.48-2.65-.48-2.7.56-.85.56-.85 4.35-.27 4.43-.17z" fill="#c66f7e"/><path d="m205.09 71.6501v4.6c0 .54 1.52 2.07 1.49 2.47s-1.27 1.22-1.27 1.22-1.25 5-2.44 5.89-3.55.24-4.75-.13c-1.577-.744-3.092-1.6135-4.53-2.6.24.9576.575 1.8888 1 2.78.371.545.807 1.0421 1.3 1.48-.08 0-2 2.25-2 2.25s-2.12-3-3.79-5.17l-1.67-2.2c.728-.6298 1.3-1.4207 1.67-2.31.24-1 1.51-5 1.59-5.05s6.68-4.88 6.68-4.88l6.71-.14z" fill="#fb919f"/><path d="m203.11 62.6001c-1.34-.42-5.34 1.27-7.18 1.56s-6 0-7.78 2.76c-1.35 2.15-.62 5.45.15 7.89 2.828.4481 5.724-.0922 8.2-1.53 2.52-1.49 4.42-3.83 6.46-5.93.501-.6423 1.207-1.094 2-1.28.404-.0163.805.0798 1.158.2775s.645.4893.842.8425c0-.06 0-.11 0-.17-.39-1.59-2.51-4.02-3.85-4.42z" fill="#533a71"/><path d="m205 66.0702c-.793.1859-1.499.6376-2 1.28-2 2.1-3.94 4.43-6.46 5.93-2.476 1.4377-5.372 1.978-8.2 1.53.22.69.44 1.32.62 1.83.81 2.3.67 3.89 1.45 3.61.427-.1939.794-.4998 1.062-.8854s.426-.8364.458-1.3046c-.004-.4868.169-.9586.487-1.3267.319-.3682.761-.6076 1.243-.6733 1 0 1.48 1.73 1.7 2.19s.88.49 1.34-.42c.494-.7735 1.049-1.5058 1.66-2.19.67-1 .18-1.84.28-2.26s.6-.88 2-1.24 4.17-1.48 4.17-1.48l.32 1c.603-.3225 1.142-.753 1.59-1.27.264-.4838.425-1.0169.473-1.5658s-.017-1.1019-.193-1.6242c-.196-.3551-.487-.6488-.84-.8483s-.755-.2971-1.16-.2817z" fill="#3d2c56"/><path d="m195.75 105.87c-1.035 1.602-2.398 2.965-4 4-1.914 1.097-3.99 1.884-6.15 2.33l-6.6-14.5298s.78 2.9998-.49 4.5198-3.16 1.11-3.87 2.1c-.393.493-.642 1.085-.72 1.71 0 0-4.81-1.63-4.81-5.23 0-3.5998 1.63-8.6198 5.09-11.1698s5.58-3.94 8.23-4.37 5.83 1.47 7 3.38 1.57 5.95 1.57 5.95z" fill="#ff6b6b"/><path d="m200 82.2402c.211.7687.713 1.4249 1.4 1.83 1 .42 1.22-1 1.22-1z" fill="#fff"/><path d="m220.256 116.628-16.378 33.255 3.48 1.715 16.379-33.256z" fill="#f7bf74"/></g></svg>