<svg fill="none" height="130" viewBox="0 0 350 130" width="350" xmlns="http://www.w3.org/2000/svg" xmlns:xlink="http://www.w3.org/1999/xlink"><clipPath id="a"><path d="m0 0h350v130h-350z"/></clipPath><g clip-path="url(#a)"><path d="m276.78-70.24h-51.41v81.67h51.41z" fill="#a3785a"/><path d="m227.2-64.1001h-3.66v75.53h3.66z" fill="#f7bf74"/><path d="m280.43-64.1001h-3.66v75.53h3.66z" fill="#f7bf74"/><path d="m283.82 8.35986h-63.67c-.21 0-.38.17014-.38.38v5.38004c0 .2098.17.38.38.38h63.67c.21 0 .38-.1702.38-.38v-5.38004c0-.20986-.17-.38-.38-.38z" fill="#f7bf74"/><path d="m320.38 10.8199c-.295.6559-.513 1.3438-.65 2.05v1.63h8.27s-.48-3-2-4.19l-1.5-1.14999z" fill="#3d2c56"/><path d="m299.67-.110107s-.22 5.669997-.76 7.189997-5.56 4.90001-5.56 4.90001-.11.65 1.69.87 6.81-2.51 7.69-2.72c.61-.14545 1.227-.25563 1.85-.33001l-.88-2.5.87-9.16z" fill="#fb919f"/><path d="m318.63.109961s1.74 6.209999 1.74 7.739999v3.93004h6.32c-.993-2.03445-1.868-4.12461-2.62-6.26004-.11-.93-.65-6.059999-.65-6.059999z" fill="#fb919f"/><path d="m304.57 9.81006s.54 2.10004-.44 3.06004l-1 1h-12.05c-.162.002-.321-.0438-.457-.1319s-.242-.2144-.306-.3631c-.065-.1487-.083-.313-.054-.4723.029-.1592.104-.3064.217-.4227.592-.5816 1.302-1.0304 2.081-1.3167.78-.2862 1.611-.4032 2.439-.3433.54 0 9.59-1.00004 9.59-1.00004z" fill="#3d2c56"/><path d="m298.75-23c-.39-2.61-1.4-5.17-1.25-7.81s1.53-5.27 2.61-7.81c2.74-6.49 4.4-13.58 3.15-20.51l2.18 12.44 10.25 48h9.52s-1.34-18-3.29-31.54c-1.37-9.51-2.66-24.83-4.18-34.91-.357-.8079-.757-1.5958-1.2-2.36-1.06-1.77-2.71-3.38-4.76-3.59-1.68-.17-3.4.62-5 .21-2.21-.56-3.3-3-4.13-5.12-.471-1.3925-1.219-2.675-2.2-3.77l-7.93-.23s-1.62 11.89-1.62 17.28c0 3.89 2.65 35.51 4.13 52.79 1.477-1.8105 2.569-3.9036 3.209-6.1511.639-2.2474.813-4.6018.511-6.9189z" fill="#533a71"/><path d="m303.26-59.1499c1.25 6.93-.42 14-3.15 20.51-1.07 2.54-2.46 5.05-2.61 7.81s.86 5.19 1.25 7.81c.301 2.3223.124 4.6817-.521 6.9329s-1.744 4.3465-3.229 6.1571c.57 6.65 1 11.17 1 11.17h10.1s.95-17.88 0-25-.66-23-.66-23z" fill="#3d2c56"/><path d="m153.5 4.99987-1.4-.32c-.735-.58826-1.507-1.12934-2.31-1.62-.805-.42491-1.662-.74101-2.55-.94-.39.11-13.14 9.00003-13.31 9.76003-.038.7513.221 1.4874.72 2.05.28.28 13.64-3.21 13.64-3.21z" fill="#3d2c56"/><path d="m152.89 4.79004s-2 .2-2.48.78-2.76 5.30996-2.76 5.30996l6.73.15z" fill="#fb919f"/><path d="m197.49 8.36006s-.07 4.00004.4 4.32004 11.88.19 16.44.16c.487-.0027.954-.1974 1.298-.5419.345-.3445.539-.811.542-1.2981 0-.1822-.055-.3603-.156-.5116s-.246-.2691-.414-.3384l-10.9-4.59004z" fill="#3d2c56"/><path d="m179.71-18.12 16.05-1.45s.5 5.15.5 10.99998c0 6.33 1.23 17.77 1.23 17.77l7.73-3.41 1.69-13.45-7.33-18.33998-8-4.52-10.82 1.34-3.59 4.18.83 6z" fill="#0078fa"/><path d="m171.57-57.54s-11.44 16.72-11.51 29.54 10.18 28.999962 10.18 28.999962l-19.3 1.999998-.1 10.16004s27.91.43 31.59-1.48c3.68-1.91004 3.29-3.38004 3.15-6.07004s-6.5-22.69996-6.22-26.99996 6.15-7.31 8.41-7.88l2.26-.57s-4.95 5.09-1.06 6.5 5.82-.49 7.82 1.27 1.44 9 4.48 11.74c3.04 2.73996 5.64 2.65996 5.64 2.65996s2.43-21.38996-2.63-23.27996c-2.67-1-17.65-1.93-17.65-1.93l-.64-.57z" fill="#1c8ff7"/><path d="m220.25-33.3653-16.378 33.255681 3.481 1.714259 16.378-33.25564z" fill="#f7bf74"/><path d="m30.4595 49.3317c17.804 1.8502 34.1227 10.2867 50.3209 17.9187 16.1982 7.6321 33.4806 14.7413 51.3246 13.6352 22.15-1.3675 41.62-15.1535 57.467-30.7193 15.846-15.5658 29.556-33.4846 47.41-46.68737 1.633-1.20665 3.305-2.36637 5.018-3.47917414h-242v54.67134414c9.44483-4.6303 20.0067-6.4817 30.4595-5.3394z" fill="#ffb942"/><path d="m349.85 82.8899c-37.203 24.3031-79.152 40.4101-123.06 47.2501h123.06z" fill="#fff1d9"/><path d="m350-.00024414h-108.693c-1.688 1.10760414-3.356 2.26191414-5.004 3.46293414-17.806 13.14111-31.477 31.02621-47.281 46.46931s-35.22 29.2147-57.309 30.5759c-17.815 1.0909-35.0301-6.0051-51.184-13.5715-16.1538-7.5664-32.4078-16.0035-50.153-17.8451-10.4242-1.1369-20.95705.7059-30.376 5.3145v32.8478c8.54504-5.231 18.4543-7.7988 28.4644-7.3763 16.4241.6506 31.8873 7.9468 45.9594 16.484 14.072 8.5377 27.3932 18.4357 42.3962 25.1917 8.471 3.767 17.328 6.6 26.413 8.447h83.611c43.943-6.847 85.924-22.968 123.156-47.2903z" fill="#f9d095"/><path d="m74.308 96.4705c-14.0501-8.512-29.4893-15.7867-45.8879-16.4253-9.9935-.4244-19.88725 2.1324-28.4201 7.3445v42.6103h143c-9.071-1.842-17.914-4.666-26.372-8.422-14.969-6.736-28.2698-16.655-42.32-25.1075z" fill="#fff1d9"/><path d="m372.77 139.69s6.23-16.4 2.23-22.06-7 4.12-7.67 11.52-1.71 10.53-1.71 10.53 3.13-28.93 0-35.1c-3.13-6.1701-12.67-6.7701-15.2 6.19-1.533 8.451-2.034 17.058-1.49 25.63z" fill="#94dd4e"/><path d="m347 136.41s10.13-50.2201 4.4-60.5001-12.21 6.81-13.8 20.09c-1.59 13.2801-2.53 39.4901-2.53 39.4901z" fill="#54b162"/><path d="m367.53 122.79c.255-1.003.172-2.062-.236-3.012-.408-.951-1.118-1.741-2.02-2.247-.903-.505-1.947-.7-2.971-.552s-1.971.63-2.693 1.371c-.244-.23-.509-.437-.79-.62-.265-.556-.677-1.03-1.192-1.368-.514-.339-1.112-.53-1.728-.552-.735.003-1.444.269-2 .75.271-.543.408-1.143.4-1.75 0-1.56-.84-2.83-1.88-2.83s-1.79 1.14-1.87 2.6c-.939-.4-1.963-.559-2.979-.462-1.016.096-1.992.444-2.839 1.013s-1.539 1.341-2.012 2.245c-.474.904-.714 1.911-.7 2.932.015 1.02.284 2.021.783 2.911s1.213 1.641 2.076 2.186c.863.544 1.848.865 2.867.932 1.018.067 2.037-.121 2.964-.547.61 3.11 2.83 5.41 5.49 5.41.855-.005 1.691-.244 2.42-.69.361 1.2 1.088 2.257 2.079 3.023.992.766 2.199 1.202 3.451 1.247 3.26 0 5.91-2.94 5.91-6.57.02-1.037-.197-2.064-.636-3.004-.438-.939-1.086-1.766-1.894-2.416z" fill="#388c77"/><path d="m367.33 129.16c-.651.012-1.287.195-1.845.53s-1.018.811-1.335 1.38c-.786-.352-1.63-.555-2.49-.6-.729-1.662-2.075-2.975-3.754-3.664-1.679-.688-3.56-.698-5.246-.026.013-.183.013-.367 0-.55 0-1.62-1-2.93-2.24-2.93-.506.047-.983.256-1.36.597-.376.341-.633.794-.73 1.293-1.684-.86-3.549-1.306-5.44-1.3-6.21 0-11.25 4.67-11.25 10.43s5 10.43 11.25 10.43c1.885.019 3.745-.428 5.416-1.3s3.102-2.143 4.164-3.7c.912.388 1.897.578 2.888.558.991-.021 1.967-.252 2.862-.678.937.446 1.962.678 3 .68 1.072.037 2.136-.203 3.088-.699s1.759-1.231 2.342-2.131c.217.044.438.068.66.07 1.033-.124 1.984-.621 2.674-1.399.691-.778 1.072-1.781 1.072-2.821s-.381-2.044-1.072-2.822c-.69-.777-1.641-1.275-2.674-1.398z" fill="#54b162"/><path d="m320.62 134.1s-12.67-17.51-10.88-26.9c1.79-9.3901 9.69-2.38 13.11 6.11s5.07 20.79 5.07 20.79z" fill="#388c77"/><path d="m335.22 134.1s5.66-39.27-8-40 .75 40 .75 40z" fill="#94dd4e"/><g fill="#fff"><path d="m79.4301 130.13h-10.28v-67.3101c0-.4439.0874-.8834.2572-1.2935.1699-.4101.4189-.7827.7327-1.0965.3139-.3139.6865-.5629 1.0966-.7327.4101-.1699.8496-.2573 1.2935-.2573h3.52c.8964 0 1.7561.3561 2.39.99.6339.6338.99 1.4936.99 2.39z"/><path d="m102.15 130.13h-10.28v-67.3101c0-.4439.0875-.8834.2573-1.2935.1699-.4101.4188-.7827.7327-1.0965.3139-.3139.6865-.5629 1.0966-.7327.41-.1699.8496-.2573 1.2934-.2573h3.52c.8965 0 1.756.3561 2.39.99.634.6338.99 1.4936.99 2.39z"/><path d="m56.72 130.13h-10.28v-67.3101c0-.4439.0874-.8834.2573-1.2935.1698-.4101.4188-.7827.7326-1.0965.3139-.3139.6865-.5629 1.0966-.7327.4101-.1699.8496-.2573 1.2935-.2573h3.52c.4438 0 .8834.0874 1.2934.2573.4101.1698.7827.4188 1.0966.7327.3139.3138.5628.6864.7327 1.0965.1698.4101.2573.8496.2573 1.2935z"/><path d="m34 130.13h-10.27v-67.3101c0-.4439.0874-.8834.2573-1.2935.1698-.4101.4188-.7827.7327-1.0965.3138-.3139.6864-.5629 1.0965-.7327.4101-.1699.8496-.2573 1.2935-.2573h3.51c.8964 0 1.7561.3561 2.39.99.6339.6338.99 1.4936.99 2.39z"/><path d="m11.3 130.13h-10.28995v-67.3101c0-.4439.08743-.8834.25729-1.2935s.41883-.7827.73269-1.0965c.31386-.3139.68647-.5629 1.09655-.7327.41008-.1699.8496-.2573 1.29347-.2573h3.52c.44471-.0013.8853.0851 1.29654.2544s.78502.418 1.09991.732c.315.314.5648.6871.7353 1.0978s.2583.8511.2582 1.2958z"/><path d="m3.27007 84.02h98.76993c1.397 0 2.53-1.1327 2.53-2.53v-2.63c0-1.3973-1.133-2.53-2.53-2.53h-98.76993c-1.39728 0-2.530003 1.1327-2.530003 2.53v2.63c0 1.3973 1.132723 2.53 2.530003 2.53z"/><path d="m3.27007 119.6h98.76993c1.397 0 2.53-1.133 2.53-2.53v-2.63c0-1.397-1.133-2.53-2.53-2.53h-98.76993c-1.39728 0-2.530003 1.133-2.530003 2.53v2.63c0 1.397 1.132723 2.53 2.530003 2.53z"/></g><path d="m97.57 81.37c.6627 0 1.2-.5373 1.2-1.2 0-.6628-.5373-1.2-1.2-1.2s-1.2.5372-1.2 1.2c0 .6627.5373 1.2 1.2 1.2z" fill="#ffb942"/><path d="m97.57 116.96c.6627 0 1.2-.537 1.2-1.2s-.5373-1.2-1.2-1.2-1.2.537-1.2 1.2.5373 1.2 1.2 1.2z" fill="#ffb942"/><path d="m74.86 81.37c.6628 0 1.2-.5373 1.2-1.2 0-.6628-.5372-1.2-1.2-1.2-.6627 0-1.2.5372-1.2 1.2 0 .6627.5373 1.2 1.2 1.2z" fill="#ffb942"/><path d="m74.86 116.96c.6628 0 1.2-.537 1.2-1.2s-.5372-1.2-1.2-1.2c-.6627 0-1.2.537-1.2 1.2s.5373 1.2 1.2 1.2z" fill="#a0e8e6"/><path d="m52.1501 81.37c.6627 0 1.2-.5373 1.2-1.2 0-.6628-.5373-1.2-1.2-1.2-.6628 0-1.2.5372-1.2 1.2 0 .6627.5372 1.2 1.2 1.2z" fill="#ffb942"/><path d="m52.1501 116.96c.6627 0 1.2-.537 1.2-1.2s-.5373-1.2-1.2-1.2c-.6628 0-1.2.537-1.2 1.2s.5372 1.2 1.2 1.2z" fill="#a0e8e6"/><path d="m29.43 81.37c.6627 0 1.2-.5373 1.2-1.2 0-.6628-.5373-1.2-1.2-1.2-.6628 0-1.2.5372-1.2 1.2 0 .6627.5372 1.2 1.2 1.2z" fill="#a0e8e6"/><path d="m29.43 116.96c.6627 0 1.2-.537 1.2-1.2s-.5373-1.2-1.2-1.2c-.6628 0-1.2.537-1.2 1.2s.5372 1.2 1.2 1.2z" fill="#a0e8e6"/><path d="m6.72002 81.37c.66274 0 1.2-.5373 1.2-1.2 0-.6628-.53726-1.2-1.2-1.2s-1.2.5372-1.2 1.2c0 .6627.53726 1.2 1.2 1.2z" fill="#a0e8e6"/><path d="m6.72002 116.96c.66274 0 1.2-.537 1.2-1.2s-.53726-1.2-1.2-1.2-1.2.537-1.2 1.2.53726 1.2 1.2 1.2z" fill="#a0e8e6"/><path d="m23.0001 146s6.35-23.24-2.17-39.1c-8.52-15.8602-18.54002-17.6102-20.630021-10.5702-2.089999 7.0402 3.900001 12.9402 3.900001 12.9402s-6.45-6.56-10.52-3c-4.06998 3.56 10.52 27.27 10.52 27.27s-9-5.28-9.71.16 2.9 12.3 2.9 12.3z" fill="#388c77"/><path d="m35.51 143.94s11.61-34.3 21.83-34.48 1.41 19.46-5.46 26.6c-3.4888 3.719-7.1883 7.235-11.08 10.53z" fill="#54b162"/><path d="m33.0601 130.11s7 1 14.64-19.47c7.64-20.4702 7-33.4502-2.79-26.2202s-13.79 36.6602-11.85 45.6902z" fill="#388c77"/><path d="m33.8 133.54s12.5-5.38 16.8-12.24-3-9.11-9.32-4-7.48 16.24-7.48 16.24z" fill="#94dd4e"/><path d="m11.42 145.61s2-12.71-7.46995-20.25c-9.47-7.54-11.65-8.81-11.65-8.81s12.82 9.29 14.33 15.83c.88327 3.95.27795 8.088-1.7 11.62 0 0 1.75-1.27 0-7.18s-7.07-10.82-7.07-10.82 7.54 7.44 5 12.71c-2.540002 5.27-5.57 7.29-5.57 7.29z" fill="#3c6448"/><path d="m15.3 133.7s-1.3-14.4-10.36997-21.58c-9.07-7.18-18.20003-7.15-17.16003 1s27.53 20.58 27.53 20.58z" fill="#54b162"/><path d="m29.42 129.86s13-5.7 7.61-19.21c-5.39-13.5101-1-9.29 3.2-23.0001 4.2-13.71-15.58-17.22-17.76-23.71s-17.9-4.1-15.62 5.54 12.23 13.94 8.77 21.11-6.51 10.2001-.84 16.2201 5.74 5.17 4.69 10.52 4.38 14.41 9.95 12.53z" fill="#54b162"/><path d="m17.46 131.82s8-3.69 9.56-12.44-6.11-3.82-7.55-2.06l-1.47 1.77s3.67-6.29 2.77-12.22-4.82-4.95-5-3.26l-.13 1.69s2-12.6602.77-16.8902-4.64-4.41-4.99-1.09c-.1753 1.3101-.2788 2.6287-.31 3.95 0 0-.84-8.92-2-12.14s-3.64-.7-3.64 0v.7s-3.53-7.43-6.400004-7.37c-2.869996.06.08 5 1.47 7.94l1.390004 3s-4-3.47-4.07.8 9 8.91 9 8.91-4.92-.37-4.14 3 8.71 9.8902 8.71 9.8902-4.84-2.18-2.75 4.71 6.63 9.64 6.63 9.64-8.24-4-5.46 1.9c1.8319 3.692 4.4255 6.953 7.61 9.57z" fill="#66c136"/><path d="m30.58 145.61c.0289.001.0578-.003.085-.013s.0522-.025.0736-.044c.0214-.02.0387-.043.0509-.07.0123-.026.0193-.054.0205-.083 0-.05 0-5.13 3.47-13s13.22-14.63 13.32-14.69c.0213-.019.0384-.042.0501-.068.0116-.026.0177-.054.0177-.082 0-.029-.0061-.057-.0177-.082-.0117-.026-.0288-.049-.0501-.068-.0456-.04-.1042-.062-.1649-.062-.0608 0-.1194.022-.165.062-.1001.07-10.0001 6.88-13.4701 14.87s-3.5 13.11-3.5 13.16c.0057.03.0178.059.0354.084.0175.026.0403.047.0667.063s.0559.027.0866.031c.0306.003.0618.001.0913-.008z" fill="#3c6448"/><path d="m19.48 147.44c.0294-.001.0583-.009.0848-.022.0264-.013.0498-.031.0687-.054.0189-.022.0327-.049.0408-.077.008-.028.0099-.058.0057-.087 0-.1-1.67-10.13-7-18-3.46182-4.907-7.99673-8.96-13.260006-11.85-.053961-.028-.116185-.035-.175066-.021-.05888.015-.110394.051-.144934.101-.015346.024-.025228.052-.028969.08-.003741.029-.001251.058.007298.085.008549.028.022956.053.042231.075.019275.021.042964.038.06944.05 5.221896 2.858 9.720126 6.874 13.150006 11.74 5.25 7.75 6.89 17.69 6.91 17.79.0095.054.0379.102.08.137.0422.035.0953.054.15.053z" fill="#3c6448"/><path d="m15.8499 153.88c.0533.001.1053-.016.1473-.049.0419-.033.0712-.079.0827-.131 0-.2 3.23-20.29-.23-38.66-3.46-18.3701-13.59995-36.9101-13.69995-37.0901-.03123-.0509-.08029-.0883-.13761-.1049-.05732-.0167-.11878-.0114-.17239.0149-.02594.0106-.04934.0266-.0687.0469-.01935.0203-.03423.0444-.04366.0708s-.0132.0545-.01107.0824c.00213.028.01011.0552.02343.0799.1.18 10.20995 18.67 13.65995 37.0001 3.45 18.33.26 38.33.23 38.53-.0027.029.0003.058.0089.086.0086.027.0226.053.0411.076.0186.022.0415.04.0672.054.0258.013.0539.021.0828.024z" fill="#3c6448"/><path d="m22.75 144.37c.062.001.1223-.021.17-.06 6.91-5.66 12.69-17.67 16.32-26.75 4-9.9 6.43-19.0003 6.16-19.8403-.0226-.06-.0674-.109-.1251-.1369s-.1239-.0326-.1849-.0131c-.0304.0057-.0592.0177-.0847.0353-.0254.0176-.0468.0404-.0628.0668-.0161.0264-.0264.0559-.0302.0865-.0039.0307-.0013.0618.0077.0914.17.66-2 9.2603-6.19 19.6403-3.61 9-9.33 20.9-16.15 26.48-.0232.019-.0419.044-.0546.072-.0128.027-.0194.057-.0194.088 0 .03.0066.06.0194.088.0127.027.0314.052.0546.072.0447.047.1053.075.17.08z" fill="#3c6448"/><path d="m27.73 145.61c.0519.002.1029-.014.1446-.045.0418-.031.0719-.075.0854-.125.05-.28 5.35-28.19 0-49.5103-5.35-21.32-11.87-27.79-11.96-27.86-.0456-.04-.1043-.0621-.165-.0621s-.1194.0221-.165.0621c-.0213.0188-.0383.0419-.05.0678-.0117.0258-.0177.0539-.0177.0822 0 .0284.006.0565.0177.0823.0117.0259.0287.049.05.0678.06.06 6.49 6.4699 11.81 27.6599 5.32 21.1903.05 49.0603 0 49.3403-.0042.028-.0025.057.0049.085.0074.027.0204.053.0382.076.0178.022.04.041.0653.055.0253.013.053.021.0816.024z" fill="#3c6448"/><path d="m38 138.44s-.63-6.58 8.54-10 7.32 7.39 2.21 10-10.75 0-10.75 0z" fill="#94dd4e"/><path d="m89.6301 136.66s4.25-11.14 1.52-15-4.76 2.8-5.22 7.83c-.1431 2.42-.5318 4.819-1.16 7.16 0 0 2.13-19.66 0-23.86s-8.61-4.6-10.33 4.21c-1.0376 5.745-1.3734 11.594-1 17.42z" fill="#94dd4e"/><path d="m72.11 134.43s6.89-34.13 3-41.1201c-3.89-6.99-8.3 4.63-9.38 13.6901-1.08 9.06-1.73 26.82-1.73 26.82z" fill="#54b162"/><path d="m86.0701 125.17c.1703-.681.1116-1.398-.167-2.042-.2785-.643-.7614-1.177-1.374-1.519-.6125-.341-1.3206-.472-2.0145-.37-.694.101-1.3352.428-1.8245.931-.1672-.156-.3479-.296-.54-.42-.1804-.382-.4626-.706-.8155-.937s-.7628-.36-1.1845-.373c-.4963.004-.9748.185-1.35.51.1835-.37.276-.778.27-1.19 0-1.06-.57-1.92-1.28-1.92s-1.22.78-1.27 1.77c-.6371-.268-1.331-.374-2.0189-.306-.688.067-1.3483.305-1.9214.691-.573.387-1.0408.91-1.3609 1.522-.3201.613-.4825 1.296-.4725 1.987s.192 1.369.5297 1.972c.3376.603.8203 1.113 1.4043 1.483.5839.369 1.2509.588 1.9405.635.6896.048 1.3801-.078 2.0092-.364.42 2.11 1.93 3.68 3.73 3.68.5826-.003 1.1532-.166 1.65-.47.243.817.737 1.536 1.4118 2.057.6749.52 1.4964.815 2.3482.843 1.1196-.067 2.1675-.573 2.9164-1.408s1.1382-1.932 1.0836-3.052c.0196-.707-.1234-1.41-.4182-2.053-.2947-.643-.7333-1.21-1.2818-1.657z" fill="#388c77"/><path d="m85.94 129.5c-.4422.009-.8744.134-1.2534.362s-.6916.551-.9066.938c-.5362-.241-1.1128-.38-1.7-.41-.4978-1.133-1.4166-2.029-2.5623-2.497s-2.4286-.473-3.5777-.013c.0088-.123.0088-.247 0-.37.0547-.465-.0731-.934-.3565-1.307-.2835-.373-.7005-.621-1.1635-.693-.3443.033-.6688.176-.9248.409-.256.232-.4297.541-.4952.881-1.1457-.584-2.4142-.885-3.7-.88-.9758-.073-1.9563.056-2.8801.379-.9237.323-1.7708.833-2.4882 1.498-.7175.666-1.2898 1.472-1.6812 2.369s-.5934 1.865-.5934 2.844.202 1.947.5934 2.844.9637 1.703 1.6812 2.369c.7174.665 1.5645 1.175 2.4882 1.498.9238.323 1.9043.452 2.8801.379 1.2784.016 2.5409-.284 3.6762-.871 1.1353-.588 2.1085-1.446 2.8338-2.499.6204.264 1.2896.393 1.9636.379s1.3373-.17 1.9464-.459c.6405.304 1.3409.462 2.05.46.7285.026 1.4513-.137 2.098-.474.6467-.336 1.1952-.835 1.592-1.446.1497.014.3004.014.45 0 .7028-.083 1.3507-.421 1.8208-.95s.7298-1.212.7298-1.92-.2597-1.391-.7298-1.92-1.118-.867-1.8208-.95z" fill="#54b162"/><path d="m54.18 132.86s-8.61-11.9-7.39-18.28 6.58-1.62 8.91 4.15 3.44 14.13 3.44 14.13z" fill="#388c77"/><path d="m64.11 132.86s3.85-26.69-5.47-27.19.51 27.19.51 27.19z" fill="#94dd4e"/><path d="m194.7 92.46s-5.38 3.6-6.29 5.24-1.9 4.39-1.7 5.25 1.42.39 1.42.39c2.493.18 4.993.22 7.49.12 1.25-.25 8.13-5.11 9.7-7.6s1.57-3.58 1.57-3.58z" fill="#c66f7e"/><path d="m193.23 77.0002c-1.42-21.13 9.27-42.27 26.59-52.58l.44.85c-17 10.14-27.52 30.9-26.13 51.67z" fill="#388c77"/><path d="m189.91 66.73s2.18-8 .57-10.91-3.6.05-3.23 3.87c.334 2.5198 1.244 4.9288 2.66 7.04z" fill="#54b162"/><path d="m183.06 58.9c.975-2.2684 1.215-4.7848.688-7.1968-.527-2.4119-1.796-4.5985-3.628-6.2533-6.48-6.0799-2.17 6.9301 2.94 13.4501z" fill="#94dd4e"/><path d="m197.16 71.2701s3.11-6.31.5-12.32-.5 12.32-.5 12.32z" fill="#54b162"/><path d="m185.38 59.4501s-12.23-.09-16 4.47 13.05.62 16-4.47z" fill="#54b162"/><path d="m194.35 50.68s-12-18.13-17.18-12.8 17.18 12.8 17.18 12.8z" fill="#54b162"/><path d="m198.53 49s8.56-5.66 16.16-2.52-16.16 2.52-16.16 2.52z" fill="#54b162"/><path d="m205.28 61.72s9.35-14 16.25-10-16.25 10-16.25 10z" fill="#94dd4e"/><path d="m201.12 66.73s13.39-5 16.48 0-16.48 0-16.48 0z" fill="#54b162"/><path d="m194.15 61.1501c2.61.0733 5.175-.6991 7.31-2.202 2.136-1.503 3.728-3.656 4.54-6.138 3.27-8.96-11.85 8.34-11.85 8.34z" fill="#388c77"/><path d="m178 54.66s-9.72-12.89-21.55-4.85 21.55 4.85 21.55 4.85z" fill="#54b162"/><path d="m199.39 46.5s-1.32-15.89 7.61-24.55-7.61 24.55-7.61 24.55z" fill="#54b162"/><path d="m209.61 32.91s14.18-21.24 24.66-15.14-24.66 15.14-24.66 15.14z" fill="#94dd4e"/><path d="m205.28 38.55s17.37-6.49 21.37 0-21.37 0-21.37 0z" fill="#54b162"/><path d="m194.67 60.94c-.883-13.8474-4.589-27.3678-10.89-39.73l.8-.47c6.365 12.4867 10.108 26.1432 11 40.13z" fill="#388c77"/><path d="m192.1 41.06s9.9-16.82 7.9-24.47c-2-7.64998-8.23-2.38-9.71 6.58s1.81 17.89 1.81 17.89z" fill="#54b162"/><path d="m186.67 27.0001s.89-13.46-12.44-18.14004c-13.33-4.68.88 11.85004 12.44 18.14004z" fill="#94dd4e"/><path d="m189.8 32.81s-14.71-10-22.5-7.57 15.33 11.33 22.5 7.57z" fill="#54b162"/><path d="m192.28 124.84.8-40.2599c.514-4.1303.143-8.3225-1.088-12.2984-1.231-3.9758-3.294-7.6442-6.052-10.7616-2.688-2.9177-6.025-5.1622-9.741-6.5519-3.715-1.3897-7.706-1.8858-11.649-1.4481l-.11-1c4.085-.4467 8.218.0747 12.065 1.5218 3.846 1.4472 7.297 3.7795 10.075 6.8082 2.853 3.2145 4.99 6.9989 6.269 11.1021 1.28 4.1032 1.672 8.4315 1.151 12.6979l.86 40.1899z" fill="#388c77"/><path d="m193.7 79.5801s-11-9-6.89-9.19 6.89 9.19 6.89 9.19z" fill="#388c77"/><path d="m194.15 78.75-.86-.31c1.337-4.2638 3.507-8.22 6.384-11.6393 2.877-3.4194 6.404-6.2339 10.376-8.2807l.38.88c-3.858 1.9885-7.284 4.7227-10.078 8.0441-2.795 3.3215-4.903 7.1643-6.202 11.3059z" fill="#388c77"/><path d="m169.81 130h42s-4.67-9.77-21-10.13-21 10.13-21 10.13z" fill="#ffb942"/><path d="m198.8 89.0001c-1.938.0677-3.807.7351-5.35 1.91-2.1 1.59-2.44 2.53-4.11 3.3-2.74 1.27-2.91 2.63 0 2.51 1.904-.1551 3.725-.8488 5.25-2 1.864.3726 3.752.6132 5.65.72l1.53.05c1.783.0515 3.519-.5737 4.86-1.75.108-.0853.202-.1864.28-.3.14-.31 22.57-8.17 25.67-10.64s10.8-18.38 10.8-18.38l-10.94-4.31-5.96 11.89-23 16.85z" fill="#fb919f"/><path d="m235.43 43.4299s-3.09 4.17-3.45 6.28-3.07 16.78-3.6 16.78 3.13 4.47 6.57 5.85c2.16.8367 4.464 1.2377 6.78 1.18l6.43-11.05z" fill="#d65050"/><path d="m182.4 122.74c-.071.124-.099.268-.079.409s.086.272.189.371c2.282 2.307 5.34 3.683 8.58 3.86 2.08 0 11.27-.84 13.27-1 .117-.011.228-.054.322-.124.094-.071.166-.167.208-.276.613-1.931.787-3.974.51-5.981-.276-2.006-.997-3.926-2.11-5.619-.071-.094-.166-.166-.276-.208-.109-.043-.228-.054-.344-.032-2 .36-11.06 2-13.05 2.6-3.067 1.037-5.639 3.175-7.22 6z" fill="#5ecccd"/><path d="m195.19 121.16c.2 1.46 3.22 1.31 4.84 1.09l6.06-.84-.48-3.45-6.06.84c-1.62.2-4.55.89-4.36 2.36z" fill="#46b2af"/><path d="m205.46 118.33.35 2.51c.011.082.038.161.08.233s.097.134.163.184c.066.051.141.087.221.108s.164.026.246.015l19.89-2.75c.248-.034.486-.117.702-.243.215-.126.404-.294.555-.493s.261-.426.324-.668c.063-.241.078-.493.044-.741-.034-.247-.117-.486-.243-.701-.126-.216-.294-.405-.493-.556s-.426-.261-.668-.324-.493-.078-.741-.044l-19.89 2.75c-.083.011-.163.039-.235.081-.073.042-.136.099-.186.166-.051.067-.087.143-.107.224-.021.082-.025.166-.012.249zm20.28-2.66c.16-.053.33-.071.498-.051.167.02.329.077.472.166s.265.208.357.35c.092.141.152.301.175.469.023.167.009.337-.041.498-.05.162-.135.31-.249.434-.113.125-.253.223-.409.288-.156.064-.324.094-.493.086h-.18l-.31-2.24z" fill="#ff6b6b"/><path d="m236.91 96.7999v3.2s4.83 18.4801 4.2 19.1601-14.42 5.63-14.82 8.1 0 3.25 0 3.25h28.22s1 .52.74-3.38-2.31-23.28-2.31-23.28l-2.86-7.6701z" fill="#533a71"/><path d="m251.29 67.11c-.55.29-18.8-4.65-20.73 2.76s5.36 30.1 5.36 30.1l14.17-1.22 24.84-16.12s-11-9.5-11.57-9.76-12.07-5.76-12.07-5.76z" fill="#0078fa"/><path d="m244.18 74.78c-1.68 3.51-3.64 7.33-4.7 8.32-2.08 2-24.19 24-24.19 24s-7.54 4.14-7.67 6.49 1.43 4.55 1.82 6-.65 5.2 1 5.59 3.38-2.34 3.38-2.34 6-2.47 7.54-5.2 2.6-8.19 2.6-8.19 18.37-10.44 22.19-15.11c2.7-3.7181 5.152-7.6098 7.34-11.65-3.674-1.8808-6.861-4.5885-9.31-7.91z" fill="#fb919f"/><path d="m247.15 68.28s-1.35 3.11-3 6.51c2.469 3.3008 5.669 5.9844 9.35 7.84 2.67-4.69 4.88-8.87 4.88-8.87z" fill="#c66f7e"/><path d="m280.27 128.67v-3.24c1.245-1.634 3.051-2.749 5.07-3.13 3.25-.52 3.9-1.3 4.55-4.55l.65-3.25 13.27-5.05 2.06 1.28-7.87 16.5c-1.504.375-2.981.853-4.42 1.43-.58.4-13.31.01-13.31.01z" fill="#3d2c56"/><path d="m269.55 117.09 26.33-1.17s-3.38 1.3-3.51 3 2.08 3.38.13 6-7.8 0-10.67 0-4.68 5.07-3.51 6.11 16.39.52 18.21 0 10.67-18.6 10.67-18.6l-1.33-1.69-7 12.75 4.94-14c-.704-1.251-1.674-2.333-2.842-3.168-1.168-.834-2.506-1.402-3.918-1.662-2.86-.616-5.756-1.05-8.67-1.3l-22.54-1.56z" fill="#533a71"/><path d="m293.8 52.5699c-8.348-8.561-18.945-14.5892-30.57-17.39h-12.48l-14.83 11.28c1.48 4.8634 3.335 9.6043 5.55 14.18 3.46 7 22.93 16.13 25.79 18.86l2.86 2.73s-28.82 9.77-28.65 20.4201c.17 10.65 4.33 11.58 9.15 12.62s18.94 1.82 18.94 1.82l-.36-7.66c-1-.36-2-.75-3.07-1.14-2.55-.92-5.4-2.11-6.36-4.65-1.09-2.88.93-6.1601 3.61-7.7001s5.85-1.84 8.87-2.48c4-.83 8-2.42 10.53-5.58s3-8.2.23-11.12c-4.27-4.45-12.69-1.58-17.16-5.83-2.58-2.45-2.84-6.75-1.06-9.83.958-1.5027 2.244-2.7691 3.761-3.7043 1.517-.9351 3.226-1.5149 4.999-1.6957 3.566-.3311 7.159.2362 10.45 1.65 4.24 1.6548 8.136 4.0826 11.49 7.16 6.17 5.67 10.36 13.74 10.41 22.12 0 .7 0 1.4-.09 2.1.36-1.54.64-3.18.9-4.95 1.4-9.88.75-17.03-12.91-31.21z" fill="#1c8ff7"/><path d="m295.46 64.52c-3.344-3.0779-7.23-5.509-11.46-7.17-3.283-1.4055-6.864-1.9692-10.42-1.64-1.773.1808-3.482.7605-4.999 1.6957s-2.803 2.2016-3.761 3.7043c-1.78 3.08-1.52 7.38 1.06 9.83 4.47 4.25 12.88 1.39 17.16 5.83 2.81 2.92 2.31 8-.23 11.12s-6.56 4.75-10.53 5.58c-3 .64-6.19.94-8.87 2.48s-4.7 4.81-3.61 7.7c1 2.54 3.81 3.73 6.36 4.65 1.07.38 2.07.77 3.07 1.14l-.23-5c7.202 2.167 14.908 1.985 22-.52 9.93-3.42 13.2-8.15 14.84-15.21.06-.7.1-1.4.09-2.1-.11-8.35-4.29-16.42-10.47-22.09z" fill="#0078fa"/><path d="m270.52 57.3799c1.379-.6646 2.88-1.0358 4.41-1.09.007-2.0702-.296-4.1298-.9-6.11-1.46-5.41-8.1-12.35-15.71-10.49s-7.71 11.56-7.71 11.56l-1.56 4.83s-2.54-3.61-.59-12.63 13.85-8.22 13.85-8.22c-7.71-.85-13.56-.62-15-.32l-3.08.63-6.33 9.8c.234 2.8359.86 5.6258 1.86 8.29 1.665 4.3314 3.703 8.5103 6.09 12.49l-2.85 4.69c1.286 1.4753 2.687 2.8463 4.19 4.1 3 2.63 10 2.73 10 2.73l7-10.54s4.64-8.55 6.33-9.72z" fill="#ff6b6b"/><path d="m273.15 61.1598c1.126-1.3718 1.754-3.0852 1.78-4.86-1.53.0543-3.031.4254-4.41 1.09-1.69 1.17-6.34 9.72-6.34 9.72s6.92-3.42 8.97-5.95z" fill="#d65050"/><path d="m244.22 35.5599 1.83-.37s1.38.54 1.64 3.18c.461 2.5299.19 5.1387-.78 7.52-1.24 3.19-5.44 8.06-5.44 8.06s-2.76-1.78-3.34-3.75c-.389-1.5618-.607-3.1611-.65-4.77z" fill="#d65050"/><path d="m240.86 30.7199-.33 1c.9 1.17 5.75 5.82 5.75 5.82.201 2.1211-.03 4.2609-.68 6.29-1.029 2.3956-2.541 4.5537-4.44 6.34-.15 0-2.58-2-2.9-3.31-.162-.4965-.286-1.0047-.37-1.52 0-.2-.22-9.41-2-13.32s-1.66-4.88-1.21-5.51 3.17-1.61 3.17-1.61 2.24 2.24 2.34 2.39.67 3.43.67 3.43z" fill="#fb919f"/><path d="m236.52 17.1199c-1.61-3.76-5.76-1.07-7.8.24s-3.32-.34-6.1 0-2.73 1.51-5 3.71-5.27 1.07-6.88 3.17c-.287.3364-.495.7331-.607 1.1608-.113.4276-.127.8751-.043 1.3092.263-.6301.754-1.1378 1.375-1.4215.621-.2836 1.326-.3224 1.975-.1085 1.37.52 2.16 2.11 3.57 2.47s2.55-.46 3.57-1.29 2.09-1.78 3.4-1.86 2.67.91 4 1.49c1.062.4594 2.216.6634 3.371.5956 1.155-.0677 2.278-.4053 3.279-.9856 1.5-.89 2.77-2.35 4.5-2.54.203-.0194.407-.0194.61 0l-.83-.48c-1.91-1.17-.78-1.71-2.39-5.46z" fill="#533a71"/><path d="m239.14 23.07c-1.73.19-3 1.65-4.5 2.54-1 .5787-2.121.9154-3.274.9831s-2.306-.1354-3.366-.5931c-1.31-.58-2.55-1.57-4-1.49s-2.38 1-3.4 1.86-2.3 1.63-3.6 1.28-2.2-2-3.57-2.47c-.648-.2139-1.354-.1751-1.975.1085-.621.2837-1.112.7914-1.375 1.4215.39 1.2587 1.254 2.3165 2.41 2.95 2 1.32 1.37 1.51 1.46 4.83s6.73 2 6.73 2l5 6.63s-.55.15-.63 1.17 5 6.39 7 6.88 4.44-3.37 7-4.93 2.68-6.49 1.51-8.49-4.69-7.61-4.69-7.61c1.74-6.15 3.62-.78 4.11.73s1.3.68 1.3.68c.169-1.9163.169-3.8437 0-5.76-.25-2-.42-2.11-1.59-2.78-.185.0041-.369.0242-.55.06z" fill="#3d2c56"/><path d="m216.62 32.24s4.88 6.34 6.15 7.76c.85.94 2.24 3.41 2.68 3.46s10-6.24 10.39-7.41c.185-1.6211-.27-3.2504-1.27-4.54-.88-1-2.39-2.63-4.78-2.63s-3.07-2-4.24-2.44-4.63 1.9-4.73 2-.93 4.14-4.2 3.8z" fill="#fb919f"/><path d="m230.13 43.9999 4.44-3.56c.202.656.182 1.3603-.056 2.0039-.239.6437-.683 1.1906-1.264 1.5561-2.1 1.6-3.12 0-3.12 0z" fill="#fff"/><path d="m249.06 56.0798-3.22 10.05-2.48-4.43z" fill="#d65050"/><path d="m173.08 106.52c-3.544 2.645-6.945 5.476-10.19 8.48v12.24s2.87-6.5 4.82-9c8.41-10.8 12.42-13.71 12.42-13.71l-.8-1.93s-2.91 1.73-6.25 3.92z" fill="#0078fa"/><path d="m161.18 105.9c-.511-1.214-1.307-2.288-2.32-3.13-.82-.55-6.83-.68-10.52.08s-7.59 5.07-9 11c-.9 3.9-.6 10.8-.6 13.09-.005.582.055 1.162.18 1.73h24.86c0-.31 0-.62.05-.93.28-3.46.33-7.72.31-12.07.03-3.67-2.14-8.24-2.96-9.77zm-11.92 3.1c-.51 2-1 2.06-1.88 4-1 2.15-.5 5.27-2.49 6.6-1.64 1.09-3.44 1.49-4.35-.93-.75-2 .12-6.6 1.66-9.15s4.9-5.43 6.33-4.43c.98.73 1.24 1.98.73 3.91z" fill="#1c8ff7"/><path d="m141.67 130h19.33c2.38-.32 2.7-1.32 2.78-2.45h-24.78c.064.666.372 1.285.865 1.737s1.136.706 1.805.713z" fill="#0078fa"/><path d="m148.53 105.14c-1.43-1-4.79 1.88-6.33 4.43s-2.41 7.14-1.66 9.15c.91 2.43 2.32 2.94 4 1.85 2-1.32 2.26-4.87 3.23-7 .676-1.441 1.186-2.954 1.52-4.51.48-1.99.22-3.24-.76-3.92zm-2.66 9.13c-1.13 3.57-2.2 4.89-3.64 4.63-1.21-.22-.91-3.2-.56-4.92.571-2.249 1.719-4.31 3.33-5.98 1.65-1.85 2.87-2.36 3.4-1.13.7 1.71-1.4 3.82-2.53 7.39z" fill="#0078fa"/><path d="m178.94 101.61c-.592.767-1.262 1.471-2 2.1l1.62 2.71c.837-.466 1.727-.832 2.65-1.09 1.121-.302 2.28-.434 3.44-.39l-3.86-6.3399c-.541 1.0477-1.16 2.0539-1.85 3.0099z" fill="#ffb942"/><path d="m177.03 103.587-.505.307 1.657 2.726.504-.307z" fill="#ffb942"/></g></svg>