<svg fill="none" height="130" viewBox="0 0 350 130" width="350" xmlns="http://www.w3.org/2000/svg" xmlns:xlink="http://www.w3.org/1999/xlink"><clipPath id="a"><path d="m0 0h350v130h-350z"/></clipPath><g clip-path="url(#a)"><path d="m0 0h350v130h-350z" fill="#e5f1fe"/><path clip-rule="evenodd" d="m216.301 71.0494c30.238 1.5576 62.873-24.8705 88.339-7.2606 25.407 17.5702 22.792 57.8552 30.325 89.3202 6.974 29.137 21.376 58.805 11.909 87.116-9.38 28.055-38.964 39.349-60.479 58.145-23.148 20.224-41.21 47.956-70.094 55.933-33.935 9.372-73.893 13.809-102.241-8.338-28.3484-22.148-37.3731-64.362-39.0033-102.011-1.3894-32.085 23.154-56.923 30.7773-87.98 8.353-34.034-10.8635-81.1467 15.759-101.6139 26.68-20.5107 61.953 15.0021 94.708 16.6893z" fill="#f6faff" fill-rule="evenodd"/><path d="m45.6783 42.8066c-14.5621 59.5284-28.5786 139.1934-39.6413 139.1934l-31.037-217.8546 299-6.1454c-3.278 24.5816-22.494 67.4151-73.137 42.0960312-63.303-31.6488312-144.7366 0-155.1847 42.7105688z" fill="#83beff"/><path d="m198.282 111.627h126.267c2.007 0 3.932.798 5.352 2.219 1.419 1.42 2.216 3.346 2.216 5.355v33.426c-.002 1.489-.595 2.917-1.649 3.969-1.053 1.052-2.481 1.642-3.97 1.641h-130.173c-1.489 0-2.918-.592-3.971-1.646-1.053-1.053-1.644-2.483-1.644-3.973v-33.425c.002-2.008.801-3.933 2.221-5.352 1.42-1.418 3.345-2.215 5.351-2.214z" fill="#bbd9ff"/><g fill="#bbd4f3" opacity=".7" stroke="#fff" stroke-miterlimit="10" stroke-width="2.6488"><path d="m214.202 41.5051h-25.737v45.0781h25.737z" opacity=".7"/><path d="m235.06 41.5051h-12.465v21.8325h12.465z" opacity=".7"/><path d="m263.997 32.1292h-20.544v31.2127h20.544z" opacity=".7"/><path d="m263.997 71.7407h-36.646v19.315h36.646z" opacity=".7"/><path d="m284.851 77.6177h-12.465v13.9964h12.465z" opacity=".7"/><path d="m289.591 54.9434h-17.205v13.9964h17.205z" opacity=".7"/><path d="m284.851 32.1292h-12.465v17.3559h12.465z" opacity=".7"/><path d="m323.302 41.5051h-25.737v45.0781h25.737z" opacity=".7"/></g><path d="m126.057 152.516h-2.584v-.249l.106-52.4657h.499l-.11 52.2157h1.577c-.025-3.084-.025-29.672 6.659-37.36 3.218-3.698 5.332-5.281 6.453-4.82.752.305.702 1.354.702 1.397l-.499-.026s.025-.74-.389-.909c-.415-.17-1.78-.038-5.886 4.683-6.824 7.849-6.537 36.989-6.533 37.281z" fill="#66c136"/><path d="m123.034 152.516h-3.294l-.059-.169c-.059-.182-6.199-18.193-16.211-20.961l.135-.482c9.856 2.742 15.809 19.137 16.49 21.113h2.486c.064-.914.237-4.705-.685-12.207-1.065-8.699-5.678-22.369-5.725-22.505l.474-.16c.046.139 4.676 13.856 5.75 22.606s.685 12.397.664 12.545z" fill="#66c136"/><path d="m131.752 115.511s2.537 3.664 3.619 4.308c1.083.643 5.324 0 5.324 0s-3.244-2.687-2.246-3.516c.998-.83 2.174 1.015 3.002 1.506.829.491 1.742 1.159 3.404.74s2.33-2.581 2.33-2.581-2.922-.499-2.415-1.929c.508-1.43 3.079.749 4.575 0 1.497-.749 1.747-4.747 1.497-4.747-.249 0-2.993 1.832-2.993 0s1.581-1.27 3.078-2.416c1.497-1.147 2.224-3.246 2.224-3.246l-11.294 3.665-8.414 5.745z" fill="#66c136"/><path d="m126.222 125.958s1.416-2.082 2.871-1.997c1.454.084 4.228.749 4.866 1.997.385.809.611 1.686.664 2.581h-.956s2.081.914 2.994 2.331c.913 1.418.913 5.661.913 5.661s-2.828-2.581-3.742-2.665c-.913-.085-.875 1.582-.875 1.582s3.036 1.333 3.383 2.996c.346 1.663-2.372 5.035-3.455 5.035h-1.082s-2.744-4.066-3.328-2.513c-.583 1.552 2.453 3.177 1.916 4.095s-4.161 3.207-4.161 3.207-2.495-7.061-2.495-7.298 2.487-15.012 2.487-15.012z" fill="#66c136"/><path d="m123.828 101.21s3.776.656 6.49-.626c2.715-1.2819 2.96-3.6513 2.96-4.8699v-1.2186s-3.34.8124-3.776-.7785c-.435-1.5909 3.184-3.1521 3.776-4.4003s-.592-4.0915-.592-4.0915-2.059 3.0887-3.213 2.1875 2.308-3.9645 1.78-5.7458c-.271-1.0117-.889-1.8955-1.746-2.4964 0 0-1.996 1.9675-2.495 1.1255s1.374-2.9956 1.218-3.8418c-.157-.8463-5.4-4.7262-5.4-4.7262l-.875 14.2673z" fill="#66c136"/><path d="m105.233 96.4038s5.015.0846 5.015 1.0832c0 .9985-.884 2.666 0 3.258.883.592.947-1.591 1.446-1.4979s1.995.6558 2.401 1.9679c.406 1.311-1.268 4.434-.313 5.119.956.686 1.874-2.31 2.309-2.623.436-.313 1.218.279 1.903 1.625.685 1.345-1.497 5.462-.778 6.461.719.998 1.746-.813 1.809-1.718.012-.257.077-.508.19-.739.112-.23.271-.436.466-.603 0 0 1.995 3.715 1.839 5.37-.156 1.654-4.317 6.147-4.317 6.147l-11.978-23.6936z" fill="#66c136"/><path d="m106.92 132.288s1.044-4.786.055-6.347c-.665-.998-1.529-1.848-2.537-2.496 0 0-.998 3.308-2.059 2.623-1.061-.686.812-2.061 0-3.436s-4.2029-2.813-4.6258-2.813c-.4228 0 1.5603 4.747.499 4.747s-1.3404-3.123-4.4439-3.872c-3.1035-.748-7.6107 1.934-7.7841 2.247-.1733.313 3.3826.999 3.4333 1.748.0508.748.685 2.428-.6849 2.276-1.37-.152-2.6849-1.464-4.3043-.529s-3.8266 7.679-3.8266 7.679l5.6954-.579 7.6742-2.15 7.1667 2.167z" fill="#66c136"/><path d="m126.222 125.958s-1.831-3.33-3.992-3.33c-2.16 0-4.494 2.666-6.49 3.33s-1.996 5.327-1.996 5.327 4.161-2.497 4.326-1.498c.165.998-3.827 2.996-4.326 4.498s.499 6.494 1.996 7.328l1.497.846s2.828-3.994 3.661-3.495-.499 3.33-.165 4.329c.334.998 5.497 4.997 5.497 4.997z" fill="#94dd4e"/><path d="m106.92 132.288s-7.9872-3.165-13.8094-2.666-12.4816 4.493-12.4816 4.493 3.1627 2.167 4.8243 1.333c1.6617-.833 3.4925-1.997 3.9915-1.498.4989.5-2.1607 2.514-1.8393 3.495.3213.982 3.8265-.499 6.1562-1.163 2.3298-.665-.1649 2.995 0 3.829.1649.833 5.1584 0 5.1584 0s1.8309-5.501 3.3279-4.654c1.497.846-2.8289 3.905-1.831 5.03.998 1.126 4.824.132 5.822-1.201s.681-6.998.681-6.998z" fill="#94dd4e"/><path d="m139.532 134.285s9.649-1.193 15.809.986 8.321 4.84 8.321 4.84-.499-5.644-1.831-6.152-4.494-1.506-4.494-2.34c0-.833.998-2.052.998-2.052s-2.33-1.447-3.662-1.447-3.264 1.269-4.262 1.447-1.184-.385-.499-.943c.543-.425 1.107-.82 1.691-1.185 0 0-4.228-1.062-6.613 0-2.384 1.062-5.458 6.846-5.458 6.846z" fill="#94dd4e"/><path d="m131.752 115.511s1.624-2.318 9.171-6.126 12.22-5.738 12.22-5.738-2.495-2.686-3.806-2.559-2.245 1.811-3.057 2.06c-.812.25-.626-2.56-.626-2.56s-2.934.127-3.213.627c-.279.499-.469 2.746-1.467 3.059-.469.168-.958.273-1.455.313l.846-2.746s-1.932-.25-3.243.685-1.433 1.748-1.624 2.81c-.19 1.062-1.433 2.746-1.873 2.716s-.376-3.279-.376-3.279-2.622 1.125-3.383 3.279 1.886 7.459 1.886 7.459z" fill="#94dd4e"/><path d="m122.831 71.7281c.308-.0339.376 17.669.685 22.0397.308 4.3707.313 7.4302.313 7.4302s-4.229.875-6.677 0c-2.448-.876-3.492-2.4967-3.492-3.9353.006-.4318.097-.8582.268-1.2547.172-.3964.419-.7551.73-1.0555 0 0 2.114 1.3117 3.306.3766s-1.061-3.7445-2.308-4.0576c-1.248-.3131-2.309-2.0605-2.373-3.9349-.063-1.8744 1.269-3.9942 1.269-3.9942s2.744 3.2453 4.025 2.8729c1.281-.3723-.592-3.4948-1.467-4.8699-.875-1.3752-.313-2.928.423-3.8377.736-.9096 1.027-.9689 1.027-.9689s1.095 1.6925 1.717 1.4344c.621-.2581.626-1.9971.127-2.6233s1.302-3.4864 2.427-3.6218z" fill="#94dd4e"/><path d="m105.233 96.4038s4.862 4.2312 8.034 12.1132c3.171 7.883 3.932 11.737 3.932 11.737-1.51.715-3.138 1.145-4.803 1.27-2.558.127-3.992-.749-3.992-.749s3.243-1.693 2.309-2.687c-.935-.994-1.455.686-3.755-.423-1.491-.8-2.755-1.964-3.674-3.385v-1.434s3.433.876 4.304-.127-.562-2.873-1.996-3.186c-.965-.193-1.95-.276-2.934-.25 0 0-1.061-.935-1.184-3.435-.122-2.501.998-3.808.998-3.808s4.41 1.561 4.482.423-3.112-1.693-3.484-2.4966c-.372-.8039 1.763-3.5626 1.763-3.5626z" fill="#94dd4e"/><path d="m204.984 80.9138 1.049-6.5836.203 6.7063 3.133-.5331.795-6.7021.232 6.5244 12.71-2.1706.398-8.6864.799 8.4622 3.078-.5247s-.499-9.4734-.207-10.5185c.101-.3596.571-.5923 1.137-.7573l-20.477 3.1775s-2.33-1.5274-3.091-.5881l-.198.2412c-.914 3.2495-2.114 12.3759-2.114 12.3759z" fill="#e28100"/><path d="m229.575 62.7962c-.704.1477-1.355.4824-1.885.9689 0 0-1.155-1.2693-2.474-.7532-.377.1402-.717.366-.993.6596s-.48.6471-.597 1.0329c0 0-1.454-1.6501-2.803-.9689-.741.3305-1.364.8797-1.784 1.5739-.154-.352-.42-.6432-.757-.8283-.336-.1852-.724-.254-1.104-.1956-.409.0571-.797.2181-1.126.4677s-.589.5795-.755.9582c0 0-1.374-1.8786-2.913-.9097l-1.535.9647s-1.84-1.4978-2.821-.3681c-.98 1.1297-.997 1.722-.997 1.722-.39-.1014-.802-.0771-1.177.0696-.375.1466-.694.4081-.912.747-.184.327-.319.679-.402 1.0451l.199-.2412c.765-.9393 3.091.5882 3.091.5882l20.477-3.1776c.672-.1747 1.361-.2811 2.055-.3173l.182-.0296h.304s-.19-3.1945-1.273-3.0083z" fill="#ffb942"/><path d="m222.815 77.6413-2.378.4085 12.62 73.5382 2.377-.409z" fill="#ff6b6b"/><path d="m221.771 74.9819-3.005.513 1.125 6.5983 3.005-.513z" fill="#634d84"/><path d="m229.909 65.0303-22.075 3.7656c-.196.0333-.384.105-.552.2108-.168.1059-.314.2439-.429.4061-.115.1623-.197.3457-.241.5396-.045.194-.05.3948-.017.591l1.087 6.3466c.033.1962.105.3838.21.5523.106.1685.244.3144.406.4296.162.1151.346.1971.54.2414.193.0442.394.0498.59.0164l22.075-3.7657c.196-.0333.384-.1049.552-.2107.169-.1059.315-.2439.43-.4062.115-.1622.197-.3456.241-.5396s.05-.3948.016-.5909l-1.086-6.3466c-.034-.1962-.105-.3839-.211-.5523-.106-.1685-.244-.3145-.406-.4296s-.345-.1971-.539-.2414c-.194-.0442-.395-.0498-.591-.0164zm-13.8 10.0361c.034.2042-.014.4136-.134.5825-.119.169-.301.2835-.505.3187l-5.497.9351c-.204.0343-.413-.0136-.582-.1333-.168-.1198-.283-.3016-.318-.5056l-.935-5.5004c-.034-.2042.014-.4137.134-.5826.119-.1689.301-.2835.505-.3186l5.497-.9351c.204-.0344.413.0136.582.1333.168.1198.283.3016.318.5056zm15.043-2.5683c.035.2042-.013.4137-.133.5826-.119.1689-.301.2835-.505.3187l-5.497.935c-.204.0344-.413-.0136-.582-.1333-.169-.1198-.283-.3015-.318-.5056l-.935-5.5004c-.034-.2042.014-.4136.134-.5825.119-.1689.301-.2835.505-.3187l5.496-.9351c.204-.0343.414.0136.583.1334.168.1197.283.3015.318.5055z" fill="#634d84"/><path d="m240.353 93.1245h-2.905v56.2655h2.905z" fill="#f7bf74"/><path d="m242.061 91.5168h-6.642v3.4272h6.642z" fill="#66c136"/><path d="m230.036 88.1572h18.042v3.6176c0 .0606-.024.1187-.067.1616-.043.0428-.101.0669-.161.0669h-17.585c-.061 0-.119-.0241-.162-.0669-.042-.0429-.067-.101-.067-.1616z" fill="#66c136"/><path d="m248.079 76.5388h-18.042v11.6186h18.042z" fill="#634d84"/><g stroke-miterlimit="10"><path d="m231.943 76.5388v11.6186" stroke="#533a71" stroke-width=".26488"/><path d="m235.296 76.5388v11.6186" stroke="#533a71" stroke-width=".26488"/><path d="m236.975 76.5388v11.6186" stroke="#533a71" stroke-width=".26488"/><path d="m240.332 76.5388v11.6186" stroke="#533a71" stroke-width=".26488"/><path d="m242.011 76.5388v11.6186" stroke="#533a71" stroke-width=".26488"/><path d="m243.689 76.5388v11.6186" stroke="#533a71" stroke-width=".26488"/><path d="m247.046 76.5388v11.6186" stroke="#533a71" stroke-width=".26488"/></g><path d="m242.968 51.9727-27.85 1.7143.121 1.9553 27.849-1.7142z" fill="#533a71"/><path d="m230.542 57.4375-2.899.1785 5.513 89.686 2.899-.178z" fill="#f7bf74"/><path d="m232.105 55.8696-6.596.406.193 3.142 6.596-.406z" fill="#1c8ff7"/><path d="m241.146 52.7887-24.604 1.5145.154 2.5128 24.604-1.5145z" fill="#1c8ff7"/><path d="m255.826 79.5414-1.711-.3234-9.989 52.952 1.711.323z" fill="#f7bf74"/><path d="m256.287 78.4769-2.468-.4661c-.16-.0304-.315.0753-.346.236l-.396 2.0997c-.03.1607.076.3156.236.3459l2.468.4662c.161.0304.316-.0753.346-.2361l.396-2.0996c.03-.1607-.075-.3156-.236-.346z" fill="#ff6b6b"/><path d="m253.596 79.1113 2.883.5458c.558.1051 1.133.0602 1.667-.1301s1.008-.5192 1.373-.953l4.326-5.1535c-4.468-2.6874-9.735-3.7248-14.888-2.9322l2.203 6.4863c.18.5407.5 1.0238.928 1.3994s.949.6301 1.508.7373z" fill="#ff6b6b"/><path d="m269.109 62.0854-2.808 2.1155 1.484-3.0887c-1.177-.8246-2.432-1.5331-3.746-2.1155l-2.828 4.853 1.501-5.3904c-3.369-1.2366-6.986-1.643-10.546-1.1847l-.291 2.1156-.292-2.0225c-.3.0465-.6.0973-.901.1565l-.287 3.9561-1.015-3.6472c-1.449.375-2.857.8952-4.203 1.5528l3.78 11.1363c5.149-.8028 10.416.2226 14.888 2.8983l7.687-9.08c-.751-.8106-1.561-1.5644-2.423-2.2551z" fill="#634d84"/><path d="m209.618 106.457h45.809v51.243c0 2.39-.949 4.682-2.638 6.372-1.689 1.691-3.98 2.64-6.368 2.64h-27.796c-2.389 0-4.68-.949-6.369-2.64-1.689-1.69-2.638-3.982-2.638-6.372z" fill="#e28100"/><path d="m209.618 106.457h17.002v51.746c0 1.118-.22 2.224-.647 3.256-.428 1.033-1.054 1.971-1.843 2.761-.79.79-1.727 1.417-2.759 1.844-1.032.428-2.137.648-3.254.648s-2.222-.22-3.254-.648c-1.031-.427-1.969-1.054-2.758-1.844-.79-.79-1.416-1.728-1.844-2.761-.427-1.032-.647-2.138-.647-3.256v-51.746z" fill="#ffb942"/><path d="m260.39 113.595h-3.217v61.304h3.217z" fill="#533a71"/><path d="m222.066 114.809h-3.078v60.094h3.078z" fill="#634d84"/><path d="m228.641 116.535h31.749v-6.719h-31.749z" fill="#533a71"/><path d="m230.459 114.809h-3.078v60.094h3.078z" fill="#533a71"/><path d="m262.902 104.219h-59.013c-.39 0-.706.316-.706.706v4.185c0 .39.316.706.706.706h59.013c.39 0 .706-.316.706-.706v-4.185c0-.39-.316-.706-.706-.706z" fill="#533a71"/><path d="m230.869 104.219h-26.98c-.39 0-.706.316-.706.706v4.185c0 .39.316.706.706.706h26.98c.39 0 .706-.316.706-.706v-4.185c0-.39-.316-.706-.706-.706z" fill="#634d84"/><path d="m228.641 116.535h-7.302c-.58 0-1.148-.161-1.641-.466s-.891-.741-1.15-1.26l-2.495-4.993h12.588z" fill="#634d84"/><path d="m251.972 122.543h-17.644l.224 2.222h12.528l-.262 16.861h3.247z" fill="#8a3131"/><path d="m234.552 124.765 1.687 16.861h10.579l.262-16.861z" fill="#ff6b6b"/><path d="m252.222 121.469h-18.457c-.107 0-.194.087-.194.194v1.579c0 .107.087.194.194.194h18.457c.107 0 .194-.087.194-.194v-1.579c0-.107-.087-.194-.194-.194z" fill="#8a3131"/><path d="m247.795 121.469h-14.03c-.107 0-.194.087-.194.194v1.579c0 .107.087.194.194.194h14.03c.107 0 .194-.087.194-.194v-1.579c0-.107-.087-.194-.194-.194z" fill="#ff6b6b"/><path d="m242.121 133.883h-5.73c-.357 0-.71-.081-1.031-.239-.321-.157-.602-.385-.821-.668s-.371-.612-.443-.962c-.073-.35-.064-.713.025-1.059l.761-2.881.156 1.387-.397 1.629c-.068.268-.075.547-.019.817s.173.523.342.741.385.395.633.516c.247.122.519.185.794.186h5.73c1.033-.003 2.041-.323 2.886-.919s1.486-1.438 1.836-2.411l2.597-7.252.503.182-2.596 7.252c-.388 1.076-1.098 2.007-2.033 2.665-.935.659-2.05 1.013-3.193 1.016z" fill="#533a71"/><path d="m249.431 123.487c.285 0 .516-.231.516-.516s-.231-.516-.516-.516-.516.231-.516.516.231.516.516.516z" fill="#533a71"/><path d="m305.607 46.5444s14.473 4.8489 18.143 11.2505c3.67 6.4017 5.92 17.0598 5.92 17.0598l-10.279 4.4595-3.146-5.7204-1.365 11.9655-31.522-1.2693.631-10.2858-10.279-2.6233s1.522-14.2249 8.393-18.6168c6.871-4.3918 12.19-5.9996 12.19-5.9996z" fill="#ff6b6b"/><path d="m304.123 45.7786s2.182.8885 2.41 1.6924-5.019 4.1972-9.006 3.8334c-3.987-.3639-4.406-2.6783-4.194-3.5711.211-.8927 2.439-1.5739 2.439-1.5739z" fill="#d65050"/><path d="m309.057 25.6851c-.408-.9543-1.021-1.807-1.796-2.4973-.774-.6903-1.692-1.2014-2.686-1.4969-1.979-.5458-4.097-.1269-6.131-.4231-1.192-.1692-2.338-.5754-3.518-.8462-1.169-.3214-2.407-.2919-3.56.0846-.489.2026-.923.5171-1.268.9182.515-.395 1.109-.6749 1.741-.8209s1.289-.1546 1.925-.0254c1.426.3264 2.702 1.1219 3.623 2.2595 1.205 1.4174 1.924 3.2029 3.159 4.5992.786.8759 1.754 1.5706 2.835 2.0359 1.081.4654 2.25.6903 3.427.6593.971-.039 1.927-.2555 2.82-.6389.122-1.2969-.074-2.6041-.571-3.808z" fill="#533a71"/><path d="m300.546 27.4407c-1.235-1.392-1.954-3.1775-3.159-4.5992-.921-1.1375-2.197-1.933-3.623-2.2594-.636-.1292-1.292-.1206-1.925.0254-.632.146-1.226.4259-1.741.8209-.234.2414-.418.527-.54.84-.123.3131-.182.6474-.175.9836.043.7489.423 1.4216.77 2.1155s.588 1.4555.342 2.1663c-.211.6093-.782 1.0959-.799 1.739.022.2759.111.5422.258.7765s.349.4295.588.569c.479.2733.94.5787 1.378.9139.465.4231.461.9859.711 1.519.315.5825.683 1.1348 1.099 1.6501.809 1.1963 1.881 2.1919 3.133 2.911 1.365.6863 2.91.9275 4.419.6897 1.503-.2391 2.929-.8307 4.16-1.7263 1.711-1.1901 3.018-2.8744 3.746-4.8277.247-.726.396-1.4815.444-2.2467-.893.3834-1.849.6-2.82.6389-1.178.0311-2.348-.1942-3.43-.6603s-2.049-1.1619-2.836-2.0392z" fill="#3d2c56"/><path d="m198.384 73.2805s2.114 8.3987 2.309 8.9572l.211.5586h-10.27z" fill="#c66f7e"/><path d="m179.582 53.1108s-6.732.787-9.353 3.7276c-2.622 2.9406-9.053 17.5929-9.053 17.5929l8.706 4.5654 2.537-3.99 3.357 10.7597 18.778-.6304 1.784-9.0292 4.038-2.0478s-2.621-17.0048-5.873-18.8411c-1.962-1.1047-4.167-1.7065-6.418-1.7517z" fill="#ff6b6b"/><path d="m174.165 48.8206c1.429-1.0067 2.517-2.425 3.12-4.0661.846-2.5725-.575-4.0407-.735-7.1632-.066-2.2128.076-4.4268.423-6.6132l-1.066-.1312h-1.624l-2.202 2.0225-.575 3.9645 1.128 4.1211z" fill="#3d2c56"/><path d="m190.055 29.7682c.204.0054.408-.0116.609-.0508.509-.0175 1.019.0294 1.517.1396.593.1125 1.149.3694 1.619.7479.469.3786.839.8672 1.075 1.4227.372.8775.501 1.8394.372 2.784-.135.9012-.744 1.6628-1.349 2.3017-1.268 1.3413-2.292 2.6868-2.499 4.5908-.139 1.2693.351 2.8094-.237 4.0068l-.033.0635c-.846 1.6289-5.818 2.7544-5.818 2.7544l-5.852-4.8023s-1.18.0254-2.99-2.1155c-1.809-2.141-2.114-5.6147-2.114-5.6147s-1.268 1.1805-1.154 2.7798c.114 1.5994 1.417 3.203 1.759 4.9843s1.049 3.7276-.812 5.0773c-1.86 1.3497-3.146 1.4851-3.095.1777s1.759-.4908.444-4.193-3.881-4.5908-2.778-9.8162c1.104-5.2254 6.135-4.5653 6.66-4.358l.524.2116s-2.228-.237-2.571 2.0224c-.342 2.2594 1.049 2.1537 1.049 2.1537s.393-3.3595 2.384-5.145c1.992-1.7856 7.835-5.5512 13.29-.1227z" fill="#533a71"/><path d="m190.702 33.5974c-.138 1.1295-.622 2.1885-1.386 3.0312-.764.8426-1.771 1.4274-2.881 1.6738-3.987.9816-5.175 3.6387-5.805 3.4272-.63-.2116-2.237-2.3102-3.006-1.3286-.77.9816-1.121 2.801.558 3.571l1.691.7701-.292 8.3691c1.177.5937 2.423 1.0399 3.709 1.3286 1.818.3511 4.756-.9816 4.756-.9816l-.279-4.6204s3.078-.4231 4.055-3.2876c.977-2.8644-.279-10.9162-.279-10.9162z" fill="#fb919f"/><path d="m182.778 47.8093 4.985 1.0451.084 1.3286z" fill="#c66f7e"/><path d="m186.435 45.5374s.948 1.4428 2.153 1.392c1.205-.0507 1.467-1.4682 1.467-1.4682v-.1311z" fill="#fff"/><path d="m190.702 33.5971.845 1.0493.541 4.8488c.415-.8081.961-1.5416 1.616-2.1705 1.074-1.024 1.23-2.8053.845-3.5415-.384-.7362-3.847-.1861-3.847-.1861z" fill="#3d2c56"/><path d="m191.052 180.353h6.575s1.493-17.991 2.537-35.482c-1.155-.424-2.216-1.07-3.124-1.9-.992-.931-1.776-2.061-2.299-3.317s-.775-2.609-.737-3.969c.067-2.039.79-3.998 1.099-6.017.309-2.018.118-4.298-1.315-5.75-.664-.668-1.531-1.096-2.283-1.663-2.474-1.865-3.763-4.992-4.651-7.967 0 0 2.799 33.032 2.938 40.45.14 7.417 1.26 25.615 1.26 25.615z" fill="#0078fa"/><path d="m173.37 92.3293 2.275-6.8459s-1.108 2.9702-2.275 6.8459z" fill="#1c8ff7"/><path d="m195.247 85.7709c-.393-2.3525 2.676-11.5382 1.539-14.5762-.558-1.4935-.93-2.5598-1.167-3.2706-.414-3.2756-1.016-6.5248-1.801-9.7315-.333-1.3156-.757-2.6064-1.269-3.863-1.344-.4971-2.758-.7825-4.19-.8462.52.8039 1.421 2.5048 2.228 5.5808.641 2.5952 1.146 5.222 1.514 7.8698l-10.735.2666c-.377-1.1805-.795-2.4667-1.294-3.9518-1.077-3.2326-2.385-6.3831-3.916-9.4269-1.095.2868-2.163.6691-3.192 1.1424 1.542 3.0148 2.854 6.1421 3.924 9.3549.896 2.6656 1.577 4.815 2.114 6.4905l-1.657 7.3367c2.274 1.7898 3.323 1.1593 4.583 4.1676 1.26 3.0084-8.511 10.0447-8.528 10.0574-.609 2.0309-1.231 4.2987-1.717 6.5285-1.416 6.5071-3.953 27.0111-4.228 37.0901-.275 10.078-1.861 46.592-1.861 46.592h5.873s7.133-38.926 10.77-52.486c3.636-13.561 4.617-15.816 4.617-15.816.875 2.962 2.169 6.101 4.651 7.967.752.567 1.619.994 2.283 1.663 1.438 1.447 1.628 3.732 1.315 5.75s-1.032 3.977-1.099 6.017c-.038 1.36.214 2.712.737 3.968s1.307 2.387 2.299 3.318c.908.83 1.969 1.475 3.124 1.899.579-9.803 1.019-19.463.968-25.678-.148-17.352-5.492-31.0607-5.885-33.4131z" fill="#1c8ff7"/><path d="m175.387 71.1104-3.006 3.901 3.268 10.472 1.662-7.3452c-2.275-1.7898-1.924-7.0278-1.924-7.0278z" fill="#d65050"/><path d="m181.894 82.3058c-1.268-3.0083-2.308-2.3779-4.583-4.1676l-1.662 7.3452-2.275 6.8459v.0338s9.789-7.049 8.52-10.0573z" fill="#0078fa"/><path d="m182.778 71.6008h12.025c.392 1.0744.562 2.2174.499 3.3595-.123 1.8194-.892 5.9489-.892 5.9489s-2.837 1.189-4.88 1.189c-1.908-.0937-3.81-.2957-5.695-.6051-.294-.0447-.562-.1936-.755-.4197-.194-.226-.299-.514-.298-.8115z" fill="#0078fa"/><path d="m291.76 27.5086v12.321s.105 3.9137 3.357 4.2649c0 0-.072 2.5894-.212 3.148-.081.3315-.211.6493-.384.9435 0 0 .663 1.3666 3.708 1.5063 3.044.1396 6.537-2.928 6.537-2.928-.213-.1696-.389-.3817-.516-.6228-.126-.2411-.201-.5059-.22-.7777-.106-.9816.351-7.1378.351-7.1378s2.376-.6981 2.114-3.0083-1.505-.8758-2.237-.8758c-.731 0-.875-3.2876-.875-3.3849s-1.222-.5585-1.89-1.7136.034-1.5063-.803-1.8913c-.838-.385-8.93.1565-8.93.1565z" fill="#fb919f"/><path d="m295.113 44.0946s1.154.4232 3.463-.385c2.308-.8081 3.217-2.1705 3.217-2.1705-.029.6802-.195 1.3475-.49 1.9614-.294.6138-.71 1.1615-1.222 1.6096-1.751 1.5401-5.074 1.4301-5.074 1.4301z" fill="#c66f7e"/><path d="m297.789 39.8042s-1.057 1.6121-2.401 1.5529c-1.345-.0593-1.637-1.6417-1.637-1.6417v-.1439z" fill="#fff"/><path d="m295.113 110.438-1.991-1.053c2.41 4.319 1.539 10.285-1.781 13.962-1.344 1.485-3.111 2.704-3.805 4.578-1.361 3.592 1.806 7.536 1.078 11.31-.57 2.962-3.479 4.997-6.439 5.5-.203.034-.423.051-.613.076 0 16.874.139 33.426.139 33.426h9.442s5.759-50.371 6.604-57.302l.846-6.926s-1.484-2.509-3.48-3.571z" fill="#0078fa"/><path d="m316.2 112.435c-1.692-17.6351-1.311-26.8715-1.311-26.8715s-4.038-1.4682-4.228-9.6596c-.123-4.7727 0-8.2253.131-10.2774.014-.452-.116-.8968-.372-1.2693.397-3.8333.985-9.8754 1.074-12.6298.032-.9454.01-1.892-.068-2.8348-1.395-.6305-2.655-1.1509-3.649-1.5359.328 1.3993.449 2.839.359 4.2734-.072 2.454-.592 7.8444-.976 11.6397l-18.232-.7912c.422-4.7811 1.036-11.5212 1.327-12.9641.098-.492.288-.9613.558-1.3835-1.133.4908-2.498 1.1297-4.033 1.9378-.385 2.9618-.956 9.3296-1.269 12.9556-.351.2641-.639.6031-.843.9924-.204.3894-.319.8193-.336 1.2586 0 0-2.309 35.1176-2.622 54.2176-.11 6.769-.144 16.107-.139 25.357.203-.026.422-.043.613-.077 2.959-.52 5.868-2.564 6.439-5.5.727-3.774-2.439-7.713-1.078-11.31.71-1.874 2.478-3.093 3.805-4.578 3.32-3.668 4.191-9.634 1.78-13.962l1.992 1.049c1.991 1.049 3.463 3.571 3.463 3.571.964 2.503 1.673 5.097 2.114 7.743.846 4.751 11.12 56.502 11.12 56.502h9.311s-3.252-48.218-4.93-65.853z" fill="#1c8ff7"/><path d="m289.654 67.5644 15.543.512c.242.0078.48.0646.699.1669s.416.248.577.4282c.162.1803.285.3915.363.6208s.109.472.09.7134l-.723 9.1688c-.107 1.3745-.745 2.6533-1.778 3.5654-1.033.9122-2.38 1.3862-3.756 1.3215l-8.173-.3808c-1.396-.0659-2.71-.6808-3.656-1.7108-.945-1.0301-1.446-2.392-1.393-3.7896l.351-8.8853c.008-.2356.063-.4673.161-.6819.097-.2145.236-.4077.409-.5684.172-.1607.374-.2858.595-.3682s.456-.1205.691-.112z" fill="#0078fa"/><path d="m320.655 43.5305-2.282-1.0498c-.212-.0976-.463-.0046-.56.2077l-55.86 121.5876c-.098.212-.005.463.207.561l2.282 1.05c.212.097.464.004.561-.208l55.86-121.5873c.098-.2123.005-.4636-.208-.5612z" fill="#f7bf74"/><path d="m312.968 70.7589s-5.686-3.0125-6.409-4.7092 2.114-5.9997 2.469-6.7359.482-2.9618 1.315-2.9406 3.332 3.3849 3.332 3.3849l.926-2.014s1.72 5.2211 1.932 7.4255c.211 2.2044 8.253 11.7878 8.253 11.7878l4.343-1.8447s5.496 11.2039 0 14.7707c-5.497 3.5668-10.41-5.2677-16.161-19.1245z" fill="#fb919f"/><path d="m324.769 76.9829 2.863 3.6429s2.782-1.832 1.497-5.5342z" fill="#c66f7e"/><path d="m274.619 71.6221s-2.706 8.4918.723 15.0965c1.31 2.5386 5.26 5.3904 7.881 6.8924 2.622 1.5021 4.617 2.5387 4.617 2.5387s3.425 3.7107 4.372 4.3033c.947.592 2.343.846 2.939.558.176-.101.319-.25.412-.43s.132-.383.112-.5852c0 0 2.275-1.7136 2.448-2.9026.174-1.1889.351-1.9251-.211-2.2763-.819-.6614-1.601-1.3677-2.343-2.1155 0 0 1.548.66 2.504.9773.955.3174 2.114.5289 2.114-.1354 0-.6642-2.064-1.0154-2.66-1.6924s-2.169-1.7517-3.218-1.7855c-.973.0259-1.944.1192-2.904.2792 0 0-9.662-5.0392-9.522-8.8852.126-2.6016.44-5.1907.938-7.7472z" fill="#fb919f"/><path d="m213.005 71.6453-4.06-1.3636-6.103 18.1992 4.06 1.3635z" fill="#0078fa"/><path d="m203.917 81.4807-15.278-7.0803-5.496 11.8751 15.278 7.0803z" fill="#bbd4f3" stroke="#fff" stroke-miterlimit="10" stroke-width=".529761"/><path d="m210.65 79.3818h-31.694v22.2472h31.694z" fill="#dda35e"/><path d="m193.069 79.3818h-14.113v22.2472h14.113z" fill="#f7bf74"/><path d="m162.986 75.3918s-3.717 6.7106-3.298 9.8585c.418 3.1479 18.566 12.1728 18.566 12.1728s2.308 3.8839 3.146 4.5149c.837.63 4.511.524 4.511.524s1.835.847 2.334.525.706-1.295.706-1.295l-1.048-.072s-1.573-1.9586-1.607-2.0644c.011-.2706.046-.5396.106-.8039 0 0 1.048.6643 1.399.9097.225.1611.484.2673.757.3099.274.0427.553.0205.816-.0645.49-.2454-.279-1.1551-1.015-1.7855-.735-.6305-2.659-2.9026-3.805-2.9618l-2.727-.1735s-14.338-10.6369-14.199-11.8978c.14-1.2609 1.831-4.2903 1.831-4.2903z" fill="#fb919f"/></g></svg>