<svg fill="none" height="130" viewBox="0 0 350 130" width="350" xmlns="http://www.w3.org/2000/svg" xmlns:xlink="http://www.w3.org/1999/xlink"><clipPath id="a"><path d="m0 0h350v130h-350z"/></clipPath><g clip-path="url(#a)"><path d="m44.09 122.78c23.81-2.18 47.8-10 65.37-26.23 15.31-14.13 24.64-33.4 33.88-52.07 7.82-15.8 16.16-31.88 28.27-44.48h-171.61v122.09c14.69 1.39 29.42 2.03 44.09.69z" fill="#58afff"/><path d="m350 27.77v-27.77h-178.39c-12.11 12.6-20.45 28.68-28.27 44.47-9.24 18.67-18.57 37.94-33.88 52.07-17.57 16.22-41.56 24.06-65.37 26.24-14.67 1.34-29.4.7-44.09-.69v7.91h252.45c2.994-25.307 14.124-48.9567 31.716-67.393s40.695-30.6616 65.834-34.837z" fill="#c9e3fc"/><path d="m350 27.77c-25.139 4.1754-48.242 16.4008-65.834 34.837-17.592 18.4363-28.722 42.086-31.716 67.393h97.55z" fill="#e5f1ff"/><path d="m349.2 113.85c.068-.518-.018-1.045-.247-1.514-.23-.47-.592-.861-1.043-1.126-.236-.084-.489-.108-.736-.069-.247.038-.481.138-.68.29s-.356.352-.458.58c-.102.229-.146.479-.126.729-.83-1.067-1.917-1.907-3.16-2.44l-1.23 2.7c-.372-.934-.945-1.774-1.68-2.46l-1.45 2.77c-1.34-1.56-4.17-.55-4.45 1.61-.033-.508-.258-.983-.63-1.331-.371-.347-.861-.54-1.37-.539-.504.089-.958.359-1.278.758s-.484.901-.462 1.412c-.661-1.357-1.532-2.603-2.58-3.69-.816 1.631-.977 3.514-.45 5.26-.416-.706-1.084-1.228-1.87-1.46l-.87 2.32c-.61-1.7-3.4-1.13-3.44.71-.208-.558-.594-1.033-1.098-1.351s-1.098-.462-1.692-.409c-.595.125-1.137.432-1.551.878s-.679 1.009-.759 1.612c-.08-.318-.228-.614-.434-.868-.207-.255-.466-.461-.76-.605s-.617-.221-.944-.228c-.327-.006-.652.059-.952.191-1.187.668-2.155 1.665-2.79 2.87-.077-.246-.209-.471-.384-.66s-.39-.336-.629-.432-.497-.137-.754-.121-.507.089-.733.213c-.898.616-1.561 1.519-1.88 2.56-1.57-1.45-4.35-.46-4.9 1.74-.143-.634-.5-1.2-1.011-1.602s-1.145-.615-1.796-.605c-.65.011-1.276.245-1.774.663-.498.419-.837.995-.959 1.634l-1.86-1c-.773.662-1.296 1.569-1.48 2.57-.169-.163-.37-.288-.591-.368-.22-.08-.455-.112-.689-.096-.234.017-.462.084-.669.194-.206.111-.387.265-.531.45-.62.812-1.032 1.763-1.2 2.77-.039-.212-.13-.41-.265-.578-.134-.168-.308-.301-.505-.386-.198-.085-.414-.12-.628-.102-.215.018-.421.089-.602.206-.71.531-1.241 1.268-1.52 2.11.24 0 .44.52.68.52h64.05v-16.66c-.074.12-.134.247-.18.38z" fill="#8bc4ef"/><path d="m322.15 127.46c-.022-.222-.118-.43-.272-.591s-.358-.267-.579-.299c-.22-.032-.445.011-.639.121-.194.111-.345.283-.43.489v-1.75c-.563.143-1.071.449-1.46.88.08-.119.134-.254.157-.396s.015-.287-.023-.426c-.038-.138-.105-.267-.197-.377s-.207-.199-.337-.261c-.279-.056-.569-.016-.823.113-.254.128-.457.339-.577.597.31-.87-.82-1.83-1.47-1.25.07-.87-1.2-1.35-1.6-.6.006-.266-.042-.53-.14-.778-.098-.247-.244-.472-.43-.662-.097-.076-.212-.126-.334-.145-.122-.018-.246-.004-.361.04s-.217.118-.295.213c-.078.096-.13.21-.15.332-.21-.6-.58-1.31-1.15-1.24-.173.035-.337.107-.48.21l-1.75 1.1c.039-.235-.001-.476-.113-.685-.112-.21-.29-.377-.507-.475-.218-.063-.451-.043-.654.057-.204.1-.363.272-.446.483.034-.26-.01-.523-.126-.758-.115-.235-.298-.43-.524-.562-.118-.042-.245-.054-.369-.035-.125.02-.242.07-.341.147-.1.076-.178.177-.229.292s-.072.241-.061.366c-.415-.534-.959-.954-1.58-1.22l-.63 1.36c-.186-.467-.473-.887-.84-1.23l-.72 1.39c-.179-.168-.4-.283-.64-.333s-.489-.033-.72.05-.434.228-.587.419c-.154.191-.252.421-.283.664-.015-.255-.127-.494-.313-.669-.186-.174-.432-.272-.687-.271-.252.046-.479.181-.639.382-.16.2-.242.452-.231.708-.331-.677-.766-1.298-1.29-1.84-.41.815-.492 1.756-.23 2.63-.209-.355-.545-.616-.94-.73l-.44 1.16c-.09-.178-.236-.322-.415-.408-.18-.087-.383-.113-.578-.073-.196.04-.373.143-.504.293s-.21.339-.223.538c-.104-.278-.296-.515-.547-.674s-.547-.231-.843-.206c-.298.061-.569.213-.777.435-.208.223-.342.504-.383.805-.04-.16-.114-.308-.217-.436-.104-.128-.234-.231-.382-.302-.148-.072-.31-.11-.474-.112-.165-.002-.327.032-.477.1-.591.334-1.073.83-1.39 1.43-.04-.122-.106-.234-.194-.327s-.196-.166-.315-.213c-.12-.047-.248-.067-.376-.058s-.253.046-.365.108c-.449.308-.78.759-.94 1.28-.204-.16-.445-.265-.701-.307s-.519-.018-.763.069-.463.234-.635.427c-.173.194-.293.428-.351.681-.071-.314-.247-.595-.499-.796-.251-.201-.564-.311-.886-.311s-.635.11-.886.311c-.252.201-.428.482-.499.796l-.93-.51c-.388.332-.649.788-.74 1.29-.085-.081-.185-.143-.296-.182-.11-.04-.227-.056-.344-.047-.117.008-.23.041-.334.096-.103.055-.194.131-.266.223-.31.407-.516.885-.6 1.39-.018-.107-.063-.207-.13-.292-.067-.084-.154-.151-.254-.194-.099-.042-.207-.06-.315-.05-.107.01-.211.046-.301.106-.354.264-.62.631-.76 1.05.12 0 .22.26.34.26h50.33c.081-.192.09-.407.025-.605-.064-.198-.197-.367-.375-.475-.334-.091-.69-.055-1 .1.087-.249.116-.514.085-.776s-.122-.513-.265-.734c-.3-.36-1.58-.78-1.77-.32z" fill="#58afff"/><path d="m319.88 15.1801c3.29 1.44 5.68 5.39 4.32 8.72 4-.11 7.53 3.41 8.46 7.34s-.21 8.09-2 11.72c-2.07 4.28-5.74 8.51-10.49 8.5-1.432-.0485-2.845-.3534-4.17-.9-6.74-2.56-12.45-8.29-14-15.35-2.27-9.82 6.23-25.1 17.88-20.03z" fill="#8bc4ef"/><path d="m287.57 26.11c.65 3.24 2.84 6.14 2.81 9.44-.06 6.46-8.41 10.89-7.7 17.32.54 4.93 6 7.57 8.69 11.76 3 4.79 2.12 11.37 5.44 15.95 3.17 4.39 9.15 5.55 14.56 5.9 3.27.21 7 .09 9.25-2.25 3.06-3.14 1.93-8.25 2.43-12.6.64-5.59 4.18-10.34 6.93-15.25s4.75-11 2.21-16c-1.76-3.48-5.36-5.66-7.61-8.85s-3.05-7.39-4.59-11.1c-1.67-4-4.48-7.77-8.44-9.61-7.92-3.71003-25.99 5.25-23.98 15.29z" fill="#8bc4ef"/><path d="m309.3 128.79c-.175 0-.343-.07-.467-.193-.123-.124-.193-.292-.193-.467l-.22-102.3201c0-.175.07-.3429.193-.4667.124-.1238.292-.1933.467-.1933s.343.0695.467.1933c.123.1238.193.2917.193.4667l.26 102.3301c0 .175-.069.343-.193.467-.124.123-.292.193-.467.193z" fill="#58afff"/><path d="m308.91 50.59-13.18-10.9c-.105-.1184-.164-.2708-.166-.4292-.003-.1584.052-.3123.154-.4336s.244-.2019.401-.2271c.156-.0252.316.0067.451.0899l12.25 10.11 12.72-13.15c.056-.0756.127-.1385.209-.1843.083-.0459.174-.0736.267-.0814.094-.0077.188.0046.277.0363.089.0316.169.0819.237.1473s.12.1445.155.2321c.034.0875.05.1813.045.2753s-.029.1858-.072.2694c-.044.0836-.104.157-.178.2153z" fill="#58afff"/><path d="m308.94 70.34-14.08-11.81c-.081-.0498-.15-.1163-.202-.1951-.053-.0789-.088-.1681-.103-.2617-.015-.0935-.01-.1893.015-.2806.026-.0914.07-.1762.131-.2488s.137-.1312.223-.1718c.085-.0406.179-.0623.274-.0636.094-.0013.188.0178.275.056.087.0383.164.0947.227.1656l13.09 11 14.47-16.6c.055-.0697.124-.1275.202-.1699.078-.0425.164-.0687.253-.0772.088-.0084.177.0011.262.028s.163.0707.231.1286c.067.058.122.129.161.2087.04.0798.062.1666.067.2554s-.008.1776-.038.2612-.077.1602-.138.2252z" fill="#58afff"/><path d="m339.3 94.5001c-.19-2.19-1.42-4.28-1.15-6.46.52-4.27 6.38-6.58 6.39-10.88 0-3.3-3.43-5.46-4.87-8.44-1.64-3.39-.55-7.68-2.4-11s-5.64-4.36-9.19-5c-2.15-.38-4.6-.58-6.29.8-2.26 1.85-1.9 5.31-2.55 8.16-.84 3.65-3.54 6.53-5.72 9.57s-4 6.94-2.67 10.45c.91 2.44 3.12 4.15 4.37 6.43s1.47 5.12 2.2 7.69c.695 2.8556 2.427 5.3509 4.86 6.9999 4.97 3.04 17.59-1.53 17.02-8.3199z" fill="#c9e3fc"/><path d="m328.36 131.52c-.117 0-.229-.046-.311-.129-.083-.082-.129-.194-.129-.311l-.15-68.13c0-.1167.046-.2286.129-.3111.082-.0825.194-.1289.311-.1289s.229.0464.311.1289c.083.0825.129.1944.129.3111l.15 68.13c0 .117-.046.229-.129.311-.082.083-.194.129-.311.129z" fill="#58afff"/><path d="m328.1 79.45-8.77-7.26c-.073-.0784-.115-.1809-.118-.2881s.034-.2118.102-.2941c.069-.0823.166-.1366.272-.1528.106-.0161.214.007.304.065l8.11 6.73 8.47-8.75c.039-.0471.087-.0857.141-.1134.054-.0276.113-.0437.174-.0472.061-.0036.122.0056.179.0268s.109.054.153.0963c.043.0424.078.0933.101.1497.023.0563.034.1169.032.1777-.001.0609-.015.1208-.041.1758-.026.0551-.063.1043-.109.1443z" fill="#58afff"/><path d="m328.11 92.5901-9.37-7.86c-.052-.0338-.097-.0783-.131-.1307-.034-.0523-.056-.1113-.066-.173-.009-.0617-.005-.1246.011-.1847.017-.0601.047-.1159.087-.1638s.089-.0867.145-.1139c.057-.0271.118-.0421.18-.0438.063-.0016.125.01.182.0341.058.0241.11.0601.152.1058l8.7 7.31 9.64-11.06c.079-.0802.185-.1272.298-.1313.112-.0042.222.0349.306.1092.085.0742.138.1779.148.2899s-.023.2237-.092.3122z" fill="#58afff"/><path d="m250.44 64.27-14.82 8.73s-4.87.71-5.86 1.42-1.51 1.51-2.26 1.8c-.415.1437-.769.4262-1 .8l7.93 4.29 4.77-4.31s15.47-6.64 16.71-8.86l1.24-2.22z" fill="#c66f7e"/><path d="m198.68 137.18s-9.21 3.44-14.42.8-4.08-10.33-4.08-10.33-3 2.16-3.12 4.32.4 5 1.44 6.09 1.5.94 1.5.94-2 .92-1.28 1.57 6.49 1.2 6.49 1.2-2.24 1.68 1.52 1.36c2.448-.276 4.822-1.009 7-2.16 0 0-.32 1.44 1.28 1.28s3.6-3.12 3.6-3.12z" fill="#533a71"/><path d="m219.78 142.13c0-.18 4.13-2.94 5.61-6.43s1.66-4.75 2.56-6.07c.539-.786 1.352-1.343 2.28-1.56l5 17.34h4.87s1-2.44 0-3.4c-.954-.756-2.029-1.344-3.18-1.74 0 0-.78-7.15-.24-10.87s3.32-10.4 3.89-16.22c.398-2.87.398-5.78 0-8.65l-17.13 5.88-14.12 25.78v4.81z" fill="#e28100"/><path d="m220.61 78.9199s.44 11.19-.7 15.7-2.28 6.0701-2.28 6.0701l-15.63 18.19c-2.955 3.414-4.653 7.737-4.81 12.25-.06 7.21 1.62 10 2.34 11.47s2.88 2.28 4.08 2.64 20.36 0 20.36 0 2-2.76 0-3.54-9.43-1.38-10.75-1.8 2.34-1.2 4.57-4.93.72-6.55 1.44-9.43 4.1-2.94 5.65-4.14 2.7-5.23 2.7-5.23-.48 12.55 0 14.06 2.4 15.18 2.4 15.18h6.43s1-2.14 0-2.8-2.16-1.56-2.34-2.22-1.26-12 1-17.06 4.14-6.61 5.23-13.7.7-18.4401-.75-22.6301-2.1-5.53-1-7.45 5-6.13 5-8.65c-.051-1.5321-.599-3.0062-1.56-4.2001 0 0-2-.8999-3.36-.2999s-4.69 3.3-6.67 3-6-.44-7.61.92-3.74 8.6-3.74 8.6z" fill="#ffb942"/><path d="m223.21 70.3498c-3.24 1.68-4.08 3.12-3.42 6.13s2.58 4.69 2.22 10 .48 6.61 4.93 5.89 9.19-2.58 8.53-5.89-4.47-11.03-6.8-13.79c-.658-.7964-1.497-1.4243-2.447-1.8313-.949-.407-1.982-.5814-3.013-.5087z" fill="#533a71"/><path d="m217.62 100.68s-6.67 7.93-10.15 11.59c-1.988 2.062-3.816 4.272-5.47 6.61.48-.375 1.071-.578 1.68-.578s1.2.203 1.68.578c1.8 1.32 4.76 1.86 6.76.24s-.22-4.87 3.63-5.65 9.13-1.5 9.61-5-7.74-7.79-7.74-7.79z" fill="#533a71"/><path d="m239 66.3199 3.35.9c.022-.4101-.076-.8177-.282-1.173s-.511-.6427-.878-.827c-1.19-.44-2.19 1.1-2.19 1.1z" fill="#533a71"/><path d="m263.11 76.5799s-4.94 15.2-4.74 19.44c.2 4.2401 3.49 42.0001 3.49 42.0001 1.442.434 2.945.63 4.45.58 2.9 0 3.29-1.06 3.29-1.06v-21.54s4.45-24.8401 4.64-25.1301 13.73-19.72 13.73-19.72-6.57-5.7-7-5.9-13 2-13 2z" fill="#3d2c56"/><path d="m290.75 70c-.266 4.4228-1.549 8.7245-3.75 12.57-3.67 6.38-11.89 21.56-11.89 21.56 1.567 3.835 2.867 7.775 3.89 11.79 1 4.64 3.09 21.07 3.09 21.07-1.313 1.463-3.028 2.506-4.93 3-1.163.348-2.367.543-3.58.58 0 0-10.94-37-10.84-41.37s5.84-20.85 5.84-20.85c.967.0182 1.928-.1643 2.821-.5361.894-.3718 1.7-.9247 2.369-1.6239 2-2.32 4.16-4.06 6.86-4 1.404.0163 2.8.201 4.16.55z" fill="#533a71"/><path d="m252.45 33.46c-.24 2.4151-.177 4.8508.19 7.25.483 4.6542.483 9.3458 0 14-.35 3.19-3.06 9.09-3.06 9.09s.57 2.71 2.56 3.29 5.37-.68 5.37-.68 3.48-5.51 4.45-8.89-.77-4.25-.77-4.25z" fill="#d65050"/><path d="m280.18 71c-2.272-.5271-4.598-.7856-6.93-.77-3.22.13-6.32 2.58-6.32 2.58l-6.06-36.09 2.45-3.22 8.12 7.35 8.73 13.28z" fill="#d65050"/><path d="m248.22 7.06997c.49-1.16246 1.312-2.15447 2.363-2.85177 1.052-.69731 2.285-1.0689 3.547-1.06823 4.33-.12 5.55 2.67 6.17 6.24.62 3.57003.1 5.39003 1.29 7.12003s2.72.62 4 1.85-.24 3.91.4 5 2.25.27 2.49 1.3-2.39 2.86-5.64 1.78-1.81-3.86-2.48-4.58-2 .95-4.18-.17-7.96-14.62003-7.96-14.62003z" fill="#3d2c56"/><path d="m251.37 30.7199-2.49-3.31 3.29-4.76 2.97.99.27 3.42z" fill="#c66f7e"/><path d="m237.86 23.4799c.912.5535 1.746 1.2261 2.48 2 .5.74.43 3.3.95 3.54.48.1128.983.0743 1.44-.11 0 0 3.81 2.59 5 2.83s2.69-1.83 3.48-3.06c.557-1.2311.866-2.5596.91-3.91.384 1.4242.289 2.935-.27 4.3 1.51-2.616 3.978-4.5432 6.882-5.3747 2.904-.8316 6.018-.5027 8.684.9174s4.676 3.8204 5.607 6.6943c.93 2.874.708 5.997-.62 8.7102s-3.659 4.8044-6.499 5.8325c-2.841 1.0281-5.969.9126-8.726-.322s-4.927-3.4918-6.052-6.2955c-1.124-2.8037-1.116-5.9346.024-8.7322l1.2 1.93c0 .55.69 5.53.69 5.53.65 1.23-.35-3.47.89-5.28 1.462-2.1784 3.094-4.2381 4.88-6.16 0 0-1.39-.67-2.61-3.46-.694-1.3491-1.061-2.8428-1.07-4.36-.956-1.4098-2.016-2.7468-3.17-4-.23 0-7-.81-7-.87s-4.69 2.38-4.69 2.38l-2.49 7z" fill="#fb919f"/><path d="m238.82 20.91c.901.0323 1.799-.1206 2.638-.4491s1.602-.8258 2.242-1.4609c.88-.88 1.51-2 2.31-2.92.367-.5023.83-.9269 1.362-1.2496.532-.3226 1.123-.5369 1.738-.6304 1.18-.08 2.32.53 3.5.53.836-.0522 1.638-.3479 2.308-.8508s1.178-1.191 1.462-1.9792c-2.63-4.49004-9.44-8.52004-16.14-4.33004-4.6 2.88004-6.21 6.67004-6.47 9.78004.129.3507.297.6861.5 1 .505.7532 1.18 1.3772 1.97 1.8219.79.4446 1.674.6975 2.58.7381z" fill="#533a71"/><path d="m257.35 14.1799c-.219-.8147-.556-1.593-1-2.31-.284.7883-.792 1.4763-1.462 1.9792-.669.5029-1.472.7987-2.308.8508-1.19 0-2.32-.62-3.5-.53-.615.0935-1.206.3078-1.738.6305-.532.3226-.995.7472-1.362 1.2495-.8 1-1.43 2-2.31 2.92-.638.6418-1.402 1.1453-2.243 1.4791s-1.742.4906-2.647.4609c-.904-.0422-1.786-.2957-2.574-.7403-.789-.4446-1.462-1.0678-1.966-1.8197-.203-.3139-.371-.6492-.5-1-.202 1.7158.1 3.4532.87 5 1.49 2.47 5.06.71 7.51-.6s5.35.1 6.57.13 1.82-.91 1.44-1.49c-.067-.2582-.073-.5286-.017-.7895.055-.2609.172-.5051.339-.713.167-.208.38-.374.623-.4847s.508-.163.775-.1528c1.35.17 2 1 2.21 2.66s-.06 1.34.24 1.65c.59.2647 1.224.4206 1.87.46 1.52-2.6837 1.943-5.8516 1.18-8.84z" fill="#3d2c56"/><path d="m245.55 29.3001 2.53-2.48s.26 2.54-.7 3.06-1.83-.58-1.83-.58z" fill="#fff"/><path d="m258.48 96.35c-.17-.64-.33-1.15-.33-1.15.082.3907.192.7751.33 1.15z" fill="#fb919f"/><path d="m268.55 63.7899-7.33-1.15-.14 5.87c1.984 1.1079 4.147 1.8593 6.39 2.22z" fill="#c66f7e"/><path d="m261.07 68.51-.44 18.07s-3.63 6.42-3.74 7.72 1.31 4.36 1.84 4.41c.33 0 0-1.32-.25-2.35-.138-.3749-.248-.7592-.33-1.15 0 0 .16.52.33 1.15.212.6627.552 1.2776 1 1.81 1 1.08 3.34 1.39 3.74.59s-.6-3.38-.6-3.38 1.53-2.89 2.29-4.6c.213-.5426.314-1.1226.297-1.7052-.018-.5826-.153-1.1557-.397-1.6848l2.61-16.64c-2.231-.3714-4.38-1.1295-6.35-2.24z" fill="#fb919f"/><path d="m259.61 26.21c1.177-.3039 2.406-.354 3.604-.1472 1.198.2069 2.339.6661 3.346 1.3472 3.35 2.32 12.12 10.7 17.4 22.81s8.51 17.79 7.73 21.27-4.38 2.45-10.18 0-5.8-.9-8.38-2.06 5.16-9 2.58-15.47-6.19-5-8.38-10.05-2.71-5.91-2.71-5.91 3.61 13.79 4 19.59c.274 2.876.23 5.7735-.13 8.64-1.485.8573-3.188 1.2606-4.9 1.16-3-.13-4-1.68-4-1.68s.18-7.86-.5-11-6-15.73-6-15.73-1.16-5 0-8 6.52-4.77 6.52-4.77z" fill="#ff6b6b"/><path d="m220.63 90.5898s1.91 1.63 7.72 2c3.531.2078 7.072-.1295 10.5-1l.1 2.91c-3.451.9307-7.039 1.2488-10.6.94-2.81-.2738-5.56-.9857-8.15-2.11z" fill="#533a71"/><path d="m34.28 146c-2.0089-4.018-4.8281-7.576-8.28-10.45-.9257-.663-1.7393-1.47-2.41-2.39-.3253-.467-.5111-1.016-.5359-1.585-.0248-.568.1125-1.132.3959-1.625 4.7.22 8.15 4.32 11 8.07-3.0295-6.72-6.5908-13.187-10.65-19.34-1.16-1.75-2.23-4.41-.55-5.66 1.05-.78 2.57-.39 3.67.33 2.31 1.51 3.62 4.11 4.82 6.6l4.8 9.92c-2.58-9-5.16-18-6.53-27.28-.34-2.28-.37-5.0999 1.59-6.3299 2.21-1.38 5.12.54 6.34 2.85 1.0098 2.2069 1.6096 4.5789 1.77 6.9999.8758 7.475 1.3066 14.995 1.29 22.52.9978-2.814 2.1495-5.572 3.45-8.26.47-1 1.14-2.06 2.21-2.16.4253.005.8416.123 1.2056.343.364.219.6625.533.8644.907 1.63 2.56.16 5.88-1.31 8.54l-4.9 8.85 3.81-2.61c.281-.261.6185-.454.9862-.563.3678-.109.7558-.132 1.1338-.067 1.35.48.85 2.51.1 3.74l-7.06 11.59c-2.22-.07-4.1 0-6.32.17-.72-.88-.38-2.11-.89-3.11z" fill="#8bc4ef"/><path d="m101.4 108.64h-1.8v-1.64l-47.83-1.57 1-27.2001 1.8.07-.93 25.3801 46 1.51.66-27.1002h46.85l1.27 30.5102-47-1.54zm.08-3.43 45.09 1.48-1.12-26.8402h-43.35z" fill="#58afff"/><path d="m41.64 75.3999 119.18 2.01 1.26 21.68-122.71-2.52z" fill="#8bc4ef"/><g fill="#58afff"><path d="m40.8935 79.9778-.0081.4299 120.1886 2.2658.008-.4299z"/><path d="m40.383 86.0217-.0081.43 120.1891 2.2657.008-.4299z"/><path d="m40.3819 92.0759-.0081.43 120.1882 2.2657.009-.4299z"/><path d="m152.39 134.52-4.87-26.9-96.79-1.87-4.4 25.43-1.71-.29 4.65-26.91 99.7 1.94 5.13 28.29z"/><path d="m167.9 144.78-5.68-35.45-121.57-1.43-7.08 31.44-1.7-.38 7.39-32.81 124.45 1.46 5.9 36.9z"/></g><path d="m35.9 100.66v7.81l130.24.87s3.47-6.66 2.32-6.66-132.56-2.02-132.56-2.02z" fill="#8bc4ef"/><path d="m24.7 136.13c.1246-1.075.1044-2.161-.06-3.23-.0772-.536-.0357-1.083.1216-1.601.1572-.519.4264-.996.7884-1.399.1823-.186.4141-.314.6678-.371s.5183-.039.7622.051c.2123.143.3934.327.5326.542s.2336.456.2774.708l1.07 3.41c.71-.34.63-1.4 1.11-2 .65-.84 2.1-.5 2.7.38.5016.94.6974 2.013.56 3.07.81-1.195 2.0129-2.069 3.4-2.47.5114.673.8747 1.447 1.066 2.271s.2063 1.679.044 2.509c.34-1.09 2-1.2 2.82-.41.3644.437.6314.946.7832 1.495.1517.548.1847 1.123.0968 1.685.0087.233-.0697.461-.22.64-.1083.075-.2303.127-.359.155-.1287.027-.2616.029-.391.005-5.15-.29-11.76.45-16.7-.94-1.68-.48-3.45-1.4-2.88-3.51.63-2.38 4.01-1.38 3.81-.99z" fill="#8bc4ef"/><path d="m42.51 129.24c.4547-.213.9656-.276 1.4584-.179s.9418.349 1.2816.719c.0303-.237.1109-.464.2363-.666.1254-.203.2927-.376.4907-.509.1979-.133.422-.221.6571-.26s.4758-.027.7059.035c.4593.153.8811.401 1.2378.729.3567.327.6403.726.8322 1.171.112.301.3237.555.6.72.1421.043.2914.057.4391.042s.2908-.06.4209-.132c1.47-.64 2.94-2.21 4.35-1.45.8.43 1.17 1.51 2 1.73.4982.06 1.0036-.005 1.47-.19.8654-.265 1.7946-.234 2.64.09.4163.169.7743.456 1.03.825.2558.37.3983.806.41 1.255-1.3784.595-2.8875.822-4.38.66-4.5867-.12-9.17-.31-13.75-.57-2.02-.11-5.59-2.26-2.13-4.02z" fill="#8bc4ef"/></g></svg>