<svg fill="none" height="130" viewBox="0 0 350 130" width="350" xmlns="http://www.w3.org/2000/svg" xmlns:xlink="http://www.w3.org/1999/xlink"><clipPath id="a"><path d="m0 0h350v130h-350z"/></clipPath><g clip-path="url(#a)"><path d="m6.77002 139.69s6.22998-16.4 2.23-22.06c-4-5.66-7 4.12-7.67 11.52-.670005 7.4-1.710004 10.54-1.710004 10.54s3.130004-28.93 0-35.1c-3.129996-6.1701-12.670016-6.7701-15.200016 6.19-1.5332 8.451-2.0336 17.058-1.49 25.63z" fill="#94dd4e"/><path d="m1.52999 122.79c.09811-.379.1485-.769.15-1.16 0-.617-.12157-1.228-.35777-1.799-.23619-.57-.582394-1.088-1.018829-1.524-.436436-.437-.95456-.783-1.524791-1.019-.57023-.236-1.1814-.358-1.79861-.358-.6282-.001-1.2502.124-1.82911.368-.5789.244-1.1029.602-1.54089 1.052-.24441-.23-.50879-.437-.79-.62-.2647-.556-.67686-1.03-1.19168-1.368-.51482-.339-1.11259-.53-1.72831-.552-.7348.003-1.4442.269-2 .75.2708-.543.4079-1.143.4-1.75 0-1.56-.84-2.83-1.88-2.83s-1.79 1.14-1.87 2.6c-.7532-.318-1.5625-.481-2.38-.48-1.6231 0-3.1798.645-4.3275 1.792-1.1477 1.148-1.7925 2.705-1.7925 4.328s.6448 3.18 1.7925 4.327c1.1477 1.148 2.7044 1.793 4.3275 1.793.8771-.002 1.7435-.193 2.54-.56.61 3.11 2.83 5.41 5.48999 5.41.85446-.005 1.69125-.244 2.42-.69.36047 1.2 1.08761 2.257 2.07938 3.023s2.19841 1.202 3.45062 1.247c3.26 0 5.91-2.94 5.91-6.57.01855-1.035-.19976-2.06-.63825-2.998-.4385-.938-1.08557-1.763-1.89175-2.412z" fill="#388c77"/><path d="m1.32999 129.16c-.650833.012-1.2870403.195-1.845066.53-.558024.335-1.018334.811-1.334934 1.38-.78604-.352-1.63017-.555-2.49001-.6-.54729-1.249-1.44733-2.311-2.58959-3.055s-2.47703-1.139-3.84039-1.135c-.8906 0-1.773.169-2.6.5.0132-.183.0132-.367 0-.55 0-1.62-1-2.93-2.24-2.93-.5059.047-.9829.256-1.3597.597s-.633.794-.7303 1.293c-1.6842-.86-3.5491-1.306-5.44-1.3-6.21 0-11.25 4.67-11.25 10.43s5 10.43 11.25 10.43c1.8849.019 3.7453-.428 5.4163-1.3 1.6711-.872 3.1012-2.143 4.1637-3.7.8694.37 1.8049.561 2.75.56 1.03803-.002 2.06278-.234 2.99999-.68.93721.446 1.96195.678 3 .68 1.07247.037 2.1364-.203 3.08804-.699.951649-.496 1.7585262-1.231 2.341954-2.131.217228.044.438256.068.659996.07 1.03254-.124 1.98403-.621 2.67435-1.399.69033-.778 1.07157-1.781 1.07157-2.821s-.38124-2.044-1.07157-2.822c-.69032-.777-1.64181-1.275-2.67435-1.398z" fill="#54b162"/><path d="m67.14 77.24c26.29-18 47.5-42.32 72-62.67 6.264-5.23106 12.825-10.09583 19.65-14.57h-158.79v99.88c23.44.46 47.4-9.15 67.14-22.64z" fill="#ff6b6b"/><path d="m205.07 61.75c18.44-18.34 37.28-36.7 59.65-50 8.01-4.75655 16.48-8.69314 25.28-11.75h-131.21c-6.825 4.47417-13.386 9.33894-19.65 14.57-24.5 20.35-45.7 44.71-72 62.67-19.74 13.49-43.7 23.1-67.14 22.64v30.12h111.4c12.228-4.428 23.926-10.2 34.88-17.21 21.89-14.04 40.35-32.7 58.79-51.04z" fill="#fcbed2"/><path d="m350 0h-60c-8.805 3.06901-17.278 7.01903-25.29 11.79-22.37 13.26-41.21 31.62-59.65 50s-36.91 37-58.8 51c-10.947 7.009-22.639 12.781-34.86 17.21h238.6z" fill="#fff8fa"/><path d="m146.76 6.48999h-92.1c-.5136 0-.93.41638-.93.93v.97c0 .51363.4164.93.93.93h92.1c.514 0 .93-.41637.93-.93v-.97c0-.51362-.416-.93-.93-.93z" fill="#ff6b6b"/><path d="m146.76 102.87h-92.1c-.5136 0-.93.416-.93.93v.97c0 .514.4164.93.93.93h92.1c.514 0 .93-.416.93-.93v-.97c0-.514-.416-.93-.93-.93z" fill="#ff6b6b"/><path d="m144.59 9.33008h-88.08v93.53992h88.08z" fill="#fff8fa"/><path d="m63.88 20.78s1.13 12 1.76 12 11.28-.64 11.45-1.27c-.2805-3.829-.8016-7.6365-1.56-11.4-.28-.43-8.53-.26-11.65.67z" fill="#fcbed2"/><path d="m69.98 23.3301c.4805 0 .87-.3895.87-.87s-.3895-.87-.87-.87-.87.3895-.87.87.3895.87.87.87z" fill="#ff6b6b"/><path d="m67.24 84.0601s1.13 12 1.76 12 11.28-.64 11.45-1.27c-.2805-3.829-.8015-7.6365-1.56-11.4-.29-.39-8.56-.26-11.65.67z" fill="#ff6b6b"/><path d="m73.34 86.6101c.4805 0 .87-.3895.87-.87s-.3895-.87-.87-.87-.87.3895-.87.87.3895.87.87.87z" fill="#fff"/><path d="m90.3 24.1902c.4805 0 .87-.3895.87-.87s-.3895-.87-.87-.87-.87.3895-.87.87.3895.87.87.87z" fill="#fff"/><path d="m90.3 24.3301c-.1978 0-.3911-.0587-.5556-.1686-.1644-.1098-.2926-.266-.3683-.4487-.0756-.1828-.0955-.3838-.0569-.5778s.1339-.3722.2737-.512c.1399-.1399.318-.2351.512-.2737s.3951-.0188.5778.0569.3389.2039.4488.3683c.1099.1645.1685.3578.1685.5556 0 .2652-.1053.5195-.2929.7071-.1875.1875-.4419.2929-.7071.2929zm0-1.74c-.1444 0-.2855.0428-.4055.123-.1201.0802-.2137.1942-.2689.3276-.0553.1334-.0697.2802-.0416.4218.0282.1416.0977.2717.1998.3738s.2322.1716.3738.1998c.1416.0281.2884.0137.4218-.0416.1334-.0552.2474-.1488.3276-.2689.0802-.12.123-.2611.123-.4055 0-.1936-.0769-.3793-.2138-.5162s-.3226-.2138-.5162-.2138z" fill="#000"/><path d="m85 19.8999s-.58 5.86-.52 9-.4 3.24.52 3.53 8.74 1.39 9 1 1.68-11.74 1.1-12.21-10.04-1.69-10.1-1.32z" fill="#ff6b6b"/><path d="m127 38.65h-13.34s-1.81-10-1.54-16.2c0-.62.08-1.21.15-1.74h13.88s-.09.65-.17 1.74c-.299 3.4466-.242 6.915.17 10.35z" fill="#fcbed2"/><path d="m126.15 20.72s-.09.65-.17 1.74h-13.86c0-.62.08-1.21.15-1.74z" fill="#ff6b6b"/><path d="m118.91 26.3499c.596 0 1.08-.4835 1.08-1.08 0-.5964-.484-1.08-1.08-1.08s-1.08.4836-1.08 1.08c0 .5965.484 1.08 1.08 1.08z" fill="#ff6b6b"/><path d="m108 43.8399v31.68c0 .2387-.095.4677-.264.6364-.168.1688-.397.2636-.636.2636h-42.32c-.2387 0-.4676-.0948-.6364-.2636-.1688-.1687-.2636-.3977-.2636-.6364v-30.33c-.001-.5748.2182-1.1283.6124-1.5467s.9337-.67 1.5076-.7033h41.15c.12.0101.237.0446.344.1013s.2.1346.276.2287l.09.13c.084.132.132.2837.14.44z" fill="#fcbed2"/><path d="m108 43.8399v6.42h-44.12v-4.48c-.0619-.652.1208-1.3037.5126-1.8286.3918-.5248.9647-.8853 1.6074-1.0114h41.15c.127.0177.249.0636.357.1346.107.071.197.1651.263.2754h.09c.093.1465.142.3166.14.49z" fill="#ff6b6b"/><path d="m110.83 48.72h-42.12s.48-3.31-1.35-5.07c-.238-.2286-.516-.4116-.82-.54h40.17c.363-.0034.724.0506 1.07.16 2.86.92 3.05 5.45 3.05 5.45z" fill="#fcbed2"/><g fill="#ff6b6b"><path d="m85 71.3398h-15c-.4615 0-.904-.1833-1.2304-.5096-.3263-.3263-.5096-.7689-.5096-1.2304v-15.7899c.0139-.0815.0562-.1554.1193-.2086.0632-.0533.1431-.0825.2257-.0825s.1626.0292.2257.0825c.0631.0532.1054.1271.1193.2086v15.7899c0 .2653.1054.5196.2929.7072.1875.1875.4419.2928.7071.2928h15.05c.0502-.0085.1017-.006.1509.0073.0492.0134.0948.0374.1337.0702.039.0329.0703.0738.0918.1201.0214.0462.0326.0965.0326.1475 0 .0509-.0112.1012-.0326.1475-.0215.0462-.0528.0871-.0918.12-.0389.0328-.0845.0568-.1337.0702-.0492.0133-.1007.0158-.1509.0073z"/><path d="m75.36 70c-.0928 0-.1819-.0369-.2475-.1025-.0656-.0657-.1025-.1547-.1025-.2475-.0026-1.2563-.5029-2.4604-1.3912-3.3488-.8884-.8883-2.0925-1.3886-3.3488-1.3912-.0814-.0139-.1553-.0562-.2086-.1193-.0532-.0632-.0825-.1431-.0825-.2257s.0293-.1626.0825-.2257c.0533-.0632.1272-.1054.2086-.1193 1.4428 0 2.8265.5731 3.8467 1.5933s1.5933 2.4039 1.5933 3.8467c-.0026.0911-.0406.1775-.106.241-.0653.0635-.1529.099-.244.099z"/><path d="m71.72 63.5298c-.0633-.0013-.1251-.0198-.1788-.0535-.0536-.0336-.0972-.0812-.1259-.1377-.0288-.0564-.0416-.1196-.0373-.1828.0044-.0632.0258-.1241.062-.176l6.31-8.56c.0587-.0615.1377-.0994.2223-.1069s.169.016.2376.0662c.0685.0502.1165.1236.1349.2065s.006.1697-.0348.2442l-6.31 8.56c-.0326.0434-.0749.0787-.1235.103s-.1021.037-.1565.037z"/><path d="m74.87 65.8399c-.0734 0-.145-.0232-.2046-.0661-.0596-.043-.1042-.1036-.1274-.1733s-.024-.1449-.0021-.215.0654-.1316.1241-.1756l2.34-1.73c.0745-.0409.1613-.0532.2442-.0348s.1563.0664.2065.1349c.0501.0685.0737.153.0662.2376s-.0455.1636-.1069.2223l-2.34 1.74c-.059.0398-.1288.0608-.2.06z"/><path d="m85.94 68.2699h-9.1c-.0814-.0139-.1553-.0561-.2086-.1193-.0532-.0631-.0824-.143-.0824-.2256 0-.0827.0292-.1626.0824-.2257.0533-.0632.1272-.1054.2086-.1193h9.1c.0502-.0086.1017-.0061.1509.0072.0491.0134.0948.0374.1337.0702.039.0329.0703.0738.0918.1201.0214.0462.0325.0965.0325.1475 0 .0509-.0111.1012-.0325.1474-.0215.0463-.0528.0872-.0918.1201-.0389.0328-.0846.0568-.1337.0702-.0492.0133-.1007.0158-.1509.0072z"/><path d="m102.75 51.8398h-14.91c-.243 0-.44.197-.44.44v.45c0 .243.197.44.44.44h14.91c.243 0 .44-.197.44-.44v-.45c0-.243-.197-.44-.44-.44z"/><path d="m94.86 54.76h-7.02c-.243 0-.44.197-.44.44v.45c0 .243.197.44.44.44h7.02c.243 0 .44-.197.44-.44v-.45c0-.243-.197-.44-.44-.44z"/></g><path d="m104.17 74.1098h-35c-.1379 0-.2702-.0548-.3677-.1523s-.1523-.2298-.1523-.3677.0548-.2702.1523-.3677.2298-.1523.3677-.1523h35c.138 0 .27.0548.368.1523.097.0975.152.2298.152.3677s-.055.2702-.152.3677c-.098.0975-.23.1523-.368.1523z" fill="#fff8fa"/><path d="m102.31 55.4299h-1.63c-.8671 0-1.57.7029-1.57 1.57v3.05c0 .8671.7029 1.57 1.57 1.57h1.63c.867 0 1.57-.7029 1.57-1.57v-3.05c0-.8671-.703-1.57-1.57-1.57z" fill="#fff8fa"/><path d="m135.41 47.27h-14.92c-2.077 0-3.76 1.6834-3.76 3.76v20.35c0 2.0766 1.683 3.76 3.76 3.76h14.92c2.077 0 3.76-1.6834 3.76-3.76v-20.35c0-2.0766-1.683-3.76-3.76-3.76z" fill="#ffd7e2"/><path d="m256.66 81.91v8.73h-1.66v1.15h29.84c.637 0 1.268-.1254 1.856-.3692.588-.2437 1.123-.601 1.573-1.0513.451-.4504.808-.9851 1.052-1.5735s.369-1.2191.369-1.856v-1.33c0-.6369-.125-1.2676-.369-1.856s-.601-1.1231-1.052-1.5735c-.45-.4503-.985-.8076-1.573-1.0513s-1.219-.3692-1.856-.3692h-29.84v1.15z" fill="#2c367c"/><path d="m256.66 81.9099v8.73h27.16c1.319.0249 2.597-.4585 3.57-1.35.226-.2177.425-.4629.59-.73.338-.525.518-1.1357.52-1.76v-1.06c0-.6155-.173-1.2186-.5-1.74-.165-.267-.364-.5123-.59-.73-.973-.8915-2.251-1.3749-3.57-1.35z" fill="#fff"/><g fill="#859dc5" opacity=".5"><path d="m256.66 83.26v.74h31.34c-.165-.267-.364-.5123-.59-.73z" opacity=".5"/><path d="m288.5 85.9099h-31.84v.73h31.84z" opacity=".5"/><path d="m256.66 88.5601v.73h30.73c.226-.2177.425-.463.59-.73z" opacity=".5"/></g><path d="m291.05 74.0801h-33.49c-.668 0-1.21.5417-1.21 1.21v4.25c0 .6682.542 1.21 1.21 1.21h33.49c.668 0 1.21-.5418 1.21-1.21v-4.25c0-.6683-.542-1.21-1.21-1.21z" fill="#ff6b6b"/><path d="m289.23 74.0801h-3.52v6.67h3.52z" fill="#2c367c"/><path d="m284.21 74.0801h-1.05v6.67h1.05z" fill="#2c367c"/><path d="m288.5 73.28v-2.9c0-.46-.54-.83-1.21-.83h-33.48c-.67 0-1.21.37-1.21.83v2.9c0 .46.54.83 1.21.83h33.48c.71 0 1.21-.37 1.21-.83z" fill="#2c367c"/><path d="m259.15 69.55h-3.52v4.56h3.52z" fill="#e6ebf6"/><path d="m261.69 69.55h-1.05v4.56h1.05z" fill="#e6ebf6"/><path d="m317.95 91.68v2.38c0 .3713-.147.7274-.41.99-.263.2625-.619.41-.99.41h-185.33c-.371 0-.727-.1475-.99-.41-.262-.2626-.41-.6187-.41-.99v-2.38c0-.3713.148-.7274.41-.9899.263-.2626.619-.4101.99-.4101h185.33c.371 0 .727.1475.99.4101.263.2625.41.6186.41.9899z" fill="#ff6b6b"/><path d="m317.95 91.6801v.51h-188.13v-.51c-.002-.3029.095-.5983.275-.8417s.435-.4218.725-.5083h186.1c.296.0811.557.2571.743.501s.287.5422.287.849z" fill="#fff"/><path d="m312.46 95.47-1.13 2.51h-175.81l-1.13-2.51z" fill="#533a71"/><path d="m147.36 96.5601-9 78.9399c-.044.396-.233.762-.53 1.028-.297.265-.681.412-1.08.412h-.65c-.224.001-.446-.045-.651-.134-.206-.09-.391-.221-.543-.385-.152-.165-.269-.359-.342-.571s-.102-.437-.084-.66l6.08-78.6299z" fill="#533a71"/><path d="m300.31 96.5601 9 78.9399c.044.396.233.762.53 1.028.297.265.682.412 1.08.412h.65c.224.001.446-.045.652-.134.205-.09.39-.221.542-.385.152-.165.269-.359.342-.571s.102-.437.084-.66l-6.08-78.6299z" fill="#3d2c56"/><path d="m183.47 90.2801-8.63-47.45c-.059-.3162-.047-.6415.034-.9526.082-.3111.231-.6003.437-.8469.207-.2466.465-.4445.757-.5794.292-.135.61-.2036.932-.2011h58.56c.502.0016.989.1767 1.377.4955.388.3189.654.762.753 1.2545l10.26 48.3z" fill="#533a71"/><path d="m186.28 89.8499-8.48-46.63c-.056-.309-.043-.6265.038-.93.08-.3036.226-.5859.427-.827.201-.2412.453-.4353.737-.5689.284-.1335.594-.2032.908-.2041h57.54c.492.0006.968.1696 1.35.479.383.3093.647.7403.75 1.221l10.08 47.46z" fill="#fff"/><path d="m250.16 90.28h-64.25l-.07-.36-8.47-46.62c-.061-.3688-.041-.7465.059-1.1069.099-.3604.276-.6948.518-.9802.241-.2853.542-.5147.881-.6724.339-.1576.708-.2396 1.082-.2405h57.54c.584.0005 1.151.1983 1.608.5613.458.3631.779.8701.912 1.4387zm-63.52-.8699h62.45l-10-46.9301c-.084-.381-.295-.7223-.598-.9676-.304-.2453-.682-.3801-1.072-.3823h-57.51c-.249.0007-.494.0557-.719.1611-.226.1053-.425.2586-.585.449s-.277.4134-.341.6534c-.065.2401-.077.4914-.035.7365z" fill="#533a71"/><path d="m278.32 86.46h-91.32c-.574-.0598-1.148.1061-1.602.4626-.454.3566-.751.8757-.828 1.4474.077.5717.374 1.0908.828 1.4473s1.028.5225 1.602.4627h91.28c.574.0598 1.148-.1062 1.602-.4627s.751-.8756.828-1.4473c-.077-.5642-.369-1.077-.813-1.4325-.445-.3555-1.01-.5264-1.577-.4775z" fill="#533a71"/><path d="m207.32 47.6701 7.17 33c.053.2443.188.463.383.6196.194.1566.437.2414.687.2404h26.68c.163-.0005.324-.0376.471-.1087s.276-.1743.378-.3019c.102-.1277.174-.2766.21-.4357.037-.1592.037-.3245.001-.4837l-7.46-33c-.054-.2408-.189-.456-.381-.6104-.193-.1544-.432-.2389-.679-.2396h-26.4c-.162.0008-.322.0378-.468.1083s-.275.1727-.376.2992c-.102.1265-.174.274-.211.4319-.038.1578-.039.322-.005.4806z" fill="#b6d4ff"/><path d="m202.84 57.3301h-17.59c-.251.0006-.495-.0857-.69-.2443-.195-.1585-.329-.3796-.38-.6257l-1.84-8.8c-.034-.1594-.033-.3244.005-.483s.111-.3067.214-.4334c.102-.1267.232-.2287.379-.2985.148-.0699.309-.1058.472-.1051h17.59c.25-.001.493.0838.687.2404.195.1566.33.3753.383.6196l1.83 8.8c.036.1592.036.3245-.001.4837-.036.1591-.108.308-.21.4357-.102.1276-.231.2308-.378.3019s-.308.1082-.471.1087z" fill="#5ecccd"/><path d="m204.45 64.9101h-17.62c-.251.0006-.495-.0857-.69-.2442-.195-.1586-.329-.3796-.38-.6258l-.39-1.84c-.034-.1593-.033-.3244.005-.483s.111-.3067.214-.4334c.102-.1266.232-.2286.379-.2985.148-.0698.309-.1057.472-.1051h17.61c.25-.001.493.0839.687.2404.195.1566.33.3753.383.6196l.39 1.84c.036.1593.036.3246-.001.4837-.036.1591-.108.308-.21.4357s-.231.2308-.378.3019-.308.1083-.471.1087z" fill="#ffd7e2"/><path d="m208 81.5501h-17.68c-.251.0005-.495-.0858-.69-.2443s-.329-.3796-.38-.6257l-2.31-11.05c-.033-.1579-.03-.321.008-.4776.039-.1566.111-.3028.212-.4281.102-.1253.23-.2265.375-.2964.145-.07.304-.1068.465-.1079h17.64c.25-.0011.493.0838.687.2404.195.1565.33.3753.383.6196l2.36 11.05c.034.1594.033.3244-.005.483s-.111.3067-.214.4334c-.102.1266-.232.2286-.379.2985-.148.0698-.309.1058-.472.1051z" fill="#ffd7e2"/><path d="m194.65 96.5601 9 78.9399c.044.396.233.762.53 1.028.297.265.682.412 1.08.412h.65c.224.001.446-.045.652-.134.205-.09.39-.221.542-.385.152-.165.269-.359.342-.571s.102-.437.084-.66l-6.13-78.6299z" fill="#533a71"/><path d="m253 96.5601-9 78.9399c-.044.396-.233.762-.53 1.028-.297.265-.682.412-1.08.412h-.65c-.224.001-.446-.045-.652-.134-.205-.09-.39-.221-.542-.385-.152-.165-.269-.359-.342-.571s-.102-.437-.084-.66l6.08-78.6299z" fill="#3d2c56"/><path d="m174.04 81.0502h-28.55l-6.48-19.14h28.55z" fill="#ff6b6b"/><path d="m166.32 73.1702h18.78c2.122 0 4.157.8428 5.657 2.3431s2.343 3.5351 2.343 5.6569v6.27c0 .7611-.302 1.4911-.841 2.0294-.538.5382-1.268.8406-2.029.8406h-23.91c-.377 0-.75-.0743-1.098-.2185s-.665-.3556-.931-.6221c-.267-.2665-.478-.5829-.623-.9311-.144-.3482-.218-.7214-.218-1.0983v-11.44c.011-.7543.318-1.474.855-2.0036s1.261-.8265 2.015-.8264z" fill="#fcbed2"/><path d="m158.11 73.1702h21.73c2.122 0 4.157.8428 5.657 2.3431s2.343 3.5351 2.343 5.6569v6.27c.005.7594-.291 1.49-.823 2.0317s-1.258.8504-2.017.8583h-26.89c-.761 0-1.491-.3024-2.029-.8406-.539-.5383-.841-1.2683-.841-2.0294v-11.46c.011-.7543.318-1.474.855-2.0036s1.261-.8265 2.015-.8264z" fill="#533a71"/><path d="m138.92 73.1701h18.78c2.122 0 4.157.8429 5.657 2.3432s2.343 3.5351 2.343 5.6568v6.27c0 .7612-.302 1.4912-.841 2.0294-.538.5382-1.268.8406-2.029.8406h-23.91c-.379.0066-.756-.062-1.109-.2021-.353-.14-.674-.3485-.946-.6136-.271-.265-.488-.5813-.636-.9305-.149-.3492-.226-.7243-.229-1.1038v-11.46c.005-.3777.085-.7508.235-1.0976.149-.3469.366-.6608.637-.9237.272-.263.592-.4697.944-.6085.351-.1388.726-.2068 1.104-.2002z" fill="#fcbed2"/><path d="m138.24 73.1702h14.21c2.122 0 4.157.8428 5.657 2.3431s2.343 3.5351 2.343 5.6569v6.27c0 .7611-.302 1.4911-.841 2.0294-.538.5382-1.268.8406-2.029.8406h-19.34c-.761 0-1.491-.3024-2.029-.8406-.539-.5383-.841-1.2683-.841-2.0294v-11.44c.011-.7543.318-1.474.855-2.0036s1.261-.8265 2.015-.8264z" fill="#ff6b6b"/><path d="m169.22 73.1701h-23.4l-3.73-10.28h23.4z" fill="#fff8fa"/><path d="m185.18 84.5601h-17.22c-.541 0-.98.4387-.98.98v1.14c0 .5412.439.98.98.98h17.22c.541 0 .98-.4388.98-.98v-1.14c0-.5413-.439-.98-.98-.98z" fill="#3d2c56"/><path d="m197.27 90.3303h-19.14l-11.15-3.8h19.14z" fill="#fff"/><path d="m256.94 122.48 11.73 40.36 13.64-.78-5.75-37.67z" fill="#0078fa"/><path d="m313.43 116.28s-.45 9.25-9.7 10.6-49.5-2.14-49.5-2.14c-.529 4.838-1.588 9.604-3.16 14.21-2.37 6.31-7.78 23.12-7.78 23.12h-13.53s4.74-47.92 8.34-51.3 13-4.51 13-4.51l15.05-2.14 15.05 1.69z" fill="#1c8ff7"/><path d="m281.18 107.14c-2.03 1.296-4.364 2.037-6.77 2.15-3.83.11-6.43-1-10.94-2.15s-8.12-1.58-10.26-1.24l-2.14.34 23.34-6.2 6.77 3.5z" fill="#0078fa"/><path d="m286.21 52.6802s-5 2.48-5.71 11.5.56 20.41-1.35 26.16c-1.137 3.4316-2.731 6.6944-4.74 9.6998 2.053 2.553 4.317 4.929 6.77 7.1 2.91 2.32 8.72 2.14 8.72 2.14s8-12.6298 8.2-13.0798 5.19-18.38 5.19-18.38.11-17.93-.11-18.49-7.39-5.75-8.26-5.86-8.71-.79-8.71-.79z" fill="#e28100"/><path d="m311.68 45.0701 3.16.45s8.34 3.48 10.32 8.48.23 17.2-2.59 25.43-4.17 30.2199-6.09 34.9999c-.72 1.943-1.967 3.647-3.601 4.923-1.633 1.275-3.589 2.07-5.649 2.297-3.27.23-15.9-5.07-19.85-9-1.895-1.991-3.97-3.802-6.2-5.41 3.083-1.808 5.436-4.638 6.65-7.9999 2-5.64-.56-8.46-.34-13.76s4.4-11.5 4.4-11.5 4.53-21-5.68-21.2l7.37-4.34z" fill="#ffb942"/><path d="m311 27.64c0-.74-.07-1.43-.11-2.17-.12.54-.25 1-.37 1.56-.05-.76-.07-1.46-.12-2.22-.3 1-.62 1.83-.93 2.79-3.616-.0733-7.116-1.2879-10-3.47.364-1.1439.576-2.3308.63-3.53l-1.81 3.13c-1.763-1.2151-3.337-2.6843-4.67-4.36-.873-1.0543-1.551-2.2567-2-3.55-.238-.7423-.343-1.521-.31-2.3-1.235 2.0694-2.341 4.2135-3.31 6.42l.91 1.26 1.1-2.1-.61 2.37 3.31 2.1-.43 4.32 1 2.73 1.31 1.67 2.78.1s2 4.8 2.12 5c.51.6003 1.087 1.1404 1.72 1.61l3.79.38 5-.38.43-1.24s6-5.37 6.29-11.38c-.823.577-1.752.9853-2.734 1.2016-.982.2162-1.997.2361-2.986.0584z" fill="#3d2c56"/><path d="m316.69 25.0001c-.73-6.56-4.57-9.54-6.41-10.12-.99-.2945-1.945-.6934-2.85-1.19-1.841-1.9702-4.377-3.1465-7.07-3.28-4.64-.3-8 1.51-9.14 3.13-.033.7789.072 1.5576.31 2.3.449 1.2933 1.127 2.4956 2 3.55 1.333 1.6757 2.907 3.1449 4.67 4.36l1.8-3.14c-.054 1.1992-.266 2.3861-.63 3.53 2.884 2.1821 6.384 3.3966 10 3.47.3-1 .62-1.83.93-2.79.05.76.07 1.46.12 2.22.12-.54.25-1 .37-1.56 0 .74.07 1.43.11 2.17.992.186 2.011.1731 2.998-.0381.988-.2111 1.923-.6163 2.752-1.1919.051-.4716.064-.9464.04-1.42z" fill="#533a71"/><path d="m293.61 43.42.43 1.3c1.32-.261 2.657-.4347 4-.52.58.1.86 2.17.86 2.17s7.85-2.8 9.79-3 2.45-.23 2.45-.23l-.71-5.4s-3.74 1.51-6.69.4-4.67-4.61-4.67-4.61z" fill="#c66f7e"/><path d="m290.76 23.5702s-.63 4.27-.33 5.35 1 2.47 1 3.13-.83 2.8-.73 4.34 1.64 7.72 2.78 8.28 3.94-2.6 4.87-4.39.61-5.68 1-6.36 2.25-2.9 1.44-4.42-2.37-1.74-3.08-1-.88 3.36-1.62 3.48-1.57-.78-1.72-2-1.44-1.89-1.62-3.05.15-2.93-.18-3.36c-.475-.4486-1.002-.8381-1.57-1.16z" fill="#fb919f"/><path d="m294.5 48.34c1.44-1.421 3.073-2.6328 4.85-3.6 2.83-1.5 10.8-3.22 11.79-2.72s2.4 3.79 2.4 3.79z" fill="#fff"/><path d="m329 130.22h-19c-1.04-.015-2.033-.435-2.769-1.171-.735-.736-1.155-1.729-1.171-2.769v-21.44c.016-1.04.436-2.033 1.171-2.769.736-.735 1.729-1.155 2.769-1.171h16c.699-.002 1.386.183 1.991.534s1.105.858 1.449 1.466l7.62 13.65c.781 1.396 1.183 2.972 1.167 4.572-.016 1.599-.45 3.167-1.258 4.547-.809 1.381-1.964 2.526-3.351 3.322-1.387.797-2.958 1.217-4.558 1.219zm-19-26.09c-.188 0-.369.075-.502.208s-.208.314-.208.502v21.44c0 .188.075.369.208.502s.314.208.502.208h19c1.035-.002 2.052-.274 2.95-.789s1.646-1.256 2.17-2.148c.524-.893.806-1.907.819-2.942.012-1.035-.246-2.056-.749-2.961l-7.62-13.65c-.062-.109-.152-.201-.261-.264s-.233-.096-.359-.096z" fill="#3d2c56"/><path d="m327.41 130.22h-19c-1.04-.015-2.033-.435-2.769-1.171-.735-.736-1.155-1.729-1.171-2.769v-21.44c.016-1.04.436-2.033 1.171-2.769.736-.735 1.729-1.155 2.769-1.171h15.93c.699-.002 1.386.183 1.991.534s1.105.858 1.449 1.466l7.62 13.65c.781 1.396 1.183 2.972 1.167 4.572-.016 1.599-.45 3.167-1.258 4.547-.809 1.381-1.964 2.526-3.351 3.322-1.387.797-2.958 1.217-4.558 1.219zm-19-26.09c-.188 0-.369.075-.502.208s-.208.314-.208.502v21.44c0 .188.075.369.208.502s.314.208.502.208h19c1.035-.002 2.052-.274 2.95-.789s1.646-1.256 2.17-2.148c.524-.893.806-1.907.819-2.942.012-1.035-.246-2.056-.749-2.961l-7.6-13.66c-.062-.109-.152-.201-.261-.264s-.233-.096-.359-.096z" fill="#533a71"/><path d="m297.08 125h-13c-.827.046-1.605.407-2.174 1.009-.569.601-.886 1.398-.886 2.226s.317 1.625.886 2.227c.569.601 1.347.962 2.174 1.008h46.65c1.002-.001 1.99-.225 2.894-.656.904-.432 1.701-1.059 2.332-1.837.631-.777 1.081-1.686 1.317-2.659.236-.974.252-1.988.047-2.968l-.31-.78h-40.37c.17.79.36 1.6.44 2.43z" fill="#ff6b6b"/><path d="m333.17 111.17 9.27-39.17h-40.29c-2.61 11.08-8.77 37.38-8.77 38 .135.677.312 1.345.53 2h39.09c.02-.283.077-.562.17-.83z" fill="#ff6b6b"/><path d="m296.64 122.53h40.36l-3.92-9.73c-.06-.262-.087-.531-.08-.8h-39.09c.69 2.42 1.93 6.57 2.73 10.53z" fill="#fcbed2"/><path d="m342.63 71.1701c.254-.8182.173-1.7037-.224-2.4626-.397-.759-1.079-1.3298-1.896-1.5874-.625-.1953-1.295-.1953-1.92 0h-35.29l-1.15 4.88h40.29z" fill="#fcbed2"/><path d="m293.52 131.43h-38.52c-.859 0-1.683-.341-2.291-.949-.608-.607-.949-1.432-.949-2.291.013-.85.36-1.662.966-2.259.607-.596 1.423-.931 2.274-.931h34.91c.481 0 .957-.108 1.391-.315.435-.207.818-.508 1.121-.881.304-.374.52-.81.634-1.278.114-.467.122-.955.024-1.426l-3.83-8.58c-.113-.541-.085-1.102.08-1.63l10-41.5998c.258-.817.828-1.4988 1.587-1.896.759-.3973 1.645-.4779 2.463-.224.817.2576 1.499.8284 1.896 1.5873.397.759.478 1.6445.224 2.4627l-9.46 39.9998c-.165.528-.193 1.089-.08 1.63l4.23 10.51c.198.984.174 1.999-.07 2.972-.245.973-.703 1.879-1.342 2.652-.639.774-1.443 1.394-2.353 1.818-.909.423-1.902.637-2.905.628z" fill="#fcbed2"/><path d="m288.59 130.22h-19c-1.04-.015-2.033-.435-2.769-1.171-.735-.736-1.156-1.729-1.171-2.769v-21.44c.015-1.04.436-2.033 1.171-2.769.736-.735 1.729-1.155 2.769-1.171h15.93c.699-.002 1.386.183 1.991.534s1.105.858 1.449 1.466l7.62 13.65c.781 1.396 1.183 2.972 1.167 4.572-.016 1.599-.45 3.167-1.258 4.547-.809 1.381-1.964 2.526-3.351 3.322-1.387.797-2.958 1.217-4.558 1.219zm-19-26.09c-.188 0-.369.075-.502.208s-.208.314-.208.502v21.44c0 .188.075.369.208.502s.314.208.502.208h19c1.035-.002 2.052-.274 2.95-.789s1.646-1.256 2.17-2.148c.524-.893.806-1.907.819-2.942.012-1.035-.246-2.056-.749-2.961l-7.62-13.65c-.062-.109-.152-.201-.261-.264s-.233-.096-.359-.096z" fill="#3d2c56"/><path d="m287 130.22h-19c-1.04-.015-2.033-.435-2.769-1.171-.735-.736-1.155-1.729-1.171-2.769v-21.44c.016-1.04.436-2.033 1.171-2.769.736-.735 1.729-1.155 2.769-1.171h15.93c.699-.002 1.386.183 1.991.534s1.105.858 1.449 1.466l7.63 13.66c.781 1.396 1.183 2.972 1.167 4.572-.016 1.599-.45 3.167-1.258 4.547-.809 1.381-1.964 2.526-3.351 3.322-1.387.797-2.958 1.217-4.558 1.219zm-19-26.09c-.188 0-.369.075-.502.208s-.208.314-.208.502v21.44c0 .188.075.369.208.502s.314.208.502.208h19c1.035-.002 2.052-.274 2.95-.789s1.646-1.256 2.17-2.148c.524-.893.806-1.907.819-2.942.012-1.035-.246-2.056-.749-2.961l-7.62-13.65c-.062-.109-.152-.201-.261-.264s-.233-.096-.359-.096z" fill="#533a71"/><path d="m289.54 97.24h-28.72c-.668 0-1.21.5417-1.21 1.21v1.5c0 .668.542 1.21 1.21 1.21h28.72c.668 0 1.21-.542 1.21-1.21v-1.5c0-.6683-.542-1.21-1.21-1.21z" fill="#ff6b6b"/><path d="m219.83 81.68s-.67 1 0 1.52 3.69-.14 4.7-.19 8.3-1.33 8.3-1.33-4.94-3.33-6.35-4-2.79 1.16-2.79 1.16z" fill="#c66f7e"/><path d="m270.47 73.27-6.9 4.14-32.14 2.36c-2.295-.7938-4.632-1.4615-7-2-1.38-.12-8.73 3.83-8.8 5.08s2.91.35 2.91.35l4-1.46c1.686 1.613 3.832 2.6615 6.14 3 2.237.4388 4.556.1075 6.58-.94 0 0 27.95 3.61 32.9 2.88s10.84-5.85 10.84-5.85z" fill="#fb919f"/><path d="m287.11 53.1201c9 2.44 6.35 11 2.78 18s-10.51 12.47-10.51 12.47-6.21-1.26-8.23-5.3-1.61-6.38-1.61-6.38 12.87-20.06 17.57-18.79z" fill="#fff"/><path d="m178.98 37.0601c8.036 0 14.55-6.3755 14.55-14.24 0-7.8646-6.514-14.24002-14.55-14.24002s-14.55 6.37542-14.55 14.24002c0 7.8645 6.514 14.24 14.55 14.24z" fill="#ff6b6b"/><path d="m178.98 34.34c6.5 0 11.77-5.1576 11.77-11.52 0-6.3623-5.27-11.52-11.77-11.52s-11.77 5.1577-11.77 11.52c0 6.3624 5.27 11.52 11.77 11.52z" fill="#fff8fa"/><path d="m185.67 29.2201-5.85-5.85c.09-.1362.145-.2923.161-.4547s-.009-.3263-.071-.4772-.16-.2843-.286-.3885c-.125-.1043-.274-.1762-.434-.2096v-5.77c0-.0557-.022-.1091-.062-.1485-.039-.0394-.092-.0615-.148-.0615s-.109.0221-.148.0615c-.04.0394-.062.0928-.062.1485v5.77c-.138.0364-.267.1019-.377.1922-.111.0902-.201.2031-.264.3311-.064.1279-.099.2679-.104.4106-.004.1427.022.2848.076.4166.055.1319.137.2505.242.3479.104.0973.228.1712.364.2166.135.0455.279.0614.421.0467s.279-.0596.402-.1317l5.85 5.85c.04.0398.094.0621.15.0621s.11-.0223.15-.0621.062-.0937.062-.15-.022-.1102-.062-.15z" fill="#ff6b6b"/><path d="m278.09-8.11011-1.36.61c-.244.38594-.417.81276-.51 1.26-.117.66033-.419 1.27402-.87 1.77-.55.71-2.09.71-2.71 1.77-.28.43117-.445.92709-.478 1.44017s.066 1.026101.288 1.489832h9.92c.306-.2183792.564-.496873.758-.818422s.321-.67938.372-1.05158c-.344-2.10333-.829-4.18129-1.45-6.22z" fill="#3d2c56"/></g></svg>