<svg fill="none" height="130" viewBox="0 0 350 130" width="350" xmlns="http://www.w3.org/2000/svg" xmlns:xlink="http://www.w3.org/1999/xlink"><clipPath id="a"><path d="m0 0h350v130h-350z"/></clipPath><g clip-path="url(#a)"><path d="m147.36-57.4399-9 78.94c-.044.396-.233.7618-.53 1.0274-.297.2657-.682.4126-1.08.4126h-.65c-.224.0007-.446-.0451-.652-.1345-.205-.0895-.39-.2205-.542-.385s-.269-.3588-.342-.5706-.102-.4365-.084-.6599l6.08-78.63z" fill="#533a71"/><path d="m300.31-57.4399 9 78.94c.044.396.233.7618.53 1.0274.297.2657.682.4126 1.08.4126h.65c.224.0007.446-.0451.652-.1345.205-.0895.39-.2205.542-.385s.269-.3588.342-.5706.102-.4365.084-.6599l-6.08-78.63z" fill="#3d2c56"/><path d="m194.65-57.4399 9 78.94c.044.396.233.7618.53 1.0274.297.2657.682.4126 1.08.4126h.65c.224.0007.446-.0451.652-.1345.205-.0895.39-.2205.542-.385s.269-.3588.342-.5706.102-.4365.084-.6599l-6.13-78.63z" fill="#533a71"/><path d="m253-57.4399-9 78.94c-.044.396-.233.7618-.53 1.0274-.297.2657-.682.4126-1.08.4126h-.65c-.224.0007-.446-.0451-.652-.1345-.205-.0895-.39-.2205-.542-.385s-.269-.3588-.342-.5706-.102-.4365-.084-.6599l6.08-78.63z" fill="#3d2c56"/><path d="m235.32 12.2102c-1.441.0733-2.876.2269-4.3.46 0 0-7.86 4.48-10.88 5.3s-8.23 1.74-9.32 3.75 0 2.54 0 2.54 29.06.62 29.34 0-1-9.68-1-9.68z" fill="#3d2c56"/><path d="m232.2 6.66002-1 6.07998s3 3 4.64 3.35c.95.2292 1.94.2292 2.89 0l3.19-10.56998z" fill="#fb919f"/><path d="m277 11.6902-3.3.93c-2.303 1.6566-4.734 3.1278-7.27 4.4-3.3 1.52-8.37 2.62-9 4.23s-1.1 2.54 0 2.88 24.52 0 24.52 0 1.27 0 1.61-.93-1.24-7.44-1.24-7.44z" fill="#3d2c56"/><path d="m271.6 7.00002 2.06 5.66998s3.13 3.13 5.16 3.13h3.5l-1.73-10.27998z" fill="#c66f7e"/><path d="m256.94-31.5198 11.73 40.36003 13.64-.79001-5.75-37.66002z" fill="#0078fa"/><path d="m313.43-37.7199s-.45 9.25-9.7 10.6-49.5-2.14-49.5-2.14c-.529 4.8383-1.588 9.6037-3.16 14.21-2.37 6.31002-7.78 23.12002-7.78 23.12002h-13.53s4.74-47.92002 8.34-51.30002 13-4.51 13-4.51l15.05-2.14 15.05 1.69z" fill="#1c8ff7"/><path d="m300.75-1.54004h-10.04v11.93004h10.04z" fill="#533a71"/><path d="m300.75-1.54004h-5.02v11.93004h5.02z" fill="#3d2c56"/><path d="m269.17 10.3999h53.45c.693.0024 1.357.2759 1.85.7619.493.4859.777 1.1457.79 1.8381v3.42h-58.74v-3.42c0-.7029.279-1.3769.776-1.8739s1.171-.7761 1.874-.7761z" fill="#3d2c56"/><path d="m268.17 23.1399c2.198 0 3.98-1.7819 3.98-3.98s-1.782-3.98-3.98-3.98-3.98 1.7819-3.98 3.98 1.782 3.98 3.98 3.98z" fill="#3d2c56"/><path d="m268.17 21.1499c1.099 0 1.99-.8909 1.99-1.99 0-1.099-.891-1.99-1.99-1.99s-1.99.891-1.99 1.99c0 1.0991.891 1.99 1.99 1.99z" fill="#fff"/><path d="m323.18 23.1399c2.198 0 3.98-1.7819 3.98-3.98s-1.782-3.98-3.98-3.98-3.98 1.7819-3.98 3.98 1.782 3.98 3.98 3.98z" fill="#3d2c56"/><path d="m323.18 21.1499c1.099 0 1.99-.8909 1.99-1.99 0-1.099-.891-1.99-1.99-1.99s-1.99.891-1.99 1.99c0 1.0991.891 1.99 1.99 1.99z" fill="#fff"/><path d="m295.67 23.1399c2.198 0 3.98-1.7819 3.98-3.98s-1.782-3.98-3.98-3.98-3.98 1.7819-3.98 3.98 1.782 3.98 3.98 3.98z" fill="#3d2c56"/><path d="m295.67 21.1499c1.099 0 1.99-.8909 1.99-1.99 0-1.099-.891-1.99-1.99-1.99s-1.99.891-1.99 1.99c0 1.0991.891 1.99 1.99 1.99z" fill="#fff"/><path d="m327.42 0h-102.17c13.364 13.6732 23.352 30.277 29.17 48.49 8.29 26.47 6.8 55.63-3.09 81.51h98.67v-130z" fill="#5ecccd"/><path d="m179.63 29.93c-3.806-11.2398-10.106-21.47227-18.43-29.93h-161.2v130h141.09c30.78-23.33 50.48-63.71 38.54-100.07z" fill="#dbf3f5"/><path d="m254.42 48.49c-5.818-18.213-15.806-34.8168-29.17-48.49h-64c8.324 8.45773 14.624 18.6902 18.43 29.93 11.94 36.36-7.76 76.74-38.55 100.07h110.21c9.88-25.88 11.37-55 3.08-81.51z" fill="#a0e8e6"/><path d="m330.9 179.42-45.71-6.19v-2.78l-61.06-9.3-6.43 2.08-106.79-16.42c2.29-2.28 7.19-2.47 10.32-1.65s6.12 2.33 9.36 2.59c5.26.43 10.18-2.49 14.43-5.61s8.47-6.65 13.63-7.79c6.72-1.48 13.54 1.39 19.89 4s13.42 5.17 20 3c5.76-1.9 9.87-7.17 12-12.84s2.56-11.78 3.21-17.79 1.59-12.1501 4.55-17.4201l79.7-94.45005h32.9z" fill="#5ecccd"/><path d="m223.57 161.14 64.63 9.9v-168.88009l-64.63 13.11999z" fill="#269b95"/><path d="m217.17 13.49 6.4 1.79-5.69.7-6.5-1.75z" fill="#fff"/><path d="m284.33 4.87988 5.05 2.32-65.81 8.08002-6.4-1.79z" fill="#269b95"/><path d="m296.85-8.28003v11.56l-4.78.61-7.74.99-67.16 8.61003-5.79.74-3.43.44v-9.71003z" fill="#fff"/><path d="m217.17 13.49 6.4 1.79v145.86l-6.4 2.08z" fill="#5ecccd"/><path d="m217.17 13.49v149.73l-5.79-.86v-148.13z" fill="#fff"/><path d="m292.07 3.88989v170.49011l-7.74-1.16v-168.34011z" fill="#fff"/><path d="m284.33 4.87988-12.95 12.72002.29 143.3101 12.66 9.54z" fill="#5ecccd"/><path d="m282.13 166-8.26-6.22-.29-141.2901 8.55-8.39zm-7.38-6.66 6.5 4.89v-152.0001l-6.79 6.67z" fill="#a0e8e6"/><path d="m296.85-6.52002v1.87l-88.9 12.28v-.91z" fill="#a0e8e6"/><path d="m296.85-1.23999v1.88l-88.9 11.38999v-.9z" fill="#a0e8e6"/><path d="m316.7 121.53c-3 1.82 2-4.2 3.45-10.72s-3.83-7.66-6-4.1-.93-7.5901-4.24-12.6101-8.8-2.74-8 2.74c.8 5.4801 2.5 9.6201-.61 7.5901s-3.62 1.52-2.57 6.38 7.64 8.07 4.82 9.26-3.55-2-4.42 2.85 9.75 17.84 10.24 17.74c3.37-.67 9.32-9.26 11-15s-.64-5.95-3.67-4.13zm-11.29-6.27s-6-3.24-5.34-6.28 4.76-1.95 6.52 1.1 1.58 6.52-1.18 5.18zm4.19-11.33c-.16-.35-2.7-5.2301-1.25-6.3601s2.42 8.9601 1.25 6.3601zm1.9 10.5c.14-.47 2.54-7.5 4.86-5.8s-2 10-3.31 9.37-2.42-.67-1.54-3.57zm1.19 18.42c-1-.83-.52-3.47.31-6.62 0-.11 3.62-4.5 4.5-2s-3.82 9.45-4.8 8.62z" fill="#388c77"/><path d="m310.76 133c1.09-15.31-3.55-32.64-3.59-32.82-.021-.046-.057-.082-.102-.103-.045-.022-.097-.026-.145-.013s-.09.043-.118.085c-.028.041-.041.091-.035.141 0 .17 4.67 17.44 3.58 32.68-.406 5.242-1.33 10.431-2.76 15.49l.17.92c1.563-5.342 2.569-10.831 3-16.38z" fill="#388c77"/><path d="m309.18 135.9c-3.93 1.5 2.48-4.71 2.59-7.28s-3.1-1.77-5.42 0 3.74-9.15 1.66-13.36-4.42 2-6.49 4.07-4.76-16.39-9.52-14.9-1.86 11.45 0 14.35-.62 2.38-4-.1-4.55 1.45-3.21 6.52 7.35 7 8.8 9.25-1.76 1.21-4.79-1.38-3.49-1 0 6.19 18.5 7.74 18.5 7.74c7.33-3.12 5.81-12.6 1.88-11.1zm-14.08-23.4s5.08 4.76 3.23 5.93-6.4-6.96-3.23-5.93zm-7.38 10.42c.22 0 12.88 1.61 8.16 5.52s-10.37-5.32-8.16-5.52zm13.66 16.56c-2.48 1.45-8.41-3.24-4.45-3.86 0-.01 6.94 2.38 4.45 3.85zm1.67-16.56s1-7.66 2.12-4.41-2.03 8.68-2.12 4.41z" fill="#54b162"/><path d="m312.93 132.36c2.4-3.4 1.63 3.79 2.78 2.06s2.27-4.8 8.31-8.09 5.38-1.53 5.2.24 6.91-.62 5.29 3.52-7.37 4.57-5 5.74 3.43 4-1.87 5.5-9.58 1-7 2.44-4 6.83-9.66 2c.02.06-.45-10.01 1.95-13.41zm12.37-4.14s-4.88 2.41-3.61 3.74 7.15-4.29 3.61-3.74zm-5.86 10.78c1 1.82 9.35 1.54 6.83-2.11.01 0-7.86.29-6.83 2.11z" fill="#94dd4e"/><path d="m307.76 149.39-.17-.92c-.763-4.703-2.041-9.307-3.81-13.73-4.62-10.38-8.58-13.8-8.75-13.94-.043-.031-.096-.044-.148-.038-.053.007-.101.033-.135.073s-.052.092-.049.145c.002.053.024.103.062.14 0 0 4.06 3.52 8.64 13.79 1.847 4.658 3.165 9.508 3.93 14.46l.16.92c.5 2.91.89 5.75 1.19 8.21.1.85.2 1.66.28 2.41.06.56.12 1.08.16 1.57h.42c-.12-1.17-.27-2.54-.45-4.05-.11-.93-.24-1.91-.38-2.93-.26-1.93-.58-4.01-.95-6.11z" fill="#388c77"/><path d="m273.8 86.29h-.78c-.342 0-.62.2776-.62.62v8.33c0 .3425.278.62.62.62h.78c.342 0 .62-.2775.62-.62v-8.33c0-.3424-.278-.62-.62-.62z" fill="#fff"/><path d="m220.57 120.18s1.17 2.23 2.71 2.34c.47.002.935-.102 1.359-.305.424-.202.797-.498 1.091-.865 0 .05-2.55-7.44-2.58-7.34s-2.58 6.17-2.58 6.17z" fill="#c66f7e"/><path d="m222.16 108.86s-2.82 7-2.82 7.66-.13 4.52.63 5.26 3.89 2.71 3.89 2.29.16-1.65-.64-2.29-1.7-.9-1.62-2.07c.194-.902.666-1.72 1.35-2.34 0 0 0 3.62.64 4.2.358.34.799.578 1.28.69l.5-13.4z" fill="#fb919f"/><path d="m227.42 54.23c-1.544 4.2997-2.552 8.7735-3 13.32-.76 7.65-2.19 21.84-2.88 26.58s-1.45 10.21-1.54 11.87c-.075 1.294.161 2.587.69 3.77.16.05 5.48 0 5.48 0l6.73-54.87z" fill="#e28100"/><path d="m230.64 142.13c.25 2.46.69 5.08-.43 7.28-.505.87-1.179 1.63-1.983 2.235s-1.721 1.041-2.697 1.285c-.35.1-.71.18-1.07.25.06 10.3.2 25.48.2 25.48 2.941.163 5.889.163 8.83 0l1.81-.32s1.28-21.48 1.28-29.77v-10.31l3.51-20.63-7.76 17.54c-1.86 1.64-1.94 4.51-1.69 6.96z" fill="#3d2c56"/><path d="m256.35 111c-.13-4.68 0-6.64 0-6.64s-13.72-8.88-14-8.88-17.65 8.88-17.65 8.88-.24 34.18-.22 43v5.78c.36-.07.72-.15 1.07-.25.976-.243 1.893-.68 2.697-1.285s1.478-1.365 1.983-2.235c1.13-2.2.68-4.82.43-7.28s-.17-5.32 1.68-7l7.76-17.54 5.74 60.71 9.78-.43s.86-62.11.73-66.83z" fill="#533a71"/><path d="m235.12 100.31c2.28-2.0599 2.63-5.4899 2.5-8.5599s-.53-6.3.76-9.09c2.1-4.53 7.94-6.34 10.13-10.83.896-2.1125 1.24-4.418 1-6.7-.246-2.2712-.33-4.557-.25-6.84.078-2.3024 1.063-4.4807 2.74-6.06.69-.5601 1.511-.9348 2.386-1.0888s1.775-.0821 2.614.2088c-.105-.3428-.286-.6574-.53-.92-1.49-1.36-11.94-4.59-11.94-4.59l-7.17.55s-8.85 3.46-10 7.84-.53 12-.53 19.29-2.66 26.5899-2.45 28.7299l.21 2.14.71-.06c1.522-.904 3.19-1.534 4.93-1.86 1.781-.314 3.459-1.055 4.89-2.16z" fill="#ffb942"/><path d="m257.09 51.3601c-.839-.2909-1.739-.3628-2.614-.2088s-1.696.5287-2.386 1.0888c-1.696 1.571-2.699 3.7503-2.79 6.06-.08 2.283.004 4.5688.25 6.84.24 2.282-.104 4.5875-1 6.7-2.19 4.48-8 6.3-10.13 10.83-1.29 2.79-.89 6-.76 9.09s-.22 6.5-2.5 8.5599c-1.41 1.098-3.063 1.842-4.82 2.17-1.74.326-3.408.956-4.93 1.86 3.82-.32 22.17-1.8 26.83-1 5.21.88 3.93 2 5.21.88s-.74-29.6099 0-36.9199c.6-6.31.61-13.31-.36-15.95z" fill="#e28100"/><path d="m242.66 44.89c1.13-.1829 2.231-.5193 3.27-1l-.21-5.92-7.66 5.23v1.67c1.519.2884 3.078.2952 4.6.02z" fill="#c66f7e"/><path d="m245.92 43.8401c-2.435 1.1897-5.195 1.5412-7.85 1v2.16c-.23.3663-.506.7022-.82 1 0 0 .59 2.2 3.65 2.32 1.245.0516 2.475-.2804 3.525-.9511s1.869-1.6477 2.345-2.7989l-.77-.25z" fill="#fb919f"/><path d="m249.67 32.0001c.198.4026.273.855.214 1.3s-.248.8626-.544 1.2c-1 1.49-2.29 1.56-2.65 1.1s-.54-3.7-.54-3.79 1.69-1.73 1.69-1.73h.43l1.24 1z" fill="#fb919f"/><path d="m233.62 24.7901c1.15.4 2 1.64 3.16 1.83 1.79.28 3.22-1.86 5-1.77.944.1446 1.8.6368 2.4 1.3799.598.7389 1.322 1.3654 2.14 1.8501.567.2292 1.178.3293 1.789.2929.61-.0363 1.205-.2081 1.741-.5029.2-.1.39-.22.57-.33.029-.8123-.014-1.6255-.13-2.43-.29-2-.76-4-3.17-3.93-.335.035-.673.0114-1-.07-.72-.27-.95-1.17-1.43-1.78-.355-.3817-.815-.6506-1.321-.7732-.507-.1227-1.039-.0938-1.529.0831-.745.2497-1.525.378-2.31.3801-.52 0-1-.25-1.52-.34-.251-.0643-.513-.0716-.768-.0214-.254.0502-.494.1566-.702.3113-.49.44-.59 1.2801-1.18 1.5501s-1.3-.13-1.77.27-.2 1.16-.35 1.75c-.237.5559-.657 1.0144-1.19 1.3-.271.1407-.504.3453-.678.5962-.174.251-.285.5405-.322.8438v.0999c.081-.0862.168-.1664.26-.24.327-.242.709-.4004 1.112-.4614.402-.061.814-.0227 1.198.1115z" fill="#533a71"/><path d="m249.87 27.8701c-.536.2948-1.131.4667-1.741.503-.611.0363-1.222-.0638-1.789-.293-.818-.4847-1.542-1.1111-2.14-1.85-.6-.7432-1.456-1.2353-2.4-1.38-1.8-.09-3.24 2-5 1.77-1.21-.19-2-1.42-3.16-1.83-.38-.129-.786-.1646-1.183-.1037s-.773.2166-1.097.4537c-.092.0735-.179.1537-.26.24.08.58.61 1 .69 1.64-.018.512-.116 1.0181-.29 1.5-.053.3045-.039.6168.04.9154.08.2986.223.5765.42.8146.195.2351.442.4222.721.547.279.1249.583.184.889.173.021 1.1001-.114 2.1976-.4 3.26l-.18.7s-.38.45-.17 1.95.92 4.91 2.33 6.09 4.8 1 7 .33 3.57-2.63 4.19-5 .38-5.32.73-6.05.88-1.32 1.4-1.22c.276.0478.535.1645.753.3394.219.1748.39.4021.497.6606.282-1.0839.506-2.1821.67-3.29.056-.4011.09-.8051.1-1.21-.23.12-.42.24-.62.34z" fill="#3d2c56"/><path d="m232.87 30.0001s0 6.94.72 8c.34.47-.06-.61.91-.81s6.84-.49 7.45.31.95 1 1.42 1c.473-.1194.909-.352 1.271-.6778.363-.3258.64-.735.809-1.1922.27-1 .4-6.84 0-7.39-.511-.6345-1.166-1.1384-1.91-1.47-.72-.31-.95-.28-2.6.26s-2 .07-2.9-.45c-.444-.2735-.943-.4465-1.461-.5069-.518-.0605-1.044-.0069-1.539.1569-.63.1833-1.284.2709-1.94.26-.112.3967-.166.8077-.16 1.22z" fill="#fb919f"/><path d="m235.58 38.7701 4.93-.12c-.223.5588-.6 1.0431-1.086 1.397-.487.3539-1.064.563-1.664.603-.538.036-1.068-.1411-1.475-.4929-.408-.3519-.662-.8501-.705-1.3871z" fill="#fff"/><path d="m264.48 79.9999c-.957-.2078-1.814-.735-2.431-1.4949s-.957-1.7072-.964-2.6861c-.007-.9788.32-1.9308.926-2.6995.606-.7686 1.456-1.308 2.409-1.5295-.43-.2534-.909-.413-1.406-.4681-.496-.0552-.999-.0047-1.474.1481-.963.3289-1.811.9298-2.44 1.73-.839 1.0045-1.379 2.2239-1.56 3.52.032.0667.056.1373.07.21 0 .43 4.31 14 6.44 14.73s3.78-.15 5.09-2.45c1-1.83.46-3.19-.72-8.13-.483-.2819-1.01-.4782-1.56-.58-.78-.15-1.59-.1-2.38-.3z" fill="#e28100"/><path d="m256.56 50.44c-5.69-.65-7.71 6.61-6.38 10.65 1.24 3.78 6.68 13.81 7.37 15.42.18-1.2915.717-2.5072 1.55-3.51.633-.7802 1.476-1.3631 2.43-1.68.475-.1528.978-.2033 1.474-.1481.497.0551.976.2147 1.406.4681-.953.2215-1.803.7609-2.409 1.5295-.606.7687-.933 1.7207-.926 2.6995.007.9789.347 1.9262.964 2.6861s1.474 1.2871 2.431 1.4949c.79.17 1.6.11 2.4.25.55.1018 1.077.2981 1.56.58-.3-1.25-.63-2.72-1-4.5-1.73-8.82-10.87-25.94-10.87-25.94z" fill="#ffb942"/><path d="m269 86.6001-3.88.5c-.007.9668-.142 1.9284-.4 2.86-.41 1.31-.79 2-.63 3s1.83 1.2 2 2 1 1.12 1.17.63.68-1 .19-1.83 1.55-7.16 1.55-7.16z" fill="#c66f7e"/><path d="m273.41 90h-.41c-1.314.0426-2.602-.3669-3.65-1.16-.406-.3232-.896-.5253-1.412-.5829-.516-.0577-1.038.0314-1.505.257-.468.2255-.862.5785-1.139 1.0182-.276.4397-.422.9485-.422 1.4677s.146 1.0279.422 1.4677c.277.4397.671.7926 1.139 1.0182.467.2256.989.3147 1.505.257.516-.0576 1.006-.2597 1.412-.5829.964-.7663 2.158-1.1856 3.39-1.19h.65z" fill="#fff"/><path d="m265 86.48s.93 6 1.56 6.25.87 0 1-.35c-.146-1.7313-.383-3.4537-.71-5.16 0 0 .27 0 .35.55s.52 4.09 1 4.39c.084.0623.182.1031.285.1188.104.0157.209.0059.308-.0287.098-.0345.187-.0927.258-.1694s.122-.1696.149-.2707c.091-.3459.138-.7021.14-1.06 0 0 .14 1.17.6 1.17 1.047-.2006 2.009-.713 2.76-1.47.46-.71.41-4.26-.44-4.5s-5.4.33-5.4.33c-.092-.1812-.236-.3301-.415-.4271-.178-.0969-.382-.1372-.584-.1155s-.393.1044-.546.2371c-.154.1326-.264.309-.315.5055z" fill="#fb919f"/><path d="m170 96.9999s.24 21.1901-.68 31.7001-4.32 45.87-4.32 45.87h-8.57l-.71-56.75 3.6-22.1701z" fill="#3d2c56"/><path d="m165.68 95.5601-23.86.35c-.915 4.6069-1.228 9.3129-.93 13.9999.53 7.4 5.29 64.71 5.29 64.71h8.82s.8-8.37 1.25-13.09c1-10.17 1.69-20.36 2.71-30.52.49-4.82 1-9.64 1.77-14.42.51-3.33.68-6.73 1.6-10 .699-2.014 1.661-3.927 2.86-5.69.46-.77 1.19-2.9999 2.1-4.5999z" fill="#533a71"/><path d="m162 49.55s1 0 2.59 1.86 11.81 23.2401 11.81 23.2401c.548.2221 1.028.5835 1.392 1.0483.365.4648.602 1.017.688 1.6017.31 2-1.77 5.8399-4.63 5.5099s-6.29-5-6.29-5z" fill="#d65050"/><path d="m141.49 74.3401s2.45 5.67 2.26 9.09-2.26 11.42-2.26 12.57v1.1s14.92 1.36 27.74-.06l-13.32-24.74-9.08-8.68z" fill="#d65050"/><path d="m137.1 61.27s-4.75 16.73-1.23 23.89 10.56 2 10.92-.41-.79-4.29-2.19-4.75 2-13 2-13c-.225 1.9353.038 3.896.765 5.7037.726 1.8077 1.893 3.405 3.395 4.6463.894.6199 1.701 1.3564 2.4 2.19.79 1.3695 1.057 2.979.75 4.53-.307 1.5346-.468 3.095-.48 4.66.097 1.259.516 2.472 1.216 3.5227.7 1.0506 1.659 1.9037 2.784 2.4773 1.737 1.3313 3.819 2.1365 6 2.32 2.332.1814 4.676.1412 7-.12 0 0-3.11-9.24-3.06-15.06s5.14-14.22 3.81-17.9-5.92-8-6.74-9.85c-.275-.7392-.609-1.4548-1-2.14l-1.93-4.19-3.19.52s-15.44 1-16 1-4.7 5-4.7 5z" fill="#ff6b6b"/><path d="m160.39 58.6599c-1.565 1.0021-3.449 1.3804-5.28 1.06-3-.58-8-9.65-8-9.65l10.37-1.9 1.6.21s9.55 13.4 1.31 10.28z" fill="#fff"/><path d="m156.74 24.54 2.28-.85c.675-.3225 1.424-.4605 2.17-.4 1.3.23 2.08 1.6 2.28 2.9s0 2.64.24 3.94c.365 1.3772.899 2.704 1.59 3.95.698 1.2529.945 2.707.7 4.12-.38 1.42-1.57 2.52-1.92 4-.146 1.2419-.082 2.4995.19 3.72.13 1.24-.08 2.69-1.12 3.38l-.74.51c-.868-.6472-1.869-1.0945-2.93-1.31-1.64-.29-5.26-.63-5.26-.63l-2.57 5c.82 1.0878 1.388 2.345 1.66 3.68.341 1.3165.306 2.7022-.1 4l-2.17.24c.087-1.4287-.128-2.8597-.63-4.2-.358-1.0514-.974-1.9967-1.79-2.75.782 1.0431 1.259 2.2822 1.38 3.58v1.93s-.63-5.45-3.57-7.29c-1.527-1.077-3.416-1.5115-5.26-1.21 0 0-3.26 2.15-3.84 8.15-.855-.7338-1.489-1.6915-1.83-2.7655s-.375-2.2218-.1-3.3145c.457-1.1291 1.084-2.1814 1.86-3.12.94-1.43 1.92-3 1.89-4.69 0-2 .55-4 .3-6-.379-1.9427-.473-3.9302-.28-5.9.378-1.7633 1.191-3.4041 2.364-4.7733 1.174-1.3693 2.671-2.4234 4.356-3.0667 3.467-1.2893 7.227-1.5769 10.85-.83z" fill="#3d2c56"/><path d="m157.08 49.3001c.035-.5965.122-1.1888.26-1.77v-2.6l-5.66-2.06.64 3.76z" fill="#c66f7e"/><path d="m160.29 28.6201s1.29.68 1.48 3.12c.019 1.9026.149 3.8025.39 5.69.42 2.48 1 3.35-.23 5.76s-1 3.06-3.22 3.12-6.14-1.93-6.14-1.93 2.19 2.25 3.47 2.7l1.29.45.28 1c.996.4809 1.762 1.3365 2.13 2.38.84 1.93.64 7.72.64 7.72l-8.75-5.79c-.989-1.4781-1.505-3.2219-1.48-5 .06-3 0-4.79 0-4.79l-.15-1.76s-2.64-.87-2.38-3 1.74-2.35 2.57-1.64.8 2.15 1.38 2.32.74.48 1.16-.1-.26-2.32 1.16-2.57 2.83.29 4.54-2.35.1-5.46 1.86-5.33z" fill="#fb919f"/><path d="m149.3 41.97c.414 0 .75-.3358.75-.75s-.336-.75-.75-.75-.75.3358-.75.75.336.75.75.75z" fill="#27d2c7"/><path d="m146.77 80.2299c.143-.0892.294-.1661.45-.23-.82-.18-2.87-.34-2.87-.34s-3.83.59-4.34 4 .75 4.79 1.6 5.15c1.328.1966 2.68.1729 4-.07-.785-1.0935-1.231-2.3945-1.28-3.74-.027-.9361.182-1.8639.609-2.6976.426-.8338 1.056-1.5465 1.831-2.0724z" fill="#fff"/><path d="m149.09 82.9998c-.82-2.37-1.12-2.68-1.61-2.88l-.26-.07c-.156.0639-.307.1408-.45.23-.768.5212-1.393 1.226-1.819 2.0503s-.64 1.742-.621 2.6697c.046 1.332.481 2.6215 1.25 3.71.704-.062 1.394-.2271 2.05-.49.719-.6377 1.24-1.4692 1.499-2.395s.245-1.9066-.039-2.825z" fill="#e6f0fc"/><path d="m143.94 80.01 17.19.61-.35 3.98-17.23 2.24z" fill="#fb919f"/><path d="m167.33 81.87s-.71-1-.48-1.22.91 0 1.16 0c.612.4541 1.181.9629 1.7 1.52z" fill="#fb919f"/><path d="m146.77 80.2299c.143-.0892.294-.1661.45-.23-.82-.18-2.87-.34-2.87-.34s-3.83.59-4.34 4 .75 4.79 1.6 5.15c1.328.1966 2.68.1729 4-.07-.785-1.0935-1.231-2.3945-1.28-3.74-.027-.9361.182-1.8639.609-2.6976.426-.8338 1.056-1.5465 1.831-2.0724z" fill="#fff"/><path d="m176.76 79.27c-.768 1.3907-1.2 2.9423-1.26 4.53 1.21.08 2.73-.06 3.3-1 .632-1.0757 1.095-2.2429 1.37-3.46.19-.82.66-2.84.33-3.83-1.557.9013-2.847 2.1985-3.74 3.76z" fill="#e6f0fc"/><path d="m174.95 76.8399c.15-.11 15.52-5.74 16.31-6.6s1.1-2.8 2.27-3.79 2.13-.9999 2.95-1.4399 1.31-.1801 1.15.4099-1.74 1.38-1.89 1.82 0 .5701.25.5601 4.32-.5901 4.94-.8101 1.51-.74 1.94-.64.37.4901 0 .9101c-.652.4742-1.361.8639-2.11 1.1599 0 0 .5.18.52.42-.509 1.5142-1.18 2.9692-2 4.34-.53.64-6 1.28-6 1.28s-15.5 8.74-16 9-3-.1599-3-.1599-.94-3.1901-1-3.2301 1.67-3.23 1.67-3.23z" fill="#fb919f"/><path d="m200 68.33c-.648.0316-1.288.1562-1.9.37-.575 1.0459-1.031 2.1528-1.36 3.3 0 .45 1.6 1 1.6 1s-2-.08-2.2-.6 1.3-3.72 1.8-3.94c.676-.1482 1.371-.192 2.06-.13z" fill="#c66f7e"/><path d="m180.34 74.8499c-.028-.0981-.068-.1922-.12-.28-.57-.84-3.1-.23-4.09-.4l-.18.14c-1.462 1.1303-2.515 2.7067-3 4.49-.19.68-.91 3.84-.2 4.4.591.2914 1.233.4647 1.89.51.24 0 .53.07.83.09.06-1.5877.492-3.1393 1.26-4.53.91-1.57 2.06-3.52 3.61-4.42z" fill="#fff"/><path d="m165.08 80.21c-.49 0-.26.18-.38.66-.029.1564-.016.3178.039.4673.054.1495.148.2816.271.3827.25.1967.546.3273.86.38.56.12 1.25.42 1.26-.54 0-.78-1.44-1.32-2.05-1.35z" fill="#533a71"/><path d="m170.17 87.33c-.746-1.9002-1.677-3.7224-2.78-5.44l.54-.35c1.127 1.7523 2.078 3.6113 2.84 5.55z" fill="#533a71"/><path d="m163.37 89.6902-9.98.28v1.94l9.98-.28z" fill="#5ecccd"/><path d="m164.73 94.78c-.56-3-1.4-3.27-1.4-3.27l-9.94.39c.794.7098 1.425 1.5832 1.85 2.56.281 1.2229.412 2.4755.39 3.73l9.37.57c.173-1.3315.082-2.6841-.27-3.98z" fill="#fff"/><path d="m153.39 91.9099-.39 2.2c-.236 1.3242-.101 2.6878.39 3.94l2.24.14c.022-1.2545-.109-2.5071-.39-3.73-.426-.9732-1.057-1.8431-1.85-2.55z" fill="#e6f0fc"/><path d="m173.056 84.1943-5.65-.0257c-1.27-.0057-2.304 1.0193-2.31 2.2896l-.072 15.8298c-.006 1.27 1.019 2.305 2.29 2.31l5.65.026c1.27.006 2.304-1.019 2.31-2.289l.072-15.8303c.006-1.2702-1.019-2.3047-2.29-2.3104z" fill="#e57930"/><path d="m173.486 86.4665-6.53-.0296c-.337-.0016-.611.2703-.613.6072l-.003.77c-.002.3369.27.6112.607.6127l6.53.0297c.337.0015.611-.2704.613-.6073l.003-.77c.002-.3368-.27-.6112-.607-.6127z" fill="#fff" opacity=".59"/><path d="m173.462 89.5864-6.53-.0297c-.337-.0015-.611.2704-.613.6072l-.003.77c-.002.3369.27.6113.607.6128l6.53.0296c.337.0016.611-.2703.613-.6072l.003-.77c.002-.3369-.27-.6112-.607-.6127z" fill="#fff" opacity=".38"/><path d="m173.458 92.5561-6.53-.0297c-.337-.0015-.611.2704-.612.6073l-.004.77c-.001.3369.27.6112.607.6127l6.53.0297c.337.0015.612-.2704.613-.6073l.004-.77c.001-.3368-.271-.6112-.608-.6127z" fill="#fff" opacity=".19"/><path d="m168.72 96.52c-2.6 6.37-3.72 11.95-.76 13.16 3.13 1.28 6.07-3.55 8.67-9.93s3.89-11.88.76-13.16c-2.97-1.21-6.07 3.56-8.67 9.93z" fill="#c37134"/><path d="m171.34 94.3501c.152.5565.424 1.0735.795 1.5154s.833.7982 1.355 1.0446c.502.1679 1.037.2119 1.559.1283s1.017-.2923 1.441-.6083c-1.823-.2189-3.552-.9312-5-2.06" fill="#f59052"/><path d="m169.74 98.46c.161.5548.44 1.0682.818 1.505.378.437.846.786 1.372 1.025.506.161 1.043.197 1.565.104.523-.092 1.015-.31 1.435-.634-1.845-.187-3.603-.8792-5.08-2" fill="#f59052"/><path d="m168.25 102.63c.129.474.36.914.676 1.291.316.376.71.68 1.154.889.425.141.878.177 1.32.105.442-.071.861-.248 1.22-.515-1.568-.181-3.055-.79-4.3-1.76" fill="#f59052"/><path d="m173.16 90.6799c.13.475.363.9159.68 1.2923.318.3765.714.6793 1.16.8877.425.1406.878.1767 1.32.1053s.861-.2481 1.22-.5153c-1.568-.181-3.055-.7899-4.3-1.76" fill="#f59052"/><path d="m157.5 92.74c-.23-1.553-.918-3.0019-1.976-4.1616-1.059-1.1597-2.439-1.9774-3.964-2.3484 1.333 2.7805 3.336 5.186 5.83 7" fill="#6ea652"/><path d="m158.5 93.0801c.541-1.7297.601-3.5738.175-5.3351-.427-1.7614-1.323-3.3738-2.595-4.6649-.077 3.2761.427 6.54 1.49 9.64" fill="#6ea652"/><path d="m158.48 92.35c.716-.6672 1.225-1.5264 1.466-2.4751.242-.9486.205-1.9467-.106-2.8749-1.59 1.6125-2.552 3.7407-2.71 6" fill="#83ba63"/><path d="m158 93.2101c.086-1.2973-.141-2.5962-.663-3.7869-.523-1.1907-1.324-2.2379-2.337-3.0531-.187 2.3333.529 4.6495 2 6.47" fill="#83ba63"/><path d="m157.61 92.6599c.144-.1753.324-.3175.528-.417s.427-.1539.653-.1596c.227-.0057.452.0375.661.1266.208.0892.395.2222.548.39.605.7359.956 1.6481 1 2.6.54 4.19.78 8.4201 1 12.6401-.43.16-.8-.32-1-.73-1.962-3.976-3.575-8.1148-4.82-12.3701-.157-.4005-.199-.837-.12-1.26.024-.1061.07-.2061.134-.2942.064-.088.145-.1623.239-.2183.093-.056.197-.0926.304-.1076.108-.0151.218-.0082.323.0201" fill="#ff9b4b"/><g fill="#e0853d"><path d="m157.45 93.52-1.27.35c-.182.0504-.336.1709-.429.335s-.116.3583-.066.54.171.3359.335.4287c.164.0929.358.1167.54.0663l1.27-.35c.09-.025.174-.0674.248-.1249.073-.0574.135-.1288.181-.2101.046-.0812.075-.1707.087-.2634.011-.0927.004-.1866-.021-.2766s-.067-.1741-.125-.2477c-.057-.0735-.129-.1351-.21-.181-.081-.046-.171-.0755-.263-.0869-.093-.0113-.187-.0044-.277.0206z"/><path d="m160.47 94.6499-1.17.35c-.09.0249-.174.0674-.248.1248-.073.0575-.135.1289-.181.2102-.046.0812-.075.1707-.087.2634-.011.0926-.004.1866.021.2766.025.0899.067.1741.125.2477.057.0735.129.135.21.181s.171.0755.263.0869c.093.0113.187.0043.277-.0206l1.17-.34c.09-.025.174-.0674.248-.1249.073-.0574.135-.1288.181-.2101.046-.0812.075-.1707.087-.2634.011-.0927.004-.1867-.021-.2766-.025-.09-.067-.1741-.125-.2477-.057-.0735-.129-.1351-.21-.181-.081-.046-.171-.0755-.263-.0869-.093-.0113-.187-.0044-.277.0206z"/><path d="m158.07 96.9099c-.302.0761-.599.1696-.89.28-.85.32-.48 1.69.38 1.37.291-.1104.588-.2039.89-.28.182-.0504.336-.1709.429-.335s.116-.3583.066-.54-.171-.3359-.335-.4287c-.164-.0929-.358-.1167-.54-.0663z"/><path d="m161 98.1699-.88.29c-.86.29-.49 1.6601.38 1.37l.88-.29c.86-.28.49-1.66-.38-1.37z"/><path d="m159.17 100.75-.62.11c-.9.16-.52 1.53.38 1.37l.62-.11c.9-.16.52-1.53-.38-1.37z"/><path d="m161.27 101.87c-.21.076-.428.13-.65.16-.18.051-.333.171-.427.334-.093.162-.119.354-.073.536.054.179.174.33.335.423.162.093.354.121.535.077.222-.03.44-.084.65-.16.86-.3.49-1.68-.38-1.37z"/><path d="m158.29 91.45c-.476.3331-1.039.5207-1.62.54-.91 0-.92 1.45 0 1.42.831-.0189 1.64-.2757 2.33-.74.75-.51 0-1.74-.72-1.23z"/></g><path d="m177.96 122.86h-27.71l.9-25.7799h26.81z" fill="#f7bf74"/><path d="m178.85 122.86h-6.58l.89-25.7799h4.8z" fill="#a3785a"/><path d="m159.45 81.13 1.68-.51s3.11-1.43 3.9-1.68.59.34 2.13.83 1.36.78.94 1c-.544.2549-1.161.3081-1.74.15-.49-.19-.78-.14-1 .12s.09.44.09.44 2 .07 3 .2 1.61.51 1.62 1.09-.81.82-.81.82-3.21 3.21-4.55 3.15-4.91-2-4.91-2z" fill="#fb919f"/><path d="m167.13 81.57h.74l-1.02-.56z" fill="#c66f7e"/><path d="m169.23 83.5901-2.57.38 2.1.07z" fill="#c66f7e"/><path d="m157 98.35-.61-.19c1.567-4.8823 3.517-9.6336 5.83-14.21.314-.7276.739-1.4022 1.26-2 .62-.6316 1.433-1.0396 2.31-1.16v.64c-.696.136-1.332.4856-1.82 1-.471.5394-.858 1.1461-1.15 1.8-2.307 4.5467-4.253 9.268-5.82 14.12z" fill="#533a71"/><path d="m165.14 98.4701h-.64l.68-14.47c.05-1.12.24-2.35 1.2-2.92l.47.44c-.345.3162-.614.7061-.787 1.1407s-.246.9026-.213 1.3693z" fill="#533a71"/><path d="m156.91 99.2c.403 0 .73-.3268.73-.73s-.327-.73-.73-.73-.73.3268-.73.73.327.73.73.73z" fill="#a3785a"/><path d="m164.91 99.19c.403 0 .73-.3269.73-.73 0-.4032-.327-.73-.73-.73s-.73.3268-.73.73c0 .4031.327.73.73.73z" fill="#a3785a"/></g></svg>