<svg fill="none" height="130" viewBox="0 0 350 130" width="350" xmlns="http://www.w3.org/2000/svg" xmlns:xlink="http://www.w3.org/1999/xlink"><clipPath id="a"><path d="m0 0h350v130h-350z"/></clipPath><g clip-path="url(#a)"><path d="m316.49 22.3c0 .1-.58 6.38-.58 6.38s0 .81-2.67.81-2.35-.35-3.45-.35-3.48.9-6.44.81-5.19-.61-5.12-1.82.26-1.76 3.35-2.76 6.43-2 6.77-2.93l.34-.93z" fill="#3d2c56"/><path d="m298.31 21c0 .1-.58 6.38-.58 6.38s0 .81-2.67.81-2.35-.35-3.45-.35-3.48.9-6.44.81-5.17-.65-5.17-1.81.26-1.76 3.35-2.76 6.43-2 6.77-2.93l.34-.93z" fill="#3d2c56"/><path d="m300.05-63.79s-8.59 35.56-9.36 43.16-2.17 41.63-2.17 41.63l10.56 1s2.92-27.14004 4.92-33.87c2-6.73 5.4-22.69 5.4-22.69l-8-27.55z" fill="#0078fa"/><path d="m327.71-103.32s1.36 3.07 0 16.85-2.9 20.88-2.9 25.45.78 14.36 0 20.8-4.5 27.57-4.88 30c-.38 2.43003-3 33.68-3 33.68l-10.13-1s-1.57-60.94-3.12-66-2.64-7.73-3.61-11.34 1.6-30.15 2.18-34.4l.58-4.25 7.17-15.61 8.13-5.08 6.14 3.24 2.73 3.98z" fill="#1c8ff7"/><path d="m206.51 20s2.13 2.8 4.64 3.38 8.31-.68 9.28.67c.177.2756.295.5849.348.9083.052.3235.036.6543-.045.9716-.082.3172-.228.6143-.43.8724s-.455.4718-.743.6277c-.87.39-13.72 3-16.81 2.91l-3.09-.1-1-7.8z" fill="#3d2c56"/><path d="m160.22 19.0001s-.68 1.16.68 3.77 5.91 3.67 6.05 5.31-1.31 2-4 2.23-6.76 0-8.89-1.93-3.77-1.87-4.74-3.69-.87-3.07-.58-3.17 4.64-6.67 4.64-6.67z" fill="#3d2c56"/><path d="m182.2-31.4599s-1.8 12.67-4.37 18.8-15.06 33.17-15.06 33.17-5 .79-8.25-1.3-2.84-3.21-2.84-3.21 11.69-33.82 12.92-39.31-.84-20.65 0-25.85c.437-2.4789.744-4.979.92-7.49z" fill="#0078fa"/><path d="m169-108.88 2.3-1 9.13 3.31 5.86 13.2701s1 32.34 1.44 36.4 11 26.86 14.12 34.59 6.59 42.32 6.59 42.32l-10.44 3.34-11-42.13s-14.73-18.55-18.79-24.92c-3.55-5.57-2.82-8.34-2.71-13 1.105-.4473 2.071-1.1819 2.797-2.1278.727-.9459 1.187-2.0687 1.333-3.2522.32-3.06-1.53-6-1.38-9.07.14-2.89 2-5.39 4.07-7.43s4.38-3.87 5.86-6.36c1.123-1.9554 1.669-4.1888 1.575-6.4416s-.824-4.433-2.105-6.2884c-1.339-1.8138-3.165-3.2111-5.266-4.0301-2.1-.82-4.39-1.028-6.604-.6-.413.09-.82.203-1.22.34.27-.81.51-1.49.69-2 .79-1.944 2.084-3.643 3.75-4.92z" fill="#1c8ff7"/><path d="m349.85 62.8901v-62.8300414h-302.85c43.34 24.8400414 92 40.9400414 141.22 50.2300414 53.2 10.06 107.41 12.71 161.63 12.6z" fill="#58afff"/><path d="m.150024 27.6899v102.2501h152.849976c-56.9672-24.093-108.8373-58.7918-152.849976-102.2501z" fill="#e5f1ff"/><path d="m349.85 62.8901c-54.22.06-108.43-2.54-161.63-12.6-49.22-9.29-97.88-25.39-141.22-50.2300414h-46.849976v27.6300414c44.012676 43.4582 95.882776 78.1569 152.849976 102.2499h196.85z" fill="#c9e3fc"/><path d="m327.16 43.1301h-2.81v129.9699h2.81z" fill="#fff"/><path d="m346.09 45.6701c-1.1.719-2.278 1.3127-3.51 1.77l-1.11.4-.19.06c-2.242.7144-4.545 1.2199-6.88 1.51h-.33l-.85.1c-2.309.2436-4.629.3637-6.95.36h-1.35c-1.93 0-3.69-.13-5.29-.29l-1.23-.13h-.11c-2.492-.2849-4.95-.8107-7.34-1.57-.52-.17-1-.35-1.44-.52-1.182-.4498-2.312-1.0265-3.37-1.72-.212-.1433-.389-.333-.517-.5548-.129-.2217-.205-.4697-.223-.7252-.019-.2485.019-.498.11-.73.52-1.33 1.59-3.93 3.66-8.53 2.77-6.13 5-17.41 5.69-21.33.072-.3902.279-.7427.584-.9966s.689-.393 1.086-.3934h19.2c.397.0004.781.1395 1.086.3934s.512.6064.584.9966c.72 3.92 2.92 15.2 5.69 21.33 2.07 4.6 3.14 7.2 3.66 8.53.143.3639.155.7661.035 1.1381s-.366.6907-.695.9019z" fill="#e5f1ff"/><path d="m318.37 49.7802c.055.548-.005 1.1016-.176 1.625-.172.5234-.452 1.0049-.821 1.4135-.37.4087-.821.7353-1.324.9589-.503.2235-1.048.339-1.599.339s-1.096-.1155-1.599-.339c-.503-.2236-.954-.5502-1.324-.9589-.369-.4086-.649-.8901-.821-1.4135-.171-.5234-.231-1.077-.176-1.625.073-.6347.207-1.2609.4-1.87-.52 1.28-2.2 4.69-4.56 3.36-3-1.7-1-6.86-1-6.86.018.2554.094.5034.223.7252.128.2217.305.4114.517.5548 1.496.964 3.118 1.7177 4.82 2.24 2.419.7671 4.908 1.2963 7.43 1.58.01.07.01.17.01.27z" fill="#c9e3fc"/><path d="m326.21 49.9202c.028.5383-.056 1.0764-.245 1.5811-.189.5046-.48.965-.855 1.3524s-.825.6936-1.323.8995c-.498.206-1.033.3073-1.572.2977-.539-.0097-1.07-.13-1.56-.3536-.491-.2236-.93-.5457-1.29-.9462-.361-.4006-.635-.871-.807-1.3821-.171-.5111-.235-1.0519-.188-1.5888 0-.1 0-.2 0-.29 2.562.2985 5.14.4421 7.72.43z" fill="#c9e3fc"/><path d="m334.05 49.7802c.047.5369-.017 1.0777-.188 1.5888-.172.5111-.446.9815-.806 1.382-.361.4006-.8.7226-1.291.9462-.49.2237-1.021.344-1.56.3536-.539.0097-1.074-.0917-1.572-.2976-.498-.206-.948-.5122-1.323-.8996s-.666-.8477-.855-1.3523c-.189-.5047-.273-1.0429-.245-1.5811 2.617.0077 5.232-.146 7.83-.46.01.11.01.21.01.32z" fill="#c9e3fc"/><path d="m347.52 49.7802c-.92 2.05-3.66 3.24-6-1.84.253.5803.382 1.2069.38 1.84.055.548-.005 1.1016-.176 1.625-.172.5234-.452 1.0049-.821 1.4135-.37.4087-.821.7353-1.324.9589-.503.2235-1.048.339-1.599.339s-1.096-.1155-1.599-.339c-.503-.2236-.954-.5502-1.324-.9589-.369-.4086-.649-.8901-.821-1.4135-.171-.5234-.231-1.077-.176-1.625 0-.11 0-.22 0-.33 2.514-.2941 4.993-.8368 7.4-1.62 1.63-.5141 3.184-1.2439 4.62-2.17.317-.2124.552-.5255.668-.8886.117-.3631.107-.7548-.028-1.1114.16.34 1.68 4.16.8 6.12z" fill="#c9e3fc"/><path d="m315.07 34.6901c-2.44 7.73-4.15 13.21-4.15 13.21-.52-.17-1-.35-1.44-.52.53-.5835 1.011-1.2089 1.44-1.87 3-4.57 6.49-27 6.69-28.12s-.1 9.61-2.54 17.3z" fill="#c9e3fc"/><path d="m321.83 21.2001c-.15 1.59-2 18.56-2.22 28.42l-1.23-.13h-.11c1.25-9.61 3.73-30.07 3.56-28.29z" fill="#c9e3fc"/><path d="m326.25 49.9202h-1.35c.48-10.49 1.09-28.6 1.19-31.76-.09 3.2-.4 21.49.16 31.76z" fill="#c9e3fc"/><path d="m331.29 23.3602c.36.93 1 16 3.11 26.05h-.33l-.85.1c-.97-10.63-2.28-27.06-1.93-26.15z" fill="#c9e3fc"/><path d="m342.58 47.4402-1.11.4-.19.06c-3.33-13-7.89-31.11-6.6-28.76 1.08 1.98 4.07 18.61 7.9 28.3z" fill="#c9e3fc"/><path d="m165.69 32.4002s-2.94-4.79-1.59-8 4-2.86 3.71-1.44-.47 2.21 1.37.05 5.2-3.26 4.94-1.95-2.84 2.05-.21 1.89 5.94.26 4.15 2.63-4.47 3-3.1 3.47.79 1.42-.74 2-6.31-.63-4.94.26-1.28 2.35-3.59 1.09z" fill="#fff"/><path d="m163.59 30.5702s-8.61.88-9.45-2.06 4.68-1.21 3.26-2.26-5.31-1.63-5.84-3 1.05-1.95 1.89-1.58-.58-1.73-1.05-3.21.47-3.36 1.95-2.58 3.36 4.57 3.68 3.73 1.1-3 2-3 1.95 1.52 2.16 3.21.66 5.89 1.41 5.2 1.38-2.52 2-.95-.75 5.93-2.01 6.5z" fill="#c9e3fc"/><path d="m216.15 42.5503h-67.35c-.652 0-1.18.5283-1.18 1.18v1.21c0 .6517.528 1.18 1.18 1.18h67.35c.652 0 1.18-.5283 1.18-1.18v-1.21c0-.6517-.528-1.18-1.18-1.18z" fill="#fff"/><path d="m152.09 46.1201 4.54 3.27c.094.0682.205.1091.321.1182s.232-.0141.335-.0669c.104-.0527.191-.1331.251-.2322.061-.099.093-.2129.093-.3291v-2.76z" fill="#c9e3fc"/><path d="m212 46.1201-4.54 3.27c-.094.0682-.205.1091-.321.1182s-.232-.0141-.335-.0669c-.104-.0527-.191-.1331-.251-.2322-.061-.099-.093-.2129-.093-.3291v-2.76z" fill="#c9e3fc"/><path d="m165.71 34.0003h-.86v-.12c-.508-1.7758-1.226-3.4846-2.14-5.09-1.64-3-5.54-4.88-5.58-4.9-.022-.0068-.041-.018-.058-.033s-.031-.0334-.04-.054-.014-.043-.014-.0656.005-.0449.014-.0655.023-.039.04-.0541c.016-.015.036-.0263.058-.0331.021-.0068.044-.0089.067-.0063.022.0027.044.01.063.0216.16.08 4 1.92 5.72 5 .895 1.5828 1.613 3.2596 2.14 5h.45c-.052-1.3127.27-2.6131.928-3.7498.659-1.1367 1.627-2.0627 2.792-2.6702 4.11-2.16 5.53-1.71 5.59-1.69.023.0039.044.0126.063.0256.02.013.036.03.047.0498.012.0198.02.0419.022.0649.003.0229 0 .0461-.007.068s-.019.042-.035.0588c-.016.0169-.035.0301-.056.0388-.022.0087-.045.0127-.068.0117s-.045-.007-.066-.0176c0 0-1.39-.4-5.34 1.67-1.132.5947-2.068 1.5037-2.696 2.6177-.628 1.1141-.921 2.3858-.844 3.6623v.17z" fill="#58afff"/><path d="m199.49 38.1702h-15.89c-.795 0-1.44.6447-1.44 1.44v1.5c0 .7953.645 1.44 1.44 1.44h15.89c.795 0 1.44-.6447 1.44-1.44v-1.5c0-.7953-.645-1.44-1.44-1.44z" fill="#c9e3fc"/><path d="m213.658 38.7561-11.236-11.2359c-.562-.5624-1.474-.5624-2.036 0l-1.061 1.0606c-.562.5624-.562 1.4742 0 2.0365l11.236 11.2359c.562.5624 1.474.5624 2.036 0l1.061-1.0606c.562-.5624.562-1.4741 0-2.0365z" fill="#fff"/><path d="m195.55 33.7903h-11.95c-.795 0-1.44.6447-1.44 1.44v1.5c0 .7953.645 1.44 1.44 1.44h11.95c.795 0 1.44-.6447 1.44-1.44v-1.5c0-.7953-.645-1.44-1.44-1.44z" fill="#fff"/><path d="m197.6 29.4202h-14c-.795 0-1.44.6447-1.44 1.44v1.5c0 .7953.645 1.44 1.44 1.44h14c.795 0 1.44-.6447 1.44-1.44v-1.5c0-.7953-.645-1.44-1.44-1.44z" fill="#c9e3fc"/><path d="m172 42.5503h-11.7c-1.162 0-2.276-.4615-3.097-1.2829-.822-.8214-1.283-1.9355-1.283-3.0971 0-1.1617.461-2.2757 1.283-3.0971.821-.8215 1.935-1.2829 3.097-1.2829h11.7c1.162 0 2.276.4614 3.097 1.2829.822.8214 1.283 1.9354 1.283 3.0971 0 1.1616-.461 2.2757-1.283 3.0971-.821.8214-1.935 1.2829-3.097 1.2829z" fill="#fff"/><path d="m150.31 102.42c-.063.072-.099.164-.1.26v53.61h21v-48.71c-.01-9.1299-11.66-15.5799-20.9-5.16z" fill="#58afff"/><path d="m159.26 98.79c-5 0-9.06 4.56-9.06 10.19v44.7c-.036.653.188 1.294.623 1.783.434.488 1.044.786 1.697.827h13.48c.653-.041 1.263-.339 1.697-.827.435-.489.659-1.13.623-1.783v-44.68c0-5.65-4.06-10.21-9.06-10.21z" fill="#1c8ff7"/><path d="m181.47 68.9102h122c2.724 0 5.336 1.082 7.262 3.008s3.008 4.5382 3.008 7.262v43.8198c0 1.496-.594 2.931-1.652 3.988-1.058 1.058-2.492 1.652-3.988 1.652h-131.26c-1.496 0-2.93-.594-3.988-1.652-1.058-1.057-1.652-2.492-1.652-3.988v-43.8198c0-1.3487.266-2.6842.782-3.9302s1.272-2.3782 2.226-3.3318c.954-.9537 2.086-1.7102 3.332-2.2263s2.581-.7817 3.93-.7817z" fill="#1c8ff7"/><path d="m324.24 128.66h-159.32v27.63h159.32z" fill="#1c8ff7"/><path d="m313.74 120.59h-142.54v8.07h142.54z" fill="#58afff"/><path d="m313.84 102.42c-.063.072-.099.164-.1.26v53.61h21v-48.71c-.01-9.1299-11.66-15.5799-20.9-5.16z" fill="#58afff"/><path d="m322.8 98.79c-5 0-9.06 4.56-9.06 10.19v44.7c-.036.653.188 1.294.623 1.783.434.488 1.044.786 1.697.827h13.47c.653-.041 1.263-.339 1.697-.827.435-.489.659-1.13.623-1.783v-44.68c0-5.65-4.05-10.21-9.05-10.21z" fill="#1c8ff7"/><path d="m125.19 17.96h-22.57c-1.491 0-2.7 1.2088-2.7 2.7v30.69c0 1.4911 1.209 2.7 2.7 2.7h22.57c1.491 0 2.7-1.2089 2.7-2.7v-30.69c0-1.4912-1.209-2.7-2.7-2.7z" fill="#e5f1ff"/><path d="m123.59 21.53h-19.38c-.845 0-1.53.685-1.53 1.53v25.9c0 .845.685 1.53 1.53 1.53h19.38c.845 0 1.53-.685 1.53-1.53v-25.9c0-.845-.685-1.53-1.53-1.53z" fill="#58afff"/><path d="m115.61 29.55h-3.42c-1.817 0-3.29 1.473-3.29 3.29v6.33c0 1.8171 1.473 3.29 3.29 3.29h3.42c1.817 0 3.29-1.4729 3.29-3.29v-6.33c0-1.817-1.473-3.29-3.29-3.29z" fill="#c9e3fc"/><path d="m126.18 18.1199-11.55-8.95c-.209-.16217-.466-.25021-.73-.25021s-.521.08804-.73.25021l-11.54 8.95-.24-.31 11.54-8.95c.279-.2165.622-.33402.975-.33402s.696.11752.975.33402l11.54 8.95z" fill="#e5f1ff"/><path d="m113.9 9.69001c.74 0 1.34-.59994 1.34-1.34s-.6-1.34-1.34-1.34-1.34.59994-1.34 1.34.6 1.34 1.34 1.34z" fill="#c9e3fc"/><path d="m261.02 45.3801c11.062 0 20.03-8.9678 20.03-20.03 0-11.0623-8.968-20.03003-20.03-20.03003s-20.03 8.96773-20.03 20.03003c0 11.0622 8.968 20.03 20.03 20.03z" fill="#fff"/><path d="m261.02 40.94c8.61 0 15.59-6.9799 15.59-15.59s-6.98-15.58999-15.59-15.58999-15.59 6.97989-15.59 15.58999 6.98 15.59 15.59 15.59z" fill="#58afff"/><path d="m268.07 32.87c-.063.0002-.126-.0121-.184-.0361s-.111-.0593-.156-.1039l-6.42-6.42c-.245-.2439-.439-.5338-.571-.8531-.132-.3192-.2-.6614-.199-1.0069v-9.17c0-.1326.053-.2598.146-.3535.094-.0938.221-.1465.354-.1465s.26.0527.354.1465c.093.0937.146.2209.146.3535v9.17c-.001.2209.042.4399.126.6441.084.2043.208.3898.364.5459l6.42 6.42c.067.0672.113.1528.132.2461.019.0932.009.1899-.027.2778-.037.0878-.099.1629-.178.2156s-.172.0808-.267.0805z" fill="#c9e3fc"/><path d="m260.79 27.1501c1.182 0 2.14-.9581 2.14-2.14s-.958-2.14-2.14-2.14-2.14.9581-2.14 2.14.958 2.14 2.14 2.14z" fill="#c9e3fc"/><path d="m217.67 36.2401s.5-5.22-5-8.7-15 2.05-15 2.05-5.81.86-8 6.31 1.21 12.12.61 13.84-7.87 4.73-7.82 7.52 5 6.68 5 6.68l11.1 3.52z" fill="#533a71"/><path d="m205.24 34.6701s5.66-5.78 10.12-2.35 1.77 11.22 1.32 14 4.37 8.89 2.88 13.75-3.65 4.81-3.65 4.81l-8.83-3.27-4.61-7.9z" fill="#3d2c56"/><path d="m196.33 61.3c2.614-.4459 5.293-.3334 7.86.33l4.18.25s5.22 4.68 6 8.61 2.14 14.2 2.24 15-.45 26.15-.45 26.15l-18.44 1.76s-3.34-38.61-3.34-38.94 1.95-13.16 1.95-13.16z" fill="#e6f0fc"/><path d="m223.85 79.69.16.45 1.75 5.07-7.52 3.43 1.92 16.14.92 5.18-3.6-1.08-2.25-4.02 1.44-22.16-1.44-12.2 4.06 2.17 4.21 7.11z" fill="#d65050"/><path d="m208.37 61.8801s1.8 1.51 3.79 6.77 2.82 13.06 2.9 16-.21 15.8899-.65 19.5699.78 6.69 1.38 7.27 5.69.07 6.88.24l1.18.17c-.319-.744-.809-1.401-1.43-1.92-1.17-1.09-3.6-1.17-4.43-1.84s-1.21-2.34-1.32-3.93l-.11-1.59c.126.473.379.901.731 1.24.353.339.792.574 1.269.68l1.59.25s.26-15.2999-.29-18.3499c-.886-3.5788-1.954-7.1101-3.2-10.58 0 0-.81-2.42-.88-2.84s2.19-.5 2.69 1.25 1 4.18 2.77 4.85c.813.3737 1.695.5746 2.59.59 0 0-4.15-13.8-7.18-15.55s-8.28-2.28-8.28-2.28z" fill="#ff6b6b"/><path d="m198.78 92.85s1.06 16.89.5 19.9-4.29 4-5.3 4.52-6.58 4.42-7 5.74c-.214 1.049-.214 2.131 0 3.18 0 0-3.18.22-2.62-6.14s1.39-9.25 1.06-14.21-.42-28.84-.42-28.84l4-3.29 4.51 1.23 4.91 11.33z" fill="#d65050"/><path d="m192.14 105.24c.87-1.24 2.22-2 3.26-3.15.512-.535.904-1.172 1.15-1.87l-4.31 2.28-6.77 4.43s1.27 3.18 4.27 3.93c.704.167 1.431.214 2.15.14-.294-.506-.504-1.056-.62-1.63-.137-.712-.131-1.444.018-2.153.15-.709.439-1.381.852-1.977z" fill="#c66f7e"/><path d="m215 178.61c-.93-1.81-2.33-5.29-3-6.24s-.14-2.25 0-3c.06-.29 1.12-2.64 2.58-5.69l.15-.3.17-.35c2.22-4.45 8.35-11.49 13.18-18.28 1-1.36 1.89-2.71 2.71-4 1.486-2.359 2.799-4.822 3.93-7.37 1.235-1.486 1.985-3.315 2.15-5.24.015-.258-.002-.516-.05-.77 0-.17.06-.26.06-.26h-.1c-1.22-4.69-12.85-6.51-16.2-4.33-3.58 2.32 1.39 6.89 1.29 8.52-.147.786-.472 1.529-.95 2.17-1.07 1.71-2.91 4.15-4.91 7.88-2.718 5.159-4.736 10.657-6 16.35-.825 3.735-2.416 7.259-4.67 10.35-1.34 1.63 10.58 12.36 9.66 10.56z" fill="#fb919f"/><path d="m221.88 131.35c-.147.787-.472 1.529-.95 2.17 2.89.95 5.74 2.45 6.46 4.81.522 2.109.758 4.278.7 6.45 1-1.36 1.89-2.71 2.71-4 1.486-2.359 2.799-4.822 3.93-7.37 1.235-1.486 1.985-3.315 2.15-5.24.015-.258-.002-.516-.05-.77 0-.17.06-.26.06-.26h-.1c-1.22-4.69-12.85-6.51-16.2-4.33-3.59 2.34 1.41 6.91 1.29 8.54z" fill="#c66f7e"/><path d="m230.81 113.76s9 .95 10.27 1.91 1.6 8.69 1.51 10.86 1 10.46.94 13.29 0 20.64 1.41 27 1.7 8.48 3.58 9.61 3.23 1.53 4.36 2.28-11.59.2-11-2-.66-3.32-.76-4.13-6.1-17.49-8.08-25.68-2.54-15.17-2.83-16.11-5.47-1.41-5.47-1.41z" fill="#fb919f"/><path d="m211.94 116.37s1 2.23 8.36 3.68 13.27 1.45 15.27 5.46c1.137 2.307 1.996 4.741 2.56 7.25 1.39-.3 2.7-.63 3.78-.93s.47-2.53.47-2.53-.33-6-1.23-8.81-6.69-4.13-6.69-4.13 5.35.56 7.45 3.68 1.14 8.36 1.58 9.37c.127.242.309.452.531.611.222.16.479.266.749.309l.56-3.65s.87-8.16-4.25-11-20.18-3.81-21.69-4.63c-.095.933-.317 1.848-.66 2.72-.98 2.58-6.79 2.6-6.79 2.6z" fill="#533a71"/><path d="m218.88 138.34c1.87-.69 5.18-1.91 8.46-3-.07-1.29-1.59-2-1.87-2.13l1.51.65c.591.252 1.112.643 1.52 1.14 2.039-.682 4.124-1.217 6.24-1.6.89-.13 1.8-.29 2.68-.47-.438-2.494-1.33-4.887-2.63-7.06-3-5.49-13.27-4.46-17.5-5.23s-8-4.36-8-4.36l-5.35.22c.405.817.931 1.569 1.56 2.23 1.234 1.233 2.773 2.117 4.46 2.56l-2.56-.66c-2.56-.66-3.68-3.25-5.68-3.58s-5.58 1-5.58 1 1.78 4.35 5.13 6.39 6.91.52 11.93 1.75c2.859.651 5.529 1.955 7.8 3.81l-5-1.9c-4.1-1.56-7.83-.78-14.29-2.45s-6.81-6.47-7.59-6.91-3.79 1.34-4.24 1.91-.33 3.33 1.78 5.45 11.15 4.79 11.15 4.79c-2.884-.542-5.717-1.325-8.47-2.34-5.46-1.9-5.8-4.91-5.8-4.91-.539.466-1.174.808-1.86 1 .34 2.53 1.76 5.63 6.16 7.61 4.817 2.031 9.789 3.67 14.87 4.9 3.3.25 6.57.37 8.29.57.983.083 1.95.291 2.88.62z" fill="#533a71"/><path d="m243.49 129.42c-.45-1 .51-6.24-1.58-9.37s-7.45-3.68-7.45-3.68 5.8 1.34 6.69 4.13 1.23 8.81 1.23 8.81.46 2.29-.47 2.53c1.65-.45 2.75-.8 2.75-.8l.11-.7c-.27-.043-.526-.149-.749-.309-.222-.16-.404-.369-.531-.611z" fill="#3d2c56"/><path d="m194.32 128.53c2.753 1.015 5.586 1.798 8.47 2.34 0 0-9-2.68-11.15-4.79s-2.23-4.88-1.78-5.45 3.46-2.35 4.24-1.91 1.13 5.24 7.59 6.91 10.19.89 14.29 2.45l5 1.9c-2.273-1.848-4.943-3.145-7.8-3.79-5-1.23-8.58.29-11.93-1.75s-5.13-6.39-5.13-6.39 3.59-1.34 5.58-1 3.11 2.92 5.68 3.58l2.56.66c-1.687-.443-3.226-1.327-4.46-2.56-.629-.661-1.155-1.413-1.56-2.23l5.35-.22s3.79 3.59 8 4.36 14.52-.26 17.5 5.23c1.3 2.173 2.192 4.566 2.63 7.06l.71-.15c-.564-2.509-1.423-4.943-2.56-7.25-2-4-7.92-4-15.27-5.46s-8.36-3.68-8.36-3.68 5.81 0 6.8-2.62c.343-.872.565-1.787.66-2.72l-.1-.07c-.563-.544-1.284-.894-2.06-1 0 0-20.24.84-24.58 4.52s-5.69 5.85-5.69 5.85c-.392 1.384-.494 2.834-.3 4.26.686-.192 1.321-.534 1.86-1 0 0 .35 3.02 5.81 4.92z" fill="#3d2c56"/><path d="m196.33 61.3s-11.43 2.23-13.1 5.3c-3.28 6-3.79 12.0001-2.34 21.4101s.5 13.8799 2.29 16.5599 1.11 2.56 2.45 2.68 7.47-2 7.36-6.58-1.67-24.1899-1.67-24.1899.33 6.5899 2.45 7.7599 3.23 1.9401 3.9 3.8401c.451 1.5767.822 3.1755 1.11 4.79 0-.36.22-27.3401-2.45-31.5701z" fill="#ff6b6b"/><path d="m199.44 111.38s1.3.92-.66 3.26-6.72 2.59-8.56 4-4 4.36-3.21 7.53c0 0-1.48-.47-1.56-4.75s1.84-6 3.26-7.68c3.18-3.74 10.73-2.36 10.73-2.36z" fill="#ff6b6b"/><path d="m223.85 111.88s-3.36 2.51-6.7 1-2.79-6.12-2.79-6.12z" fill="#ff6b6b"/><path d="m207.08 54.3401-.17 3.24-.13 2.42s-4.52 1.61-4.91 1.28c-1.521-1.6603-2.924-3.4245-4.2-5.28 0-.31 1.74-6.39 1.74-6.39s5.56.3 6.15.74 1.52 3.99 1.52 3.99z" fill="#c66f7e"/><path d="m205.24 34.6702s8.75 2.11 9.86 4.44.7 12-2 15.24-4.3 3.38-4.3 3.38c-1.953.0489-3.871-.5217-5.48-1.63-1.129-.8624-2.138-1.8713-3-3 0 0-.1 3.91 3.21 5.42l3.25 1.48.44 2.5s2.65 1.32 2.58 2.63-3.72 6.06-4 6-9.31-7-8.93-8.3l.38-1.32.9-11.51.29-1.63s-2.62-1.07-2.39-3.53.75-2.54 1.87-2.27 1.37 1.41 2.31 1.15 3.11-4.2 3.95-6.49c.54-1.49 1.06-2.56 1.06-2.56z" fill="#fb919f"/><path d="m205.27 51.74s1 2.47 2.78 2.79 2.68-1.73 2.68-1.73v-.2z" fill="#fff"/><path d="m199.372 48.4362c.034-.6452-.462-1.1961-1.107-1.2304s-1.196.4611-1.23 1.1063c-.034.6453.461 1.1961 1.106 1.2304s1.196-.461 1.231-1.1063z" fill="#ffd040"/><path d="m208.34 43.4c-2.569-.8856-5.32-1.1125-8-.66 0 0 0 .36.1.95.77.12.74 1.06.74 1.06.06.7144.205 1.4193.43 2.1.49 1.16 2.5 1.42 2.5 1.42.504.104 1.024.0952 1.524-.0258.499-.1211.966-.3513 1.366-.6742.56-.54.6-.93.89-2 .23-.83.62-.89.82-.9.106-.0112.214-.0112.32 0v-1.15c-.234-.0069-.467-.0473-.69-.12zm-1 2.77c-.216.4763-.563.8818-1 1.17-.549.2372-1.141.3595-1.74.3595-.598 0-1.19-.1223-1.74-.3595-1-.44-1.14-1.49-1.11-3 0-1.26 1.78-1.15 1.78-1.15 1.106-.0025 2.207.1524 3.27.46 1.38.35.52 2.51.52 2.51z" fill="#533a71"/><path d="m209.65 43.4399c-.194.0606-.397.0876-.6.08v1.22c.26.08.5.29.61.92.079.7327.367 1.4271.83 2 .312.3355.7.59 1.133.7416.432.1516.894.1957 1.347.1284 0 0 1.76-.14 2.25-1.27.233-.6717.397-1.3652.49-2.07 0 0 0-.95.7-1 .09-.58.14-.94.14-.94-2.27-.6033-4.666-.5373-6.9.19zm4.51 4.24c-.479.2073-1 .299-1.521.2677-.521-.0312-1.028-.1846-1.479-.4477-.359-.3361-.624-.76-.77-1.23 0 0-.63-2.2.57-2.54.93-.2393 1.893-.3237 2.85-.25 0 0 1.52 0 1.47 1.26-.06 1.52-.28 2.56-1.12 2.94z" fill="#533a71"/><path d="m233.77 83.16s1.19-2.09 1.6-1.88.54.33.5 1.25c-.156.8987-.439 1.7708-.84 2.59z" fill="#c66f7e"/><path d="m226.47 104.99 12.63-3.75-4.89-13.0598-7.74 9.31z" fill="#f4a025"/><path d="m226.47 105s3-3.6 6.52-3.89c2.25-.158 4.51.055 6.69.63l.5-1.46-6.18-2.79h-3l-3.11 2.51-1.2 1.92-.13 1.17z" fill="#c1d1e0"/><path d="m209.57 82.87-2.45-.33 4.17 19.77 15.18 2.68z" fill="#f4a025"/><path d="m223 83.8601s4.09-4.17 7.48-3.58 5.31 3.94 5.31 3.94l4.43 15.9999c-2.262-1.0796-4.82-1.3708-7.267-.8271s-4.641 1.8911-6.233 3.8271c-3.72 4.36-3.72-19.3599-3.72-19.3599z" fill="#e6f0fc"/><path d="m226.56 103.11-2.88-2.88-4.74-1-5.07.66-1.87 1.84c5.024-.17 10.007.956 14.47 3.27l.22-1.71z" fill="#c1d1e0"/><path d="m223 83.86c-2.562-1.3276-5.338-2.1942-8.2-2.56l-5.2-.78 4.3 19.4s5.93-.11 8.17 1.11 4.65 2.25 4.65 2.25z" fill="#fff"/><path d="m222.67 89.4301-.9-4.68c-2.286-1.0584-4.715-1.7728-7.21-2.12l-3.27-.49 1.06 4.8 3.15.47c2.47.3487 4.881 1.0281 7.17 2.02z" fill="#e6f0fc"/><path d="m213.55 90.4399c3.11.11 6.28.25 9.1 1.71.29.15.54-.28.25-.43-2.9-1.51-6.14-1.67-9.35-1.78-.32 0-.32.49 0 .5z" fill="#e6f0fc"/><path d="m214.08 92c3.11.11 6.28.25 9.1 1.71.29.15.54-.28.25-.43-2.9-1.51-6.14-1.67-9.35-1.78-.32 0-.32.49 0 .5z" fill="#e6f0fc"/><path d="m214.32 93.45c3.11.11 6.28.25 9.1 1.71.29.15.54-.28.25-.43-2.9-1.51-6.14-1.67-9.35-1.78-.32 0-.32.49 0 .5z" fill="#e6f0fc"/><path d="m214.78 95c3.11.11 6.28.25 9.1 1.71.29.15.54-.28.25-.43-2.9-1.51-6.14-1.67-9.35-1.78-.32 0-.32.49 0 .5z" fill="#e6f0fc"/><path d="m215.31 96.52c3.11.11 6.28.25 9.1 1.71.29.15.54-.28.25-.43-2.9-1.51-6.14-1.67-9.35-1.78-.32 0-.32.49 0 .5z" fill="#e6f0fc"/><path d="m215.55 98c3.11.11 6.28.25 9.1 1.71.29.15.54-.28.25-.43-2.9-1.51-6.14-1.67-9.35-1.78-.32 0-.32.49 0 .5z" fill="#e6f0fc"/><g fill="#c1d1e0"><path d="m209.57 80.52-1.45 2.35 3.92 18.86 1.83-1.81z"/><path d="m227.44 99.0001c2.61-2.5 6.71-3.67 10.1-2 .29.14.54-.29.25-.43-3.6-1.74-7.92-.56-10.71 2.11-.23.22.12.58.35.35z"/><path d="m227.17 97.4801c2.61-2.5 6.71-3.67 10.1-2 .29.14.54-.29.25-.43-3.6-1.74-7.92-.56-10.71 2.11-.23.22.12.58.35.35z"/><path d="m226.73 96.0702c2.61-2.5 6.71-3.67 10.1-2 .29.14.54-.29.25-.43-3.6-1.74-7.92-.56-10.71 2.11-.23.22.12.58.35.35z"/><path d="m226.2 94.5301c2.61-2.5 6.71-3.67 10.1-2 .29.14.54-.29.25-.43-3.6-1.74-7.92-.56-10.71 2.11-.23.22.12.58.35.35z"/><path d="m225.92 93.0001c2.61-2.5 6.71-3.67 10.1-2 .29.14.54-.29.25-.43-3.6-1.74-7.92-.56-10.71 2.11-.23.22.12.58.35.35z"/><path d="m225.48 91.6202c2.61-2.5 6.71-3.67 10.1-2 .29.14.54-.29.25-.43-3.6-1.74-7.92-.56-10.71 2.11-.23.22.12.58.35.35z"/><path d="m225.14 90.13c2.61-2.5 6.71-3.67 10.1-2 .29.14.54-.29.25-.43-3.6-1.74-7.92-.56-10.71 2.11-.23.22.12.58.35.35z"/><path d="m224.87 88.63c2.61-2.5 6.71-3.67 10.1-2 .29.14.54-.29.25-.43-3.6-1.74-7.92-.56-10.71 2.11-.23.22.12.58.35.35z"/><path d="m224.43 87.2201c2.61-2.5 6.71-3.67 10.1-2 .29.14.54-.29.25-.43-3.6-1.74-7.92-.56-10.71 2.11-.23.22.12.58.35.35z"/></g><path d="m237.47 83.9202s-4 1.2-3.68 2 .67 1.07 2 .7c.694-.2119 1.408-.3493 2.13-.41 0 0-2.93 1.12-3.05 1.49s1.25 5.69 2 6.36 4.64.07 4.64-1.47-1.84-6.82-1.84-6.82.33-1.49-.08-1.87-2.12.02-2.12.02z" fill="#fb919f"/><path d="m219.24 89.31c-.213-.432-.567-.7789-1.003-.9842-.435-.2052-.928-.2566-1.397-.1458-.313.0529-.635.0214-.932-.091-.297-.1125-.558-.302-.758-.549l-2.79 2.34 2.38 2z" fill="#c66f7e"/><path d="m213.72 89.0001 1.42-1.51c-.982-.06-1.963.1437-2.84.59-.84.67-2.51 5.1-2.84 5.27l-12.91 6.8299c-.246.698-.638 1.335-1.15 1.87-1 1.1-2.39 1.91-3.26 3.15-.416.596-.708 1.27-.859 1.981s-.158 1.445-.021 2.159c.116.574.325 1.124.62 1.63 2.63-.23 5.75-1.79 9.13-4.07 4.35-2.93 10-9.0999 10-9.0999s5.77 0 6.61-.85 1.67-7.68 1.67-7.68l-4.18 1.16s5.82-2.51 6.19-3.93-7.58 2.5-7.58 2.5z" fill="#fb919f"/><path d="m212.16 88.27c.573-.5628 1.253-1.0049 2-1.3.651-.073 1.269-.3297 1.78-.74.29-.35.75-.43.77 0-.02.3263-.122.6422-.297.9185-.175.2762-.417.5037-.703.6615-.69.38-1.94 1.24-1.94 1.24z" fill="#fb919f"/><path d="m281.08 128.48 11.71 1.6 6.88-2.24s6 .77 5.58-5.31l-9.39-3.32-15.76 1.33z" fill="#3d2c56"/><path d="m248.34 82.6399s-1.58.39-1.77 1.27.88 2.88.88 2.88l2.32.22-.06-1.29z" fill="#c66f7e"/><path d="m255.31 95.19 1.52 4.37s2.46 1.82 8.54 1.71c3.703-.123 7.221-1.6497 9.84-4.27l1-10-3.13 1.11c-.3.11-17.77 7.08-17.77 7.08z" fill="#e28100"/><path d="m295.12 112.33c.623-.872 1.04-1.874 1.22-2.93 1.033.735 2.272 1.123 3.54 1.11 1.94-.11 5.14-2.77 5.14-2.77 1.443-1.238 2.626-2.751 3.48-4.45 1.49-2.9-.25-11.1099-4-18.2499s-15.1-8.16-15.1-8.16l-2-.32c-3.357 1.0918-6.64 2.3978-9.83 3.91-3.23 1.74-4.23 3.9-6.88 6.88s-6.14 4.64-9.29 3.73-8.88-5.06-10.78-1.33 6.22 9.79 6.22 9.79c1.436.0968 2.878.07 4.31-.08 2.49-.25 2.24-1.58 3.32-3.82s3.07-1.41 5.81-2.16 3.72-4.04 3.72-4.04.41 24.2999.44 25.5499c.029.398.136.785.317 1.141.18.355.429.671.733.929 0 0 6.93.23 14 .34.18-1.16.58-3.08 1.26-3.69 1-.88 3.54-.55 4.37-1.38z" fill="#ffb942"/><path d="m305 107.74s-3.21 2.66-5.14 2.77c-1.268.013-2.507-.375-3.54-1.11-.18 1.056-.597 2.058-1.22 2.93-.83.83-3.37.5-4.37 1.38-.68.61-1.08 2.53-1.26 3.69 7 .11 14.12.11 14.86-.34 1.31-.8.83-7.36.7-9v-.08z" fill="#e28100"/><path d="m289.42 76.8899c.208.1369.384.3166.517.527.132.2103.219.4466.253.693.156.5473.138 1.1293-.05 1.6663s-.537 1.0029-1 1.3337c-.746.6629-1.626 1.1584-2.58 1.4534-.954.2949-1.96.3824-2.95.2566-2.21-.28-3.62-2-1.87-3.87s7.68-2.06 7.68-2.06z" fill="#e28100"/><path d="m277 63.56s-2.44.17-2.55-3.15c-.113-.8442.082-1.7009.551-2.4121.469-.7113 1.179-1.2291 1.999-1.4579 0 0-1.11-2.43 1.21-3.37.624-.2472 1.299-.3364 1.965-.2596.667.0767 1.304.3171 1.855.6996-.06-.17 2-2.21 3.54-1.33.872.5032 1.597 1.2276 2.1 2.1 0 0 3.54-.66 4.26.83.413.817.693 1.6947.83 2.6 0 0 2-.44 2.49 1.11.245 1.0947.066 2.2415-.5 3.21.404.2588.713.6408.882 1.0893.17.4486.19.9397.058 1.4007-.1.538-.315 1.0484-.629 1.4968s-.72.8245-1.191 1.1032c0 0 .84 2.6-.6 3.4799-.802.5264-1.776.7234-2.72.5501l-11.67-5.47z" fill="#533a71"/><path d="m283.45 78.94-1.7-.92v-3.23l5.27-.58 1.08 1.32-.42 1.04z" fill="#c66f7e"/><path d="m281.13 60.77s-1.08 1.74-2.32 1.66c-.323.0061-.643-.0662-.932-.2108-.289-.1445-.539-.357-.728-.6192 0 0-.33 4.64-.75 6.8s-.08 4.48 1.49 5.89 2.65 2.07 4.81 2.07c1.572-.0856 3.116-.4513 4.56-1.08-.728 1.0535-1.731 1.8871-2.9 2.41-.837.2946-1.726.4071-2.61.33v2.41c.479.6594 1.197 1.1046 2 1.24.89.0695 1.785-.0254 2.64-.28.71-.1782 1.361-.5399 1.888-1.0489.526-.5089.91-1.1473 1.112-1.8511v-3.7c.515-.9199.931-1.8921 1.24-2.9l.08-.75s2.41-.5 2.49-2.74-.66-2.9-1.82-2.16-1.58 1.74-2.24 1.16-.75-3.82-1.41-5.23-6.6-1.4-6.6-1.4z" fill="#fb919f"/><path d="m297.33 95.6399s2 3.65 1.77 5.2001c-.23 1.55-3.48 3.87-3.48 3.87s3.15-2.77 1.71-9.0701z" fill="#e28100"/><path d="m252.87 88.7198c-.23-.44-1.27-5.42-2.27-5.86s-4.48-2.82-5.09-2.27.66 1.94 1.6 2.65c.703.7308 1.215 1.6239 1.49 2.6 0 0-.72.72-1.38.11s-.88-1.66-1.55-1.66-.39 2.27.11 2.71 1.38 2.54 2.38 3c.929.3874 1.893.6821 2.88.88z" fill="#fb919f"/><path d="m304.36 117.06s-14.49-2.29-17.42-1.91-3.7 1.91-3.7 1.91-8.24-2.18-11.61-1.69-4.59 4.76-4.42 7.3 5.81 21.12 7 24.66 2.77 5.42 4.54 5.81 6.56-.33 7.07-2.38-.6-9.9-1.43-12.55-3.26-9.73-3.26-9.73.77.33 1.94-.55.77-4 1.82-5.09c.629-.66 1.473-1.071 2.38-1.16 0 0 2.82 27.32 4.59 29s7.63 1.88 9 .61 1.16-26.21 1.16-26.21 2.32-.06 3.1-1.27-.76-6.75-.76-6.75z" fill="#533a71"/><path d="m291.42 108.68s-.77 2.93-1.13 3l-.36.11s-2.85-.33-4.3.55c-1.097.835-2.007 1.891-2.67 3.1h-2s-.28-2.1-3-2.49-6.19 1.6-6.19 1.6l-1.44-3s9.1-3.7 11.46.28c-.04.01 1.21-3.83 9.63-3.15z" fill="#e6f0fc"/><path d="m283.04 115.82h-2.08l-9.81-.67.05-.66 9.79.67h1.89l8.62-4.34.3.59z" fill="#ff6b6b"/><path d="m294.79 106.75c-.851-.609-1.887-.902-2.93-.83-1.38.28-1.58 1-2.37 1.16s-.38 1.05 0 1.33c.619.204 1.269.299 1.92.28 0 0-.94 3-1.49 3.15-.266.069-.499.229-.66.452-.16.222-.238.494-.22.768 0 .5 4 1.33 5.47.61s1.82-2.93 1.82-2.93.5-1.88 0-2.71c-.387-.559-.919-1.002-1.54-1.28z" fill="#fb919f"/><path d="m278.83 71.3701 5 .55c-.059.3315-.185.6475-.37.9291-.184.2817-.424.5231-.704.7099s-.595.315-.926.3771c-.331.062-.671.0565-1-.0161-2.54-.44-2-2.55-2-2.55z" fill="#fff"/><path d="m84.05 91.24h-83.899976v38.85h83.899976z" fill="#c9e3fc"/><path d="m88.64 87.74h-88.489976v5.04h88.489976z" fill="#c9e3fc"/><path d="m80.02 91.24h-75.84996v13.33h75.84996z" fill="#e5f1ff"/><path d="m80.02 106.44h-75.84996v13.33h75.84996z" fill="#e5f1ff"/><path d="m40.59 101.53c1.4967 0 2.71-1.213 2.71-2.7099 0-1.4967-1.2133-2.71-2.71-2.71s-2.71 1.2133-2.71 2.71c0 1.4969 1.2133 2.7099 2.71 2.7099z" fill="#c9e3fc"/><path d="m40.59 116.74c1.4967 0 2.71-1.213 2.71-2.71s-1.2133-2.71-2.71-2.71-2.71 1.213-2.71 2.71 1.2133 2.71 2.71 2.71z" fill="#c9e3fc"/></g></svg>