<svg fill="none" height="130" viewBox="0 0 350 130" width="350" xmlns="http://www.w3.org/2000/svg" xmlns:xlink="http://www.w3.org/1999/xlink"><clipPath id="a"><path d="m0 0h350v130h-350z"/></clipPath><g clip-path="url(#a)"><path d="m0 130h4.36c-1.46-.58-2.92-1.18-4.36-1.82z" fill="#ffb942"/><path d="m110.84 33.22c8.77-10.14 14.51-23 22.95-33.22h-133.79v46.43c5.41364 2.5368 10.9813 4.7312 16.67 6.57 32.33 10.4 71.94 5.93 94.17-19.78z" fill="#ffb942"/><path d="m254.33 80.4699c-16.33-16.95-33.07-38.92-56.6-38.28-14.19.39-26.78 9.51-36 20.29s-16.03 23.45-24.94 34.52c-12.2 15.1201-28.55 26.2301-46.63 33.0001h251.36c-32.91-8.08-63.66-25.12-87.19-49.5301z" fill="#fff1d9"/><path d="m302.45 53.71c18.71 2.37 39.9-6.18 47.55-23v-30.71h-132.19c11.11 7.92 21.25 17.37 31.74 26.17 15.45 12.94 32.9 25.01 52.9 27.54z" fill="#ffb942"/><path d="m136.79 97c8.91-11 15.71-23.7 24.94-34.48s21.82-19.91 36-20.29c23.53-.64 40.26 21.33 56.6 38.27 23.53 24.41 54.28 41.45 87.19 49.53h8.48v-99.35c-7.65 16.85-28.84 25.4-47.55 23-20-2.53-37.44-14.6-52.89-27.55-10.5-8.76-20.64-18.21-31.75-26.13h-84c-8.44 10.19-14.17 23.07-22.95 33.22-22.25 25.71-61.86 30.18-94.19 19.78-5.6887-1.8388-11.25636-4.0332-16.67-6.57v81.75c1.44.64 2.89 1.24 4.36 1.82h85.8c18.08-6.8 34.42-17.91 46.63-33z" fill="#f9d095"/><path d="m119.3 12.54h-32.98v54h32.98z" fill="#f9d095"/><path d="m120.06 67.31h-34.5v-55.53h34.51zm-33-1.52h31.46v-52.49h-31.44z" fill="#fff"/><path d="m113.16 19.3401h-20.39v39.78h20.39z" fill="#ffb942"/><path d="m74.36 12.54h-47.7v29.75h47.7z" fill="#f9d095"/><path d="m75.11 43.06h-49.21v-31.28h49.21zm-47.7-1.52h46.18v-28.24h-46.17z" fill="#fff"/><path d="m68.32 18.3701h-35.79v18.11h35.79z" fill="#ffb942"/><path d="m72.96 55.47h-31.94v27.48h31.94z" fill="#f9d095"/><path d="m73.73 83.71h-33.47v-29h33.47zm-31.95-1.52h30.43v-26h-30.43z" fill="#fff"/><g fill="#3d2c56"><path d="m267.65 124 8.93 78.68c.047.394.236.758.533 1.021.297.264.68.409 1.077.409h.65c.222-.001.442-.047.646-.137.203-.089.386-.22.538-.383.151-.163.266-.356.34-.565.073-.21.102-.433.086-.655l-6.06-78.37z"/><path d="m251.45 124-8.93 78.68c-.047.394-.236.758-.533 1.021-.297.264-.68.409-1.077.409h-.65c-.222-.001-.442-.047-.646-.137-.203-.089-.386-.22-.538-.383-.151-.163-.266-.356-.34-.565-.073-.21-.102-.433-.086-.655l6.06-78.37z"/><path d="m264.67 103.46s1.14 16.35 3.48 29.09 8.85 75.75 8.85 75.75l13 .47s-4.07-96.48-4.55-96.92-9.2-8.54-10-8.4-10.78.01-10.78.01z"/></g><path d="m305.77 99.5801 2.26 1.9999s1.48 17 1 27.77-4.1 80.45-4.1 80.45l-17.75.65s-6-88.79-6.77-92.78-6.46-14.71-6.46-14.71l9.18-9.6399z" fill="#533a71"/><path d="m221.59 106.63s-.71 2 0 2.77 3.74 1.29 4.62.31c.855-1.228 1.585-2.537 2.18-3.91z" fill="#c66f7e"/><path d="m252.68 69.6799-23.3 28.43s-5.72 2.5101-7.43 4.8401-1.84 5.28-3.08 6.75-2.94 2.67-2.42 3.09 1.7.41 3.2-.79 2.42-3.93 3.52-4.64c1.147-.609 2.431-.915 3.73-.89.58.07-1 1.8-1.37 2.32s-1 2-.46 2.71 1 .77 1.78 0c1.044-1.238 2.185-2.391 3.41-3.45 1.089-.897 1.846-2.133 2.15-3.51.21-.85.89-3 .89-3s19.9-16.8501 22.1-19.2101 4.33-10.5 4.33-10.5z" fill="#fb919f"/><path d="m257.88 42.6001c-1.58 1.44-3.46 7.31-5.14 11.89-3.161 7.5204-6.726 14.8644-10.68 22-1.68 2.57-1.61 3.66-1.61 3.66s3.12 5.14 6.07 6.92c1.611 1.0403 3.504 1.5572 5.42 1.48 0 0 4.46-5.34 6.28-9.19s3-10.78 3-10.78z" fill="#0078fa"/><path d="m281.7 38.33s7.08-.36 10.47 2.09 18.91 21.58 18.21 31.58-4.74 12.61-4.74 12.61 2.93 15 2.82 18c.03.792-.163 1.577-.555 2.266s-.969 1.255-1.665 1.634c0 0-17.35 1.7-21.69 1.25s-4.44-1.42-4.44-1.42l-3.43-4.21s2.1 4.58-1.51 5.09-8.47 1.42-11-.71-.81-22.3-1.61-26.53-4.54-9.18-4.64-12.41 0-7.12 0-13.24 1.2-9.65 3.08-11.33 18.83-5 18.83-5z" fill="#1c8ff7"/><path d="m308.46 102.61c.1-2.9999-2.82-17.9999-2.82-17.9999s-7.46 5.8-7.92 6 2.62-.2 4.24 1.46 3.58 5.5.71 8.1199c-2.87 2.62-8.47.15-11.15 4.14-.719 1.024-1.229 2.179-1.5 3.4 6.7-.3 16.22-1.23 16.22-1.23.695-.378 1.27-.943 1.663-1.63.392-.687.585-1.469.557-2.26z" fill="#0078fa"/><path d="m274.61 35 3.8 2.46 3.49.53s4.19 5 3 9.31-7.49 10.7-10.29 7.78l-2.8-2.95s-1 4.34-4.58 3.69-5.42-1.71-5.94-3.92.95-8.47.95-8.47l2-3.31z" fill="#fff"/><path d="m281.57 37.89-5.75-.89-5.27 3.17s-3.76 2.42-4.87 4.12-1.54 5.3-1.54 5.3c-.441-.8673-.671-1.8268-.67-2.8.036-1.2687.146-2.5342.33-3.79-.603 1.371-.942 2.8434-1 4.34.15 1.69.74 4.34 1 6.41.062.6128-.005 1.2318-.196 1.8173s-.502 1.1246-.914 1.5827h-2.5v-2.43c.053-.82-.127-1.6382-.52-2.36v1.4c.008 1.1063-.055 2.2119-.19 3.31l-1.69.07c-1.233.0139-2.464-.1102-3.67-.37.508-1.6515.387-3.4324-.34-5-.697-1.5219-1.292-3.0887-1.78-4.69-1.23-5.28 2.47-10.91.82-16.08-.88-2.76-3.13-4.83-4.57-7.33-.943-1.6259-1.542-3.4287-1.758-5.296-.216-1.8674-.045-3.7592.502-5.5576.547-1.7985 1.458-3.46504 2.677-4.89583s2.72-2.59517 4.409-3.42057c2.578-1.08196 5.368-1.56738 8.16-1.42l4.2.37s6.11-1.62 9.72 2.65 2.17 8.69 3.37 11.64 4.88 6.63 5.55 9.35-1.08 11.27-1.08 11.27z" fill="#533a71"/><path d="m265.86 32.8201 1 3.59.75 2.66s5.46.67 5.82.2 3.48-6.64 3.38-7-3.56-6.71-3.56-6.71-6.16 1.74-6.7 2.38-.69 4.88-.69 4.88z" fill="#c66f7e"/><path d="m263 10.3301s-9.26 4.57-9.92 7.46 2.24 13.6 6.14 16.55 5.67 2.7 5.67 2.7 3.73-.68 5.72-3.21c1.061-1.2686 1.945-2.6747 2.63-4.18 0 0 1.1 4.35-2.23 6.89l-3.33 2.54.13 2.91s-2.63 2.15-2.22 3.6 5.7 5.85 6 5.75 8.66-10.17 7.91-11.55l-.76-1.38-4-12.75-.74-1.76s2.67-1.86 1.78-4.55-1.48-2.65-2.67-2.07-1.17 1.93-2.29 1.87-4.54-3.92-6.06-6.27c-.95-1.48-1.76-2.55-1.76-2.55z" fill="#fb919f"/><path d="m267.23 29.4502s-.44 3-2.41 3.82-3.43-1.27-3.43-1.27l-.1-.21z" fill="#fff"/><path d="m274.66 25.1668c.712-.2009 1.127-.9411.926-1.6534s-.941-1.1268-1.654-.926c-.712.2009-1.126.9412-.925 1.6535.2.7122.941 1.1268 1.653.9259z" fill="#ffd040"/><path d="m260.92 21.2102.31 1.37c.109-.055.223-.0986.34-.13.23 0 .68-.07 1.15.8.58 1.09.72 1.51 1.49 2 .53.2591 1.11.3979 1.699.4066.59.0086 1.174-.1132 1.711-.3566 0 0 2.19-.81 2.44-2.22.097-.8172.097-1.6429 0-2.46 0 0-.27-1.05.56-1.38-.07-.67-.13-1.08-.13-1.08-3.107.1707-6.122 1.116-8.77 2.75-.25.14-.52.2412-.8.3zm2.53-.49c1.113-.6164 2.309-1.071 3.55-1.35 0 0 1.94-.57 2.28.84.42 1.71.5 2.93-.48 3.66-.55.4126-1.18.7073-1.849.8656s-1.364.1768-2.041.0544c-.551-.2214-1.028-.592-1.38-1.07 0 0-1.53-2.19-.08-3.01z" fill="#533a71"/><path d="m252.45 22.83s.14.39.39 1c.77-.09 1 1 1 1 .312.7608.701 1.4879 1.16 2.17.83 1.14 2.84.85 2.84.85.525-.0389 1.032-.2049 1.478-.4837.446-.2787.817-.6619 1.082-1.1163.38-.7712.526-1.6368.42-2.49 0-.73.18-1 .46-1.18l-.31-1.37c-.225.059-.458.0792-.69.06-2.706-.251-5.427.291-7.83 1.56zm1.81 1.3c-.37-1.4 1.33-1.78 1.33-1.78 1.052-.3246 2.15-.4732 3.25-.44 1.43.07 1.28 2.7 1.28 2.7-.044.5621-.234 1.1032-.55 1.57-.434.4152-.96.7222-1.535.8959-.575.1738-1.183.2094-1.775.1041-1.07-.24-1.55-1.36-2-3.05z" fill="#533a71"/><path d="m297.56 86.17s-1.91 5.61-3.9 5.19-2.87-6.59-2.87-6.59v-6.87c.762-.6972 1.378-1.5389 1.813-2.4762.434-.9373.678-1.9515.717-2.9838.11-3.48-3.7-9.45-3.7-9.45s7.46 4.81 8 6.35-7 5.94-5.33 8.55 5.27 8.28 5.27 8.28z" fill="#0078fa"/><path d="m272.08 73.7 4.96 18.83 1.83-1.54-4.8-19.71z" fill="#859dc5"/><path d="m257.18 77.13c-1.531-1.1686-3.334-1.9291-5.24-2.21-3.42-.61-6.58-1.33-6.58-1.33l2.88-2.87c1.893-.0505 3.785.1173 5.64.5 1.674.4603 3.291 1.1077 4.82 1.93 0 0 3.74-3.5 6.22-4s6 .09 7.57 1.09l1.55 1-2 2.43s-3.44-2.14-6.17-1.27-7 4.69-7 4.69z" fill="#e6f0fc"/><path d="m272.05 73.7 4.95 18.83-11.12-15.4-.46-5.85h6.9z" fill="#e6f0fc"/><path d="m272.6 74.45c-1.737-1.1785-3.715-1.954-5.79-2.27-3.67-.63-8.1 3.88-8.1 3.88l4 21.05c6.4-7.5 14.63-3.27 14.63-3.27z" fill="#d65050"/><path d="m249.81 73.2899-5.63-.85 4.66 21c1.476-.0253 2.951.0348 4.42.18 1.521.1147 3.017.4516 4.44 1 1.48.62 2.87 1.45 4.34 2.1.07 0 .69.23.71.31l-4-21.05c-2.799-1.4155-5.825-2.3261-8.94-2.69z" fill="#ff6b6b"/><path d="m276.27 80.4401c-1.14-.5722-2.332-1.0343-3.56-1.38-.66 0-6.57 3.92-5.69 5s2.28-.28 2.28-.28-1.56 1.27-1 2.1c.589 1.1381 1.386 2.1557 2.35 3 1 .66 4.58.29 6-.29l3.53-1.7s9.28.22 13.14 0 4.23-.69 4.23-.69.66-4.93-1.1-6.71-5.71-1.55-5.71-1.55l-11.52 4z" fill="#fb919f"/><path d="m164.14 124.04h-4.18v31.46h4.18z" fill="#533a71"/><path d="m182.22 104.93h-36.71c-3.181 0-5.76 2.579-5.76 5.76v10.17c0 3.181 2.579 5.76 5.76 5.76h36.71c3.181 0 5.76-2.579 5.76-5.76v-10.17c0-3.181-2.579-5.76-5.76-5.76z" fill="#5ecccd"/><path d="m182.22 104.93h-33.61c-3.181 0-5.76 2.579-5.76 5.76v10.17c0 3.181 2.579 5.76 5.76 5.76h33.61c3.181 0 5.76-2.579 5.76-5.76v-10.17c0-3.181-2.579-5.76-5.76-5.76z" fill="#46b2af"/><path d="m201.3 128.62 1.25 4.53 5.15 3.98h-15.65l1.6-8.51z" fill="#c66f7e"/><path d="m225.88 135.36c-4.39-3.48-34.69-7.89-34.69-7.89l-35 5.79c-1.53.26 1 9.14 1.57 10.11 2.129 3.997 5.262 7.371 9.09 9.79 4.54 2.71 9.57 2.22 14.38 4 5.83 2.14 11.73 5.14 18 5.66 1.116-6.078 3.884-11.731 8-16.34 1.052-1.255 2.331-2.3 3.77-3.08.722-.385 1.516-.617 2.332-.679s1.636.047 2.408.319l.29.14c-.296-.436-.631-.844-1-1.22-4.77-4.83-15.52-6.59-15.52-6.59s16.83-1 21.93 5.35 5.93 9.38 5.93 9.38 2.91-11.26-1.49-14.74z" fill="#533a71"/><path d="m194.35 103.59c-1.408-3.173-2.309-6.5472-2.67-9.9998-2.05-.37-4.1-.67-6.15-.87l2.92 20.3598s6.19 4 9.29 5 6.26 3.5 6.52.66c.17-1.86-1.43-5.57-3-8.8-.935-.218-1.839-.554-2.69-1-2-1.09-3.27-3.22-4.22-5.35z" fill="#fff"/><path d="m191.89 78.8801c-2.66-4.38-9.1-5.28-9.1-5.28l2.74 19.12c2.05.2 4.1.5 6.15.87.361 3.4526 1.262 6.8269 2.67 9.9999.95 2.13 2.21 4.26 4.25 5.39.851.446 1.755.782 2.69 1-.81-1.7-1.6-3.27-2.1-4.36-1.45-3.2-4.63-22.3599-7.3-26.7399z" fill="#e6f0fc"/><path d="m173.62 120.65c-.33-3.77 1.19-7.76-.45-11.23-2.41-5.09-10.46-6.49-12.56-11.7-1.14-2.81-.18-6-.77-8.91-.333-1.4584-1-2.8194-1.949-3.9753-.95-1.1559-2.155-2.0751-3.521-2.6847-.596-.2671-1.215-.4781-1.85-.63-.143.2811-.257.5759-.34.88-1.38 5.19 2.45 19.37 3.07 27.23s-.61 24.84 1.07 25.83 15.15-3.37 23.84-4.35l1.49-.16c-.977-.385-1.907-.881-2.77-1.48-1.46-1.004-2.687-2.312-3.595-3.835-.907-1.522-1.476-3.223-1.665-4.985z" fill="#d65050"/><path d="m192.65 84.4101c-.254-1.8588-.886-3.6458-1.858-5.2506-.972-1.6047-2.262-2.9931-3.792-4.0794-2.15-1.36-8.59-2.44-8.59-2.44l-12.22.8h-.74s-10.56 3.41-12.93 8.15c.635.152 1.254.3629 1.85.63 1.366.6097 2.571 1.5288 3.521 2.6847.949 1.1559 1.616 2.5169 1.949 3.9753.59 2.94-.36 6.1.77 8.91 2.11 5.2099 10.15 6.5999 12.56 11.6999 1.64 3.47.12 7.46.45 11.23.187 1.763.753 3.465 1.659 4.989.906 1.525 2.131 2.835 3.591 3.841.863.599 1.793 1.095 2.77 1.48 8-.81 14.19-.74 15.64-1.67.76-.49-3.57-10.36-4.81-20.78-1.26-10.5799.53-21.7599.18-24.1699z" fill="#ff6b6b"/><path d="m166.62 72.3901s-2.52 1.38-2.52 2.1 1.13 2 4.7 3.22 5.83 1.59 8.08.61c.78-.244 1.447-.7594 1.88-1.4528.433-.6935.603-1.519.48-2.3272-.21-1-1.73-1.89-1.73-1.89z" fill="#fff"/><path d="m157.58 49.89c.383.2237.807.3682 1.247.4249.439.0567.886.0244 1.313-.0949 1.355-.2831 2.615-.9048 3.665-1.8072 1.049-.9023 1.852-2.0558 2.335-3.3528l-.28 2.71c1.755-1.4799 3.087-3.3983 3.86-5.56 1.089 2.0391 2.862 3.629 5.008 4.4904 2.145.8614 4.525.9392 6.722.2196l-2.23-2.25c1.823.9286 3.938 1.1046 5.89.49.816-.2576 1.583-.6497 2.27-1.16-.08-.32-.16-.65-.28-1-1.07-3.17-2.91-3.89-7-6s-8.49-1.74-12-.92c-1.12.3308-2.163.8814-3.068 1.6197s-1.653 1.6495-2.202 2.6803c-.92.2-3.27 2.66-5.06 5.78-.45.8902-.744 1.8507-.87 2.84.143.3523.378.6597.68.89z" fill="#533a71"/><path d="m189.21 50.61c-1.47-1.42-1.14-3.87-1.82-6.64-.685.5208-1.452.9231-2.27 1.19-1.952.6145-4.067.4386-5.89-.49l2.23 2.25c-2.197.7195-4.577.6417-6.722-.2197-2.146-.8614-3.919-2.4513-5.008-4.4903-.773 2.1616-2.105 4.08-3.86 5.56l.28-2.71c-.483 1.2969-1.286 2.4504-2.335 3.3527-1.05.9024-2.31 1.5241-3.665 1.8073-.427.1192-.874.1515-1.314.0948-.439-.0567-.863-.2012-1.246-.4248-.295-.2166-.53-.506-.68-.84-.55 3.41 0 7.69.5 8.31.72.82 1.38-1 1.38-1 .562 1.211 1.349 2.3039 2.32 3.22 1.155.8866 2.394 1.657 3.7 2.3 0 0 5.38-.36 6.56-1.28s13-2.35 13-2.71 2.15-1.79 3.17-2.56.77-2.71.77-2.71c.456.1561.9.3432 1.33.56 1 .5 1.2-.99-.43-2.57z" fill="#3d2c56"/><path d="m177.55 72.8999-.55-3.83-7.52-1.38c.035 1.6436.172 3.2834.41 4.91z" fill="#c66f7e"/><path d="m183.84 51.89c-1.35 0-4.45-2.3-4.45-2.3s1.84 2.3 2.45 2.91-2.15.46-5.68-1.07c-1.043-.4627-1.978-1.1386-2.744-1.9842-.767-.8456-1.348-1.8422-1.706-2.9258 0 0-.77 7.06-2 8.44s-1.07-1.84-1.07-1.84-.92 6-1.69 6.14-1.23-1.84-2.15-2.91-3.22-1.53-3.68 1.84 4.3 3.84 4.3 3.84l1.58 2.9s-.77 9.36 0 10 7.82 3.22 10 2.15.61-4.14.61-4.14l-2.15-.61c-2.15-.61-4.3-3.07-4.3-3.07s6.84 2.74 10.37 1.5 4.6-4.45 4.6-8.28c0-2.44-.56-7.42-1-10.73-.427.072-.858.1188-1.29.14z" fill="#fb919f"/><path d="m183.08 64.1301-7.68 1.05s1.48 2.76 4.14 2.51 3.54-3.56 3.54-3.56z" fill="#fff"/><path d="m164.62 109.64c-1.49.13-2.93.58-4.42.74-.731.128-1.481.106-2.203-.066s-1.402-.49-1.997-.934c-.463-.472-.793-1.059-.956-1.7-.164-.641-.155-1.313.026-1.95.381-1.265.911-2.48 1.58-3.62 2.006-3.9842 2.798-8.4694 2.28-12.8998-.112-1.8805-.812-3.6782-2-5.14-.693-.7013-1.523-1.2523-2.438-1.6188-.916-.3664-1.896-.5405-2.882-.5112-6.38 4.86-6 26.9998-2.35 31.4398 4.95 5.93 19.24 4.1 25.44 2.73-1.7-3.41-6.23-6.8-10.08-6.47z" fill="#fff"/><path d="m178.4 109.27c-1.46-1.26-7.07-1.73-11.85-1.89-3.85-.13-6.81-3.07-6.53-6.49.63-7.7998.59-19.9398-5.78-19.8898-.973.0276-1.909.3796-2.66 1 .986-.0293 1.966.1447 2.882.5112.915.3665 1.745.9175 2.438 1.6188 1.188 1.4618 1.888 3.2595 2 5.14.518 4.4304-.274 8.9156-2.28 12.8998-.669 1.14-1.199 2.355-1.58 3.62-.181.637-.19 1.309-.026 1.95.163.641.493 1.228.956 1.7.595.444 1.275.762 1.997.934s1.472.194 2.203.066c1.49-.16 2.93-.61 4.42-.74 3.85-.33 8.37 3.06 10.05 6.48.941-.182 1.867-.436 2.77-.76 2.1-.98 3.64-3.85.99-6.15z" fill="#e6f0fc"/><path d="m285.23 119.18v2.37c0 .371-.147.727-.41.99s-.619.41-.99.41h-143.48c-.371 0-.727-.147-.99-.41-.262-.263-.41-.619-.41-.99v-2.37c0-.371.148-.727.41-.99.263-.262.619-.41.99-.41h143.49c.371 0 .727.148.99.41.263.263.41.619.41.99z" fill="#ff6b6b"/><path d="m285.23 119.18v.51h-146.23v-.51c-.002-.303.095-.598.275-.842.18-.243.435-.421.725-.508h144.21c.294.083.553.26.737.504.184.243.284.541.283.846z" fill="#fff"/><path d="m279.77 122.95-1.14 2.51h-133.99l-1.13-2.51z" fill="#533a71"/><path d="m156.44 124-8.93 78.68c-.047.394-.236.758-.533 1.021-.297.264-.68.409-1.077.409h-.65c-.222-.001-.442-.047-.646-.137-.203-.089-.386-.22-.538-.383-.151-.163-.266-.356-.34-.565-.073-.21-.102-.433-.086-.655l6.06-78.37z" fill="#533a71"/><path d="m172.64 124 8.93 78.68c.047.394.236.758.533 1.021.297.264.68.409 1.077.409h.65c.222-.001.442-.047.646-.137.203-.089.387-.22.538-.383s.266-.356.34-.565c.073-.21.102-.433.086-.655l-6.06-78.37z" fill="#533a71"/><path d="m213.015 118.446c.042-.783-1.404-1.497-3.229-1.594-1.826-.097-3.339.459-3.381 1.242s1.404 1.497 3.23 1.594c1.825.097 3.339-.459 3.38-1.242z" fill="#d59000"/><path d="m209.66 118.87-20.13-1.57.03-.61 20.14 1.58z" fill="#fb0"/><path d="m209.7 118.27-20.14-1.58 2.91-2.88 17.3 3.04z" fill="#e89d00"/><path d="m209.66 118.87 20.19.57.03-.6-20.18-.57z" fill="#e89d00"/><path d="m209.7 118.27 20.18.57-2.27-2.77-17.84.78z" fill="#d59000"/><path d="m191.13 109.51-.4.66h1.24l-1.49.37-.3.5 1.78.08-2 .32-.37.6c17 1.34 20.09 6 20.09 6l.38-1.48c-3.53-6.25-18.93-7.05-18.93-7.05z" fill="#e6f0fc"/><path d="m193.36 111.63 1 .11 1 .12 1 .14 1 .16c1.27.22 2.53.48 3.78.8 1.251.317 2.483.704 3.69 1.16 1.21.452 2.369 1.028 3.46 1.72-.548-.334-1.115-.635-1.7-.9-.29-.14-.59-.26-.88-.39l-.9-.35c-1.209-.442-2.441-.819-3.69-1.13-1.24-.33-2.51-.58-3.77-.82l-1-.17-1-.15-1-.14z" fill="#fff"/><path d="m196.7 111.15c.61.1 1.22.22 1.82.35s1.21.28 1.81.43 1.19.33 1.78.53l.88.3.87.33-.88-.29-.89-.27c-.59-.18-1.19-.35-1.78-.5s-1.2-.31-1.8-.45z" fill="#fff"/><path d="m229.17 116.73 1.18.3-.13-.54-1-.66.88.2-.16-.63s-14.94-3.82-20.16 1.17l-.08 1.53s4.37-3.53 21 .23l-.15-.61z" fill="#e6f0fc"/><path d="m224.1 116.27c-.51-.05-1-.12-1.53-.17l-.77-.08-.8-.02c-1-.08-2-.13-3.07-.14s-2.05 0-3.07.1c-.51 0-1 .1-1.53.18s-1 .17-1.51.3c.982-.272 1.986-.456 3-.55 1.024-.094 2.052-.134 3.08-.12 1 0 2.06.07 3.08.17s2.11.18 3.12.33z" fill="#fff"/><path d="m227.61 116.07c-.5-.1-1-.21-1.51-.3l-.76-.15-.76-.13c-1-.17-2-.32-3-.42s-2-.17-3.07-.18c-.51 0-1 0-1.54 0s-1 .08-1.53.16c1.013-.186 2.04-.279 3.07-.28 1.029-.001 2.057.053 3.08.16 1 .11 2 .26 3.05.44s1.98.46 2.97.7z" fill="#fff"/><path d="m195.07 114.3s.42-.49 0-.75l-.42-.26-7.6 1.48 3.19 1.73 1.49-.34.06-.57z" fill="#c66f7e"/><path d="m190.49 116.27-2.51.23s1.17-.05 2.51-.23z" fill="#fb919f"/><path d="m178.9 113.81c-.675-.791-1.072-1.781-1.13-2.82-.022-.777.229-1.538.71-2.15-.576-.078-1.142-.215-1.69-.41 0 0-1.21 2.38-.94 3.66.276 1.009.662 1.985 1.15 2.91l1 .08 1.3-.17s.71.29 1.71.67c-.788-.48-1.5-1.077-2.11-1.77z" fill="#c66f7e"/><path d="m195.69 112.26c-.4-.26-3.28.33-5-.23-1.335-.488-2.607-1.133-3.79-1.92 1.247.116 2.503.116 3.75 0 1.18-.21 1.75-1.5 1-1.72s-2.12.28-3.68.12c-1.51-.25-3.041-.347-4.57-.29-1.446.083-2.883.273-4.3.57-.208.037-.422.037-.63 0-.48.612-.732 1.372-.71 2.15.058 1.038.455 2.029 1.13 2.82.576.688 1.25 1.288 2 1.78 2.1.8 5.53 2 6.69 1.85 1.71-.23 3.67-.59 3.88-.94l.22-.35-1.24.11c-1.34.18-2.51.23-2.51.23l2.51-.23c1.1-.101 2.179-.367 3.2-.79 1.63-.85 1.37-1.18 1.37-1.18l-6.27.46s6-.53 6.7-1.2.66-.97.25-1.24z" fill="#fb919f"/><path d="m237.28 109v7.85h-1.47v1h26.8c1.156 0 2.265-.459 3.083-1.277s1.277-1.926 1.277-3.083v-1.2c0-1.156-.459-2.265-1.277-3.083-.818-.817-1.927-1.277-3.083-1.277h-26.8v1z" fill="#ff6b6b"/><path d="m237.28 109v7.85h24.4c1.187.021 2.337-.416 3.21-1.22.203-.194.381-.412.53-.65.304-.471.467-1.019.47-1.58v-1c-.003-.561-.166-1.109-.47-1.58-.149-.238-.327-.456-.53-.65-.873-.804-2.023-1.241-3.21-1.22z" fill="#fff"/><g fill="#859dc5" opacity=".5"><path d="m237.28 110.18v.65h28.14c-.149-.238-.327-.456-.53-.65z" opacity=".5"/><path d="m265.88 112.56h-28.6v.65h28.6z" opacity=".5"/><path d="m237.28 114.94v.65h27.6c.203-.194.381-.412.53-.65z" opacity=".5"/></g><path d="m268.17 101.93h-30.07c-.602 0-1.09.488-1.09 1.09v3.81c0 .602.488 1.09 1.09 1.09h30.07c.602 0 1.09-.488 1.09-1.09v-3.81c0-.602-.488-1.09-1.09-1.09z" fill="#ff6b6b"/><path d="m266.54 101.93h-3.16v5.99h3.16z" fill="#e6f0fc"/><path d="m262.03 101.93h-.94v5.99h.94z" fill="#e6f0fc"/><path d="m265.88 101.22v-2.6099c0-.41-.49-.74-1.09-.74h-30.07c-.6 0-1.09.33-1.09.74v2.6099c0 .41.49.74 1.09.74h30.07c.6.04 1.09-.33 1.09-.74z" fill="#2c367c"/><path d="m239.52 97.8701h-3.16v4.0999h3.16z" fill="#e6ebf6"/><path d="m241.8 97.8701h-.94v4.0999h.94z" fill="#e6ebf6"/></g></svg>