<svg fill="none" height="130" viewBox="0 0 350 130" width="350" xmlns="http://www.w3.org/2000/svg"><path d="m81.42 0c8.39 13.88 11.58 31 7.58 46.7-7 26.91-30.92 45.37-52.95 62.3-6.85 5.27-14.41 12.86-12.71 21h58.66c50.383-17.045 96.638-44.4492 135.79-80.45 6.6-6.09 13.32-12.61 21.9-15.27s19.61.08 23.08 8.36c2.55 6.08.26 13.33-4 18.37s-10.15 8.36-15.91 11.55l-45.86 25.44c-4 2.21-8 4.49-11 8s-4.47 8.5-2.68 12.68c2.28 5.32 8.76 7.28 14.51 7.94 24 2.75 47.86-6.27 68.62-18.54s39.42-27.85 60.15-40.18c7.48-4.5018 15.304-8.404 23.4-11.67v-56.23z" fill="#f9d196"/><path d="m36.05 109c22-16.94 46-35.4 52.92-62.3 4.03-15.7.84-32.82-7.55-46.7h-81.42v130h23.34c-1.7-8.14 5.86-15.73 12.71-21z" fill="#fff1da"/><path d="m266.48 108.06c-20.77 12.27-44.66 21.29-68.62 18.54-5.75-.66-12.23-2.62-14.51-7.94-1.79-4.18-.24-9.19 2.68-12.68s7-5.77 11-8l45.87-25.44c5.77-3.2 11.67-6.51 15.91-11.55s6.53-12.29 4-18.37c-3.47-8.28-14.5-11-23.08-8.36s-15.3 9.18-21.9 15.27c-39.162 36.0128-85.432 63.425-135.83 80.47h268v-73.77c-8.082 3.2615-15.893 7.157-23.36 11.65-20.73 12.33-39.39 27.91-60.16 40.18z" fill="#ffb842"/><path d="m196.14 37.4c-.244.1361-.515.2162-.794.2343s-.558-.0262-.818-.1297c-.259-.1034-.493-.2634-.683-.4683-.19-.205-.331-.4496-.415-.7163-1-2.08-1.76-4.94 0-5.59s1.76-1.46 4.65-3.06 8.85.35 8.92 3.06-2 6.33-2 6.33z" fill="#533a71"/><path d="m306.598 75.7929.219-36.8593c.008-1.447-1.158-2.627-2.605-2.6355l-74.628-.4429c-1.447-.0086-2.627 1.1574-2.636 2.6044l-.219 36.8593c-.008 1.447 1.158 2.627 2.605 2.6355l74.628.4429c1.447.0086 2.627-1.1574 2.636-2.6044z" fill="#8edada"/><path d="m305.437 75.828.37-37.05-79.87-.7987-.37 37.05z" fill="#dbf3f5"/><path d="m281.33 78.2695.25-42.0993-1.44-.0085-.25 42.0992z" fill="#5ecccd"/><path d="m296.139 41.3105.015-2.53-7.81-.0463-.015 2.5299z" fill="#558a89"/><path d="m297.788 61.3132.048-7.9998-9.57-.0568-.047 7.9998z" fill="#8edada"/><path d="m267.273 41.1358.015-2.53-22.419-.133-.015 2.5299z" fill="#558a89"/><path d="m296.037 59.9445.033-5.5299-3.03-.018-.033 5.5299z" fill="#5ecccd"/><path d="m226.914 44.0334.019-3.13-3.13-.0186-.019 3.13z" fill="#558a89"/><path d="m226.746 72.8921.018-3.13-3.13-.0186-.018 3.13z" fill="#558a89"/><path d="m314.85 33.84s2.51-5.09 1.37-8-5.61-2.55-7.94-2.38-4.95.41-5.67 1.12 2.16 7.89 3.55 8.41l1.38.52z" fill="#533a71"/><path d="m316.28 42.53-1.49-7.53s1.59-2.47.73-3.59-1.38.27-1.38.27-.75-3.8-1.25-3.77-5 2-6 2.2l-1 .21s.8 7.67 1.74 8.78 3.14 1 3.14 1l.59 3z" fill="#fb919f"/><path d="m323.5 61.69 1.38 13.52-13.88 2.79s-5.77-19.33-5-25.3 2.46-9.32 5.39-10.33 7.77-1.58 9.51 3.58c.86 2.58 2.6 15.74 2.6 15.74z" fill="#ff6b6b"/><g fill="#533a71"><path d="m342.74 117.9-5.18 4.86s-12.68-11.63-16-17.65c-1.881-3.363-3.336-6.9472-4.33-10.67-3.013 2.6277-5.056 6.192-5.8 10.12-1.06 6.34-4 20-4 20h-6.43s.53-24.52 2.75-30.12 7.25-16.44 7.25-16.44l13.89-2.75s2.71 22.75 3.91 26.86 13.94 15.79 13.94 15.79z"/><path d="m307.44 124.56v4.62h-12.82v-.73c-.001-.441.153-.868.434-1.208s.673-.57 1.106-.652c1.82-.35 4.63-.93 4.84-1.21.185-.232.297-.514.32-.81z"/><path d="m341.89 117.86 3.16 3.36-9.35 8.78-.5-.54c-.302-.321-.483-.738-.51-1.178s.1-.876.36-1.232c1.09-1.5 2.74-3.84 2.7-4.2-.023-.296-.135-.578-.32-.81z"/><path d="m317.09 45.81c-3.47-3-9.39 8.24-9.39 8.24l6.09 4.7s7.51-9.27 3.3-12.94z"/></g><path d="m313.07 58.19s-5 7.41-6.92 8.36-14.5 2.08-14.5 2.08-3.11 1.29-4.15 1.69-3.67-1.51-3.69-1.86 2.64-2.11 2.64-2.11-1.71-.41-1.11-.93 5.89.76 5.89.76 12.05-3 12.85-3.9 4.92-7.22 4.92-7.22z" fill="#fb919f"/><path d="m311.48 36.16-3.37.67c.107.4286.375.7995.748 1.036s.823.3204 1.256.2342c.433-.0861.817-.3356 1.071-.6969.254-.3612.36-.8064.295-1.2433z" fill="#fff"/><path d="m208.47 43.92-3.47-6.86s.88-2.81-.26-3.65-1.26.63-1.26.63-1.74-3.46-2.21-3.3-4.27 3.26-5.2 3.72l-.94.47s2.82 7.18 4 8 3.28.09 3.28.09l1.36 2.71z" fill="#fb919f"/><path d="m220.53 60.45 4.94 12.66-12.65 6.36s-10.72-17.09-11.58-23-.11-9.64 2.43-11.4 7.07-3.59 10.12.91c1.56 2.26 6.74 14.47 6.74 14.47z" fill="#ff6b6b"/><path d="m245.39 117.32-5.18 5.1s-12.68-12.18-16-18.5c-1.887-3.543-3.341-7.2997-4.33-11.19-3.048 2.8024-5.086 6.5316-5.8 10.61-1.06 6.64-4 21-4 21h-6.45s.53-25.7 2.75-31.57 5.62-14.35 5.62-14.35l13.45-5.31s4.77 23.34 6 27.66 13.94 16.55 13.94 16.55z" fill="#533a71"/><path d="m210.09 124.3v4.84h-12.83v-.77c-.001-.451.151-.889.43-1.243.28-.354.671-.603 1.11-.707 1.82-.37 4.63-1 4.84-1.27.187-.246.298-.542.32-.85z" fill="#533a71"/><path d="m244.54 117.27 3.16 3.53-9.35 9.2-.5-.56c-.301-.344-.479-.778-.506-1.234-.027-.457.098-.909.356-1.286 1.09-1.57 2.74-4 2.7-4.4-.022-.308-.133-.604-.32-.85z" fill="#533a71"/><path d="m207.4 45.55c-2.7 3.72 9 8.62 9 8.62l4.14-6.49s-9.86-6.68-13.14-2.13z" fill="#533a71"/><path d="m219.69 49.07s6.84 3.62 8 5.1 7.75 20.24 7.75 20.24 2.56 3.21 2.56 3.76-2.57 4-3.85 3.26c-.941-.721-1.681-1.6713-2.15-2.76 0 0 .48 2.87-.3 2.88s-1.26-3.36-1-4.38c.186-.653.307-1.323.36-2l-7.88-16.92-6.82-4.09z" fill="#fb919f"/><path d="m202.37 39.57-3.21 1.21c.183.3936.508.7036.91.8677.401.1641.85.1702 1.257.0171.406-.1531.739-.4541.933-.8426.193-.3885.233-.8358.11-1.2522z" fill="#fff"/></svg>