<svg fill="none" height="130" viewBox="0 0 350 130" width="350" xmlns="http://www.w3.org/2000/svg" xmlns:xlink="http://www.w3.org/1999/xlink"><clipPath id="a"><path d="m0 0h350v130h-350z"/></clipPath><g clip-path="url(#a)"><path d="m224.12 44.16c-73.583 16.1698-149.4116 19.4653-224.12 9.74v76.1h93.51l.1-.06c37.3-20 74.35-42.81 116-50.2 46.24-8.2 93.39 3.35 140.34 6v-73.24c-42.26 8.79-83.58 22.33-125.83 31.66z" fill="#8edada"/><path d="m224.12 44.16c42.25-9.33 83.57-22.87 125.88-31.66v-12.5h-350v53.9c74.7084 9.7253 150.537 6.4298 224.12-9.74z" fill="#5ecccd"/><path d="m209.66 79.74c-41.7 7.39-78.74 30.16-115.9999 50.2l-.1.06h256.4399v-44.22c-47-2.69-94.1-14.23-140.34-6.04z" fill="#dbf3f5"/><path d="m316.93 65.96h-45.94c-.922 0-1.67.7477-1.67 1.67v47.89c0 .922.748 1.67 1.67 1.67h45.94c.922 0 1.67-.748 1.67-1.67v-47.89c0-.9223-.748-1.67-1.67-1.67z" fill="#8edadb"/><path d="m314.71 69.34h-41.71v12.91h41.71z" fill="#558a89"/><path d="m314.71 84.58h-41.71v12.91h41.71z" fill="#558a89"/><path d="m314.71 99.82h-41.71v12.91h41.71z" fill="#558a89"/><path d="m293.29 77.96c1.27 0 2.3-1.0298 2.3-2.3 0-1.2703-1.03-2.3-2.3-2.3s-2.3 1.0297-2.3 2.3c0 1.2702 1.03 2.3 2.3 2.3z" fill="#8edadb"/><path d="m293.29 93.2c1.27 0 2.3-1.0297 2.3-2.3 0-1.2702-1.03-2.3-2.3-2.3s-2.3 1.0298-2.3 2.3c0 1.2703 1.03 2.3 2.3 2.3z" fill="#8edadb"/><path d="m293.29 108.45c1.27 0 2.3-1.03 2.3-2.3s-1.03-2.3-2.3-2.3-2.3 1.03-2.3 2.3 1.03 2.3 2.3 2.3z" fill="#915f3a"/><path d="m275.46 117.2h4.61v5.14c0 .485-.193.951-.536 1.294s-.809.536-1.294.536h-.95c-.485 0-.951-.193-1.294-.536s-.536-.809-.536-1.294z" fill="#915f3a"/><path d="m309.12 117.2h4.61v5.14c0 .485-.193.951-.536 1.294s-.809.536-1.294.536h-.9c-.485 0-.951-.193-1.294-.536s-.536-.809-.536-1.294v-5.14z" fill="#915f3a"/><path d="m332.98 104.35h-19.81l2.17 19.81h15.47z" fill="#ff6b6b"/><path d="m324.38 64.63h-2.01c-4.755 0-8.61 3.8548-8.61 8.61v17.11c0 4.7552 3.855 8.61 8.61 8.61h2.01c4.755 0 8.61-3.8548 8.61-8.61v-17.11c0-4.7552-3.855-8.61-8.61-8.61z" fill="#77b590"/><path d="m324.63 83.96h-2.81v19.79h2.81z" fill="#915f3a"/><path d="m263.69 124.62h32.37v-31.21h-32.37z" fill="#bc9272"/><path d="m277.18 96.72h6.81v-3.31h-6.81z" fill="#dccac1"/><path d="m277.18 124.62h6.81v-2.89h-6.81z" fill="#dccac1"/><path d="m262.75 25.46s3.59-4.69 3-7.84-5.2-3.73-7.62-4-5.13-.59-6 0 .61 8.48 1.92 9.29l1.31.81z" fill="#533a71"/><path d="m262.45 34.62v-8s2.12-2.2 1.46-3.51-1.46 0-1.46 0 0-4-.51-4.1-5.49 1-6.59 1h-1.1s-.73 8 0 9.3 3 1.61 3 1.61v3.18z" fill="#fb919f"/><path d="m265.94 55.6-1.32 14.06h-14.72s-2-20.87 0-26.8 4.39-9 7.58-9.45 8.24 0 9 5.57c.35 2.86-.54 16.62-.54 16.62z" fill="#ff6b6b"/><g fill="#533a71"><path d="m282.85 112.05-5.38 5.05s-13.18-12.1-16.58-18.34c-1.955-3.4953-3.467-7.2207-4.5-11.09-3.122 2.7356-5.235 6.4403-6 10.52-1.1 6.58-4.18 20.78-4.18 20.78h-6.7s.55-25.48 2.86-31.3 7.58-18 7.58-18h14.72s2.5 21.7 3.74 26 14.44 16.38 14.44 16.38z"/><path d="m246.17 119v4.8h-13.33v-.8c.007-.456.169-.896.46-1.247s.693-.592 1.14-.683c1.89-.36 4.81-1 5-1.26.191-.241.306-.533.33-.84z"/><path d="m282 112 3.28 3.5-9.71 9.12-.52-.56c-.307-.336-.491-.767-.52-1.222-.029-.454.098-.905.36-1.278 1.13-1.56 2.85-4 2.8-4.36-.027-.308-.145-.6-.34-.84z"/><path d="m263.67 36.78c-3.44-3.32-10.18 8.05-10.18 8.05l6.08 5.2s8.27-9.22 4.1-13.25z"/></g><path d="m214.9 67.39h32.37v-31.21h-32.37z" fill="#bc9272"/><path d="m258.84 49.41s-5.57 7.43-7.62 8.31-15.16 1.39-15.16 1.39-3.3 1.17-4.39 1.54-3.73-1.76-3.73-2.12 2.86-2.05 2.86-2.05-1.76-.51-1.1-1 6.08 1.1 6.08 1.1 12.67-2.49 13.55-3.37 5.48-7.23 5.48-7.23z" fill="#fb919f"/><path d="m228.41 39.49h6.81v-3.31h-6.81z" fill="#dccac1"/><path d="m228.41 67.39h6.81v-2.89h-6.81z" fill="#dccac1"/><path d="m258.84 27.15h-3.57c.034.4503.236.8713.567 1.1784.332.3072.766.4779 1.218.4779s.887-.1707 1.218-.4779c.331-.3071.533-.7281.567-1.1784z" fill="#fff"/><path d="m296.1 124.62h25.67v-20.05h-25.67z" fill="#bc9272"/><path d="m306.26 107.88h6.81v-3.31h-6.81z" fill="#dccac1"/><path d="m306.26 124.62h6.81v-2.89h-6.81z" fill="#dccac1"/><path d="m298.77 104.57h-2.72v20.05h2.72z" fill="#a8795a"/></g></svg>