<svg fill="none" height="130" viewBox="0 0 350 130" width="350" xmlns="http://www.w3.org/2000/svg" xmlns:xlink="http://www.w3.org/1999/xlink"><clipPath id="a"><path d="m0 0h350v130h-350z"/></clipPath><g clip-path="url(#a)"><path d="m0 0h350v130h-350z" fill="#f6faff"/><path d="m193.303 32.7297c-54.456 18.973-135.8883 18.973-208.3286-7.7297l-30.9744 139.838 337.721 42.162c30.309-40.523 86.529-124.8 68.943-137.7297-21.981-16.1622-112.906-55.5135-167.361-36.5406z" fill="#e5f1fe"/><path d="m200.267 82.6708c-60.948-5.5713-152.8704 3.7142-204.32695 14.2377l-70.94005 38.9985 20.9823 83.569 353.2017 10.524 97.417-71.188c3.997-23.317 1.799-68.3415-38.967-61.9035-50.957 8.0475-96.418-8.6665-157.367-14.2377z" fill="#83beff"/><path d="m273 57h-24v10h24z" fill="#ffb942"/><path d="m276.501 159.038h-32.419c-5.523 0-10-4.473-10-9.996v-11.173c0-47.3793 14.919-30.242 14.919-73.589h24l8.994 29.549c2.987 9.817 4.506 20.021 4.506 30.282v24.927c0 5.523-4.477 10-10 10z" fill="#0078fa"/><path d="m273 54h-24v5h24z" fill="#db9a2d"/><path d="m281.46 45.1269c0-15.121-14.113-14.1129-45.363-14.1129v10.0806h11.089v12.9054h25.814c0-3.0242 2.008-8.8731 8.46-8.8731z" fill="#ffb942"/><path d="m234.081 73.3526h-10.081c12.903-16.9355 14.113-28.5619 13.105-32.2581h10.08c0 16.129-8.736 28.2258-13.104 32.2581z" fill="#db9a2d"/><path d="m236.065 32.022h-8.065v8.0645h8.065z" fill="#db9a2d"/><path d="m271 112h-21c-2.209 0-4 1.791-4 4v30c0 2.209 1.791 4 4 4h21c2.209 0 4-1.791 4-4v-30c0-2.209-1.791-4-4-4z" fill="#ffb942"/></g></svg>