<svg fill="none" height="130" viewBox="0 0 350 130" width="350" xmlns="http://www.w3.org/2000/svg" xmlns:xlink="http://www.w3.org/1999/xlink"><clipPath id="a"><path d="m0 0h350v130h-350z"/></clipPath><g clip-path="url(#a)"><path d="m0 0h350v130h-350z" fill="#ede9f0"/><path d="m286.409 131.881c0 61.304-49.696 111-111 111-61.303 0-110.9996-49.696-110.9996-111 0-23.615-5-48.8864 19.9457-63.5 37.5539-22 53.3659-47.4999 91.0539-47.4999 57.495-9.8659 97.5 5 101.852 53.9999.888 10.0001 9.148 36 9.148 57z" fill="#faf9fb"/><path d="m132.002 63c-28.5-31-26.5-44.5 39.5-90 10-7.6667 59.6-23 178-23 148 0 33.5 136 20.5 199.5s-114.5 9.5-137-35-72.5-20.5-101-51.5z" fill="#baa8c6"/><path d="m246.001 74.5c.315-.6276.764-1.3771 1.262-2.208 1-1.6662 2.195-3.6598 2.896-5.6553 1.174-17.5202 6.998-28.4255 12.463-35.472 1.588-1.2996 11.462-6.8389 17.927-5.6566 6.32 1.3901 14.842 4.8094 16.802 8.8918 1.327.3547 2.939.6841 4.677 1.0392 6.012 1.2287 13.534 2.7658 16.007 6.7262.806 1.6787.634 2.6606.291 4.6246-.025.139-.05.283-.075.4325-.032.1809-.062.3705-.094.5682-.416 2.6017-1.056 6.5922-6.564 10.1373-2.626 1.6906-5.162 2.3503-8.008 3.0908-3.576.9303-7.641 1.9882-12.993 5.378-.999.7519-1.63 1.2263-2.107 1.8233-.817 1.0204-1.185 2.399-2.183 6.1339-.036.4959-.059 1.247-.037 2.1171 6.49 27.05-2.19 39.242-7.764 42.029-.167 1.667-.4 7.5 0 17.5 12.4 8 9.833 12.667 7 14h-65.5c-3.2 0-4.333-1.667-4.5-2.5l-.7-5c-15.3 0-20.3-23-18.3-40 0-3 5-3 5-1-.4 17.2 10.5 21.167 16 21 5.137-21.949 16.816-36.0465 28.52-47.9965z" fill="#f5cab3"/><path d="m310.674 37.5461c3.234 1.0574 6.029 2.4871 7.36 4.6191.806 1.6787.634 2.6606.291 4.6246-.025.139-.05.283-.075.4325-.032.1809-.062.3705-.094.5682-.11.6872-.235 1.4712-.462 2.3184l-1.212-.4259c-3.982-1.1831-6.447-5.7522-5.752-11.9838z" fill="#030303"/><path d="m247.261 72.2921c-.498.8309-.947 1.5804-1.262 2.208l.02.0035c-.281.287-.562.5752-.843.8647l42.441 7.7854c-.346-2.1189-.793-4.3453-1.354-6.6825-.022-.8702.001-1.6213.037-2.1172.081-.3016.157-.5879.23-.8599l-36.435-6.6838c-.708 1.9372-1.863 3.8639-2.834 5.4818z" fill="#ff6b6b"/><path d="m294.935 40.1201c-.227-.4722-.544-.895-.934-1.2445-.39-.3494-.845-.6186-1.339-.7922s-1.018-.2482-1.541-.2195-1.035.1601-1.507.3867c-.472.2267-.895.5441-1.244.9341-.35.39-.619.8451-.793 1.3392-.173.4941-.248 1.0175-.219 1.5404s.16 1.035.387 1.5072l1.424-.6836c-.137-.2851-.217-.5944-.234-.9102-.017-.3157.028-.6319.133-.9302.104-.2984.267-.5732.478-.8088.211-.2355.466-.4272.752-.5641.285-.1368.594-.2162.91-.2335.316-.0174.632.0277.93.1325.298.1049.573.2674.809.4785.235.211.427.4664.564.7515z" fill="#030303"/><path d="m253.925 57.5931c-5.872-4.5538-2.551-15.593 9.059-27.2033 5.014-5.0138 12.072-5.0572 13.158-4.8415 1.99 5.6803-7.286 27.8263-9.155 33.1472-1.87 5.3208-7.19 3.4513-13.062-1.1024z" fill="#ddad82"/><path d="m255.5 110.5c6 12 11.5 19.5-4 30.5 9 1 18 3.5 18 9" stroke="#ddad82" stroke-linejoin="round" stroke-width="2"/></g></svg>