<svg fill="none" height="130" viewBox="0 0 350 130" width="350" xmlns="http://www.w3.org/2000/svg" xmlns:xlink="http://www.w3.org/1999/xlink"><clipPath id="a"><path d="m0 0h350v130h-350z"/></clipPath><g clip-path="url(#a)"><path d="m0 0h350v130h-350z" fill="#fbe4e4"/><path d="m170.192 122c-14.373 53.897-45.219 101-101.0002 101-55.7808 0-101-45.219-101-101 0-55.7808 6.7192-99.5001 62.5-99.5001 28.6046 0 28.5-17 111.3082 29.5 53.692 20 30.192 62.5001 28.192 70.0001z" fill="#fff"/><path d="m193.5 33.5c-59 8-48.5 43-195 40l-47-99c115.3333 3.1667 343.1 12.6 331.5 25-14.5 15.5-30.5 26-89.5 34z" fill="#fff5f5"/><path d="m206.537 130.422c.828-29.69 18.212-50.3087 46.356-50.3087l-31.456 54.4327c-5.242 8.522-15.562 19.629-14.9-4.124z" fill="#915f3a"/><path d="m299.25 130.422c-.828-29.69-18.212-50.3087-46.357-50.3087l31.456 54.4327c5.243 8.522 15.563 19.629 14.901-4.124z" fill="#915f3a"/><path d="m206.329 149.693c15.738 0 21.537-4.141 35.618-12.425 13.916-7.952.276-16.566-8.283-19.88-1.933 1.105-7.786 3.976-15.738 6.627-9.94 3.313 1.656-14.082-11.597-14.082-19.052 5.799-15.738 39.76 0 39.76z" fill="#e1ac79"/><path d="m204.895 149.597c.901-2.226 1.208-4.724.76-7.263l-2.013-11.421c-.855-4.845-4.241-8.609-8.559-10.169-4.58 11.467-.288 27.465 9.812 28.853z" fill="#bf8958"/><path d="m297.8 149.693c-15.741 0-21.54-4.141-35.623-12.425-13.917-7.952-.276-16.566 8.284-19.88 1.933 1.105 7.788 3.976 15.741 6.627 9.941 3.313-1.657-14.082 11.598-14.082 19.053 5.799 15.74 39.76 0 39.76z" fill="#e1ac79"/><path d="m299.234 149.596c-.901-2.226-1.209-4.723-.761-7.262l2.014-11.421c.855-4.845 4.241-8.609 8.56-10.169 4.58 11.467.288 27.464-9.813 28.852z" fill="#bf8958"/><path d="m287.21 44.0217c0 6.8621-5.563 12.425-12.425 12.425s-12.425-5.5629-12.425-12.425c0-6.8622 5.563-12.425 12.425-12.425s12.425 5.5628 12.425 12.425z" fill="#915f3a"/><path d="m241.77 44.0217c0 6.8621-5.563 12.425-12.425 12.425s-12.425-5.5629-12.425-12.425c0-6.8622 5.563-12.425 12.425-12.425s12.425 5.5628 12.425 12.425z" fill="#915f3a"/><path d="m227.177 103.239c2.311-4.7572 3.466-7.1356 4.402-8.5503 10.107-15.2695 32.521-15.2695 42.628 0 .937 1.4147 2.092 3.7931 4.402 8.5503 1.65 3.396 2.475 5.094 2.919 6.383 4.723 13.685-4.387 28.237-18.76 29.968-1.354.163-3.242.163-7.017.163h-5.715c-3.776 0-5.664 0-7.017-.163-14.373-1.731-23.483-16.283-18.761-29.968.445-1.289 1.27-2.987 2.919-6.383z" fill="#bf8958"/><path d="m231.352 49.7665c1.433-1.9802 2.149-2.9703 2.753-3.6834 9.831-11.618 27.745-11.618 37.577 0 .603.7131 1.32 1.7032 2.753 3.6834 1.938 2.6782 2.907 4.0173 3.464 4.9506 9.303 15.5841-.885 35.5338-18.964 37.1337-1.083.0958-2.736.0958-6.042.0958s-4.959 0-6.041-.0958c-18.079-1.5999-28.268-21.5496-18.965-37.1337.557-.9333 1.527-2.2724 3.465-4.9506z" fill="#e1ac79"/><path d="m267.803 121.53c0 4.575-6.675 8.283-14.91 8.283-8.234 0-14.91-3.708-14.91-8.283s6.676-8.283 14.91-8.283c8.235 0 14.91 3.708 14.91 8.283z" fill="#e1ac79"/><g fill="#915f3a"><path d="m247.213 60.2333c0 2.8755-1.907 5.2066-4.26 5.2066-2.352 0-4.26-2.3311-4.26-5.2066 0-2.8756 1.908-5.2067 4.26-5.2067 2.353 0 4.26 2.3311 4.26 5.2067z"/><path d="m267.093 60.2333c0 2.8755-1.907 5.2066-4.26 5.2066-2.352 0-4.26-2.3311-4.26-5.2066 0-2.8756 1.908-5.2067 4.26-5.2067 2.353 0 4.26 2.3311 4.26 5.2067z"/><path d="m251.344 75.4583c.889.7701 2.209.7701 3.099 0l1.85-1.6026c1.657-1.4345.642-4.1557-1.549-4.1557h-3.701c-2.191 0-3.206 2.7212-1.549 4.1557z"/></g><path d="m263.471 78.6432c-1.52 2.6329-3.968 4.6043-6.864 5.5287s-6.033.7354-8.797-.53l.913-1.995c2.268 1.0381 4.841 1.1931 7.217.4348 2.376-.7584 4.384-2.3756 5.631-4.5355z" fill="#bc9272"/></g></svg>