<svg fill="none" height="296" viewBox="0 0 296 296" width="296" xmlns="http://www.w3.org/2000/svg"><path clip-rule="evenodd" d="m254.786 250.473c25.526-26.593 41.214-62.701 41.214-102.473 0-81.7381-66.262-148-148-148-81.7381 0-148 66.2619-148 148 0 81.675 66.1599 147.898 147.811 148h.361c39.843-.045 75.999-15.835 102.58-41.482 1.37-1.322 2.715-2.671 4.034-4.045zm-11.079-59.861c5.805-13.018 9.031-27.438 9.031-42.612 0-57.8455-46.893-104.7385-104.738-104.7385-57.8455 0-104.7385 46.893-104.7385 104.7385 0 33.26 15.5034 62.9 39.6779 82.086l26.2196-33.081c-14.8715-11.341-24.4444-29.089-24.4444-49.037 0-34.242 28.2064-62.0001 63.0004-62.0001s63 27.7581 63 62.0001c0 9.083-1.985 17.71-5.551 25.483zm-95.992-23.906c11.556 0 19.738-9.039 19.738-18.738s-8.182-18.739-19.738-18.739c-11.557 0-19.739 9.04-19.739 18.739s8.182 18.738 19.739 18.738z" fill="#0078fa" fill-rule="evenodd"/></svg>