<svg fill="none" height="237" viewBox="0 0 355 237" width="355" xmlns="http://www.w3.org/2000/svg" xmlns:xlink="http://www.w3.org/1999/xlink"><clipPath id="a"><path d="m0 0h355v237h-355z"/></clipPath><g clip-path="url(#a)"><path d="m0 0h355v237h-355z" fill="#ff6b6b"/><rect fill="#ffdada" height="307" rx="16" transform="matrix(.70710678 -.70710678 .70710678 .70710678 -180.708307 151.895554)" width="307" x="93" y="294.082"/><rect fill="#ffdada" height="175.246" rx="16" transform="matrix(.70710678 -.70710678 .70710678 .70710678 6.564079 -14.31691)" width="175.246" x="-14" y="-15.082"/><rect fill="#ffdada" height="67.2331" rx="16" transform="matrix(.70710678 -.70710678 .70710678 .70710678 15.001433 157.298664)" width="67.2331" x="197.377" y="60.541"/><path d="m254-11.1504h8v276.957h-8z" fill="#fff" transform="matrix(.70710678 -.70710678 .70710678 .70710678 82.279401 176.339246)"/><path d="m283.906.37085h8v276.957h-8z" fill="#0078fa" transform="matrix(.70710678 -.70710678 .70710678 .70710678 82.891912 200.860477)"/><path d="m323 20.6569h8v276.957h-8z" fill="#ffdada" transform="matrix(.70710678 -.70710678 .70710678 .70710678 79.997876 234.445756)"/><rect fill="#fff" height="139.784" rx="12" width="106.08" x="143.85" y="48.3557"/><path d="m226.536 82.2434h-27.473c-.576 0-1.129-.2267-1.537-.6302-.407-.4035-.636-.9508-.636-1.5214 0-.5707.229-1.1179.636-1.5214.408-.4035.961-.6302 1.537-.6302h27.473c.577 0 1.13.2267 1.537.6302.408.4035.637.9507.637 1.5214 0 .5706-.229 1.1179-.637 1.5214-.407.4035-.96.6302-1.537.6302z" fill="#ff6b6b"/><path d="m235.502 89.5056h-36.439c-.576 0-1.129-.2267-1.537-.6302-.407-.4035-.636-.9508-.636-1.5214 0-.5707.229-1.1179.636-1.5214.408-.4035.961-.6302 1.537-.6302h36.439c.576 0 1.129.2267 1.537.6302.407.4035.636.9507.636 1.5214 0 .5706-.229 1.1179-.636 1.5214-.408.4035-.961.6302-1.537.6302z" fill="#ff6b6b"/><path d="m229.372 114.435h-54.698c-.461 0-.903-.223-1.229-.621-.326-.397-.509-.936-.509-1.497 0-.562.183-1.101.509-1.498s.768-.62 1.229-.62h54.698c.46 0 .902.223 1.228.62s.509.936.509 1.498c0 .561-.183 1.1-.509 1.497-.326.398-.768.621-1.228.621z" fill="#ffdada"/><path d="m236.224 122.06h-61.559c-.459 0-.898-.223-1.222-.62-.325-.397-.507-.936-.507-1.498 0-.561.182-1.1.507-1.497.324-.398.763-.621 1.222-.621h61.559c.459 0 .898.223 1.223.621.324.397.506.936.506 1.497 0 .562-.182 1.101-.506 1.498-.325.397-.764.62-1.223.62z" fill="#ffdada"/><path d="m229.372 139.003h-54.7c-.461-.001-.902-.224-1.228-.621-.325-.397-.508-.936-.508-1.497s.183-1.1.508-1.497c.326-.397.767-.62 1.228-.621h54.7c.46 0 .902.223 1.228.62.326.398.509.936.509 1.498s-.183 1.1-.509 1.498c-.326.397-.768.62-1.228.62z" fill="#ffdada"/><path d="m236.224 145.78h-61.561c-.458-.001-.897-.224-1.221-.621s-.506-.936-.506-1.497.182-1.099.506-1.497c.324-.397.763-.62 1.221-.621h61.561c.459 0 .898.223 1.223.621.324.397.506.935.506 1.497s-.182 1.101-.506 1.498c-.325.397-.764.62-1.223.62z" fill="#ffdada"/><rect fill="#fff" height="18.7851" rx="1.74961" stroke="#ff6b6b" stroke-width=".699845" width="18.9763" x="157.032" y="158.838"/><rect fill="#ff6b6b" height="19.485" rx="2.09953" width="19.6761" x="187.479" y="158.488"/><rect fill="#fff" height="18.7851" rx="1.74961" stroke="#ff6b6b" stroke-width=".699845" width="18.9763" x="218.627" y="158.838"/><g fill="#ff6b6b"><path d="m171.225 70.3826c4.252 0 7.7 3.4136 7.7 7.6245s-3.448 7.6246-7.7 7.6246-7.699-3.4137-7.699-7.6246 3.447-7.6245 7.699-7.6245z"/><path d="m173.532 86.9024c2.816 0 4.466.4129 5.93 1.1882 1.464.7752 2.613 1.9129 3.396 3.3625.713 1.3215 1.123 2.7962 1.19 5.16l.009.4554h-25.664l.004-.1971c.043-2.5158.456-4.0493 1.196-5.4183.783-1.4496 1.931-2.5873 3.395-3.3625 1.464-.7753 3.114-1.1882 5.931-1.1882z"/><path d="m166.591 114.101-.983-.973-4.915 4.866-1.638-1.622-.983.973 2.621 2.596z"/><path d="m166.591 137.822-.983-.974-4.915 4.867-1.638-1.623-.983.974 2.621 2.596z"/></g></g></svg>